<svg width="36" height="40" fill="none" xmlns="http://www.w3.org/2000/svg"><g clip-path="url(#clip0)" fill-rule="evenodd" clip-rule="evenodd"><path d="M11.893 6.18L19.954.94c2.014-1.308 4.488-1.221 6.334.223l6.913 5.413c1.916 1.5 2.556 4.013 1.608 6.312l-1.766 4.283c-.558 1.354-.58 2.697-.066 4.04l1.358 3.554c.76 1.989.34 4.136-1.146 5.727l-7.168 7.675c-1.24 1.328-2.87 2.028-4.643 1.786L5.765 37.818c-1.584-.216-2.885-.901-3.804-2.191-.92-1.29-1.209-2.765-.85-4.337l.44-1.924a5.238 5.238 0 00.077-2.044l-.847-5.58c-.339-2.233.657-4.367 2.604-5.58l3.131-1.952c1.15-.717 1.924-1.687 2.363-2.964l.742-2.16c.427-1.24 1.168-2.188 2.272-2.906z" fill="#EBE8F6"/><path d="M11.177 5.876l8.061-5.03c2.014-1.256 4.489-1.104 6.334.39l6.913 5.592c1.916 1.55 2.556 4.08 1.608 6.354l-1.765 4.237c-.558 1.34-.58 2.683-.067 4.039l1.358 3.589c.76 2.009.332 4.138-1.146 5.697l-6.597 6.959c-1.234 1.302-2.863 1.886-4.643 1.664L5.05 37.354c-1.592-.198-2.886-.977-3.805-2.291-.92-1.314-1.209-2.797-.85-4.36l.44-1.912c.161-.703.185-1.33.077-2.042l-.847-5.602c-.339-2.242.657-4.35 2.604-5.513L5.8 13.765c1.15-.687 1.924-1.637 2.363-2.903l.743-2.14c.426-1.23 1.167-2.157 2.271-2.846z" fill="#B1ADC6"/><path d="M11.177 5.876l8.061-5.03c2.014-1.255 4.489-1.104 6.334.39l5.59 4.523-5.193-1.686c-1.476-.479-2.926-.335-4.278.425l-3.567 2.005c-1.642.923-2.618 2.49-2.723 4.372l-.169 3.043a5.335 5.335 0 01-5.025 5.05l-4.724.284a5.312 5.312 0 00-4.978 4.582l-.016.114-.424-2.801c-.339-2.242.657-4.35 2.604-5.512l3.131-1.87c1.15-.687 1.924-1.637 2.363-2.903l.743-2.14c.426-1.23 1.167-2.157 2.271-2.846z" fill="#C4C1D6"/><path d="M34.093 13.182l-1.765 4.237c-.558 1.34-.58 2.683-.067 4.039l1.358 3.589c.76 2.009.332 4.138-1.146 5.697l-6.597 6.959c-1.234 1.302-2.863 1.886-4.643 1.664L5.05 37.354c-1.592-.198-2.886-.977-3.805-2.291-.92-1.314-1.209-2.797-.85-4.36l.44-1.912.795 1a3.572 3.572 0 004.34 1.032l3.124-1.445c.432-.2.834-.3 1.31-.327l7.882-.447a3.583 3.583 0 003.376-3.157l.73-5.87c.17-1.373 1.034-2.46 2.332-2.94l9.369-3.455z" fill="#8785A8"/><path d="M26.899 21.603c1.45 0 2.624.988 2.624 2.207 0 1.22-1.175 2.207-2.624 2.207-1.45 0-2.625-.988-2.625-2.207 0-1.219 1.175-2.207 2.625-2.207zm-8.979 9.724c1.96 0 3.55 1.148 3.55 2.565s-1.59 2.565-3.55 2.565c-1.96 0-3.549-1.148-3.549-2.565s1.59-2.565 3.55-2.565z" fill="#6F6E90"/><path d="M15.594 20.827c1.466 0 2.655 1.082 2.655 2.416 0 1.335-1.19 2.416-2.655 2.416-1.466 0-2.655-1.081-2.655-2.416 0-1.334 1.189-2.416 2.655-2.416zM26.6 7.703c1.22 0 2.208.922 2.208 2.058 0 1.137-.989 2.058-2.208 2.058-1.218 0-2.207-.92-2.207-2.058 0-1.136.989-2.058 2.207-2.058zM4.528 23.691c1.054 0 1.909.721 1.909 1.61 0 .89-.855 1.611-1.91 1.611-1.053 0-1.908-.72-1.908-1.61 0-.89.855-1.611 1.909-1.611z" fill="#8785A8"/><path d="M12.253 10.09c.84 0 1.521.48 1.521 1.073 0 .594-.68 1.074-1.52 1.074s-1.522-.48-1.522-1.074c0-.593.681-1.074 1.521-1.074zm6.324-7.636c.74 0 1.342.4 1.342.895 0 .494-.601.894-1.342.894-.742 0-1.342-.4-1.342-.894 0-.495.6-.895 1.342-.895zM8.435 14.743c-.61 0-1.103.333-1.103.745s.494.746 1.103.746c.61 0 1.104-.334 1.104-.746s-.494-.745-1.104-.745z" fill="#B1ADC6"/></g><defs><clipPath id="clip0"><path fill="#fff" d="M0 0h35.242v40H0z"/></clipPath></defs></svg>