<svg width="400" height="301" fill="none" xmlns="http://www.w3.org/2000/svg"><g clip-path="url(#clip0)"><path d="M207.867 40.455a328.947 328.947 0 010 0z" fill="#fff"/><path d="M111.883 55.568c-7.108 2.588-14.022 5.682-20.758 9.093-6.72 3.437-13.266 7.247-19.362 11.681-12.185 8.777-23.151 19.595-30.257 32.706-7.225 12.983-9.537 28.512-5.85 42.713 3.608 14.259 12.53 26.717 23.441 36.602 10.938 9.975 23.854 17.703 37.38 23.858 13.578 6.115 27.88 10.593 42.419 13.917l.939.214.76.674 30.337 26.857 15.101 13.509-2.504-5.584-10.658-24.1-2.96-6.694 7.264.635c18.468 1.616 37.084 1.316 55.526-.538 18.428-1.929 36.689-5.682 54.236-11.569 17.491-5.919 34.445-13.954 48.988-25.265 7.23-5.657 13.917-12.068 19.307-19.45 5.354-7.376 9.553-15.658 11.481-24.558.611-2.197.767-4.474 1.143-6.717.079-2.268.389-4.541.224-6.818.005-4.563-.797-9.092-1.893-13.526-1.141-4.439-2.913-8.7-4.938-12.835-2.19-4.048-4.561-8.039-7.445-11.676-5.593-7.407-12.411-13.885-19.816-19.57-7.398-5.715-15.431-10.616-23.801-14.833-16.759-8.426-34.754-14.378-53.148-18.209-18.404-3.881-37.23-5.569-56.032-5.718-15.148.135-30.312 1.197-45.254 3.723-14.952 2.41-29.691 6.201-43.87 11.478" fill="#fff"/><path d="M217.363 40.827c.481.025.96.054 1.441.083-.479-.03-.96-.055-1.441-.083zM208.207 40.462zM192.097 40.502c.202-.004.403-.01.605-.015l-.605.015z" fill="#fff"/><path d="M369.343 122.326c-1.333-4.647-3.311-9.06-5.539-13.306-2.39-4.152-4.963-8.208-8.03-11.867-5.96-7.46-13.09-13.857-20.747-19.412-7.672-5.55-15.861-10.325-24.342-14.454-16.991-8.25-35.159-13.75-53.583-17.512-12.625-2.588-25.44-4.125-38.298-4.866-.481-.03-.96-.056-1.441-.082-.981-.05-1.962-.11-2.943-.153a319.31 319.31 0 00-6.213-.212c-.112-.002-.226-.005-.34-.005-2.287-.051-4.573-.083-6.859-.088 18.801.15 37.628 1.837 56.031 5.719 18.395 3.83 36.389 9.782 53.148 18.208 8.37 4.217 16.403 9.118 23.801 14.833 7.405 5.685 14.224 12.163 19.816 19.57 2.885 3.638 5.255 7.628 7.445 11.676 2.025 4.136 3.797 8.396 4.938 12.836 1.097 4.434 1.9 8.963 1.893 13.525.165 2.278-.146 4.55-.224 6.819-.376 2.242-.532 4.52-1.142 6.717-1.929 8.9-6.128 17.182-11.481 24.557-5.391 7.382-12.078 13.794-19.308 19.451-14.542 11.311-31.496 19.345-48.987 25.264-17.547 5.887-35.809 9.64-54.237 11.569-18.442 1.854-37.057 2.155-55.526.539l-7.264-.636 2.96 6.694 10.658 24.1 2.504 5.585-15.101-13.509-30.337-26.858-.76-.674-.939-.214c-14.538-3.323-28.84-7.801-42.42-13.916-13.525-6.156-26.44-13.884-37.378-23.859-10.912-9.884-19.834-22.343-23.441-36.602-3.688-14.2-1.376-29.73 5.85-42.713 7.105-13.11 18.071-23.929 30.257-32.706 6.095-4.434 12.64-8.243 19.361-11.68 6.736-3.412 13.65-6.506 20.759-9.094 14.178-5.276 28.918-9.068 43.87-11.477 14.941-2.527 30.105-3.589 45.254-3.724-1.562-.001-3.122.02-4.683.04-1.208.02-2.415.05-3.622.08l-.606.014c-27.327.783-54.599 5.319-80.477 14.34C97.31 59.896 83.492 66.5 70.834 75.009 58.27 83.551 46.76 94.227 38.99 107.647c-7.889 13.271-10.899 29.741-7.355 45.071a61.563 61.563 0 003.592 11.169c1.495 3.618 3.344 7.08 5.409 10.391 4.116 6.644 9.186 12.626 14.773 18.013 11.199 10.791 24.411 19.178 38.249 25.946 13.574 6.579 27.87 11.55 42.475 15.14l29.202 26.724 30.03 27.198 15.01 13.594-8.193-18.546-10.648-24.104-7.843-17.505c35.683 1.955 71.848-2.344 105.61-14.455 17.905-6.614 35.231-15.394 50.118-27.632 7.4-6.125 14.245-13.048 19.744-21.028 5.464-7.97 9.711-16.936 11.516-26.521.579-2.365.695-4.811 1.022-7.215.024-2.429.277-4.855.039-7.277-.132-4.855-1.109-9.64-2.398-14.283" fill="#1A181B"/><path d="M6.471 41.595L0 52.185 54.947 73.01 6.471 41.595zM69.403 0L57.29 2.699l14.046 56.03L69.403 0zM17.793.483L4.296 10.935 64.763 64.57 17.793.483zM365.857 89.604L400 76.664l-4.02-6.581-30.123 19.521zM356.875 44.234l-1.202 36.495 8.728-34.817-7.526-1.678zM397.331 51.03l-8.386-6.496-29.187 39.827 37.573-33.33z" fill="#1B171B"/></g><defs><clipPath id="clip0"><path fill="#fff" d="M0 0h400v300.893H0z"/></clipPath></defs></svg>