<svg xmlns="http://www.w3.org/2000/svg" width="192.253" height="207.747" viewBox="0 0 50.867 54.966"><path d="M15.2 7.745l-6.326 20.67 16.56 15.117 16.559-15.116-6.325-20.671H15.199" fill="#5bc7a6"/><path d="M17.3 10.882l-5.028 16.43 13.162 12.014 13.161-12.015-5.027-16.43H17.299" fill="#54c4a0"/><path d="M25.434 54.966V43.532L8.874 28.416 0 31.748l25.434 23.218" fill="#47c099"/><path d="M25.434 54.966V43.532l16.559-15.116 8.874 3.332-25.433 23.218" fill="#39b288"/><path d="M41.993 28.416L35.668 7.745 41.152 0l9.715 31.748-8.874-3.332" fill="#47c099"/><path d="M8.874 28.416L15.2 7.745 9.715 0 0 31.748l8.874-3.332" fill="#56c5a2"/><path d="M9.715 0h31.437l-5.484 7.745H15.199L9.715 0" fill="#62c9ab"/><path d="M16.363 7.29l5.423 1.164-5.423 1.164-1.164 5.423-1.164-5.423-5.423-1.164 5.423-1.164L15.2 1.867l1.164 5.423M42.568 29.004l2.678.576-2.678.575-.575 2.678-.575-2.678-2.678-.575 2.678-.576.575-2.678.575 2.678" fill="#fff"/></svg>