<svg xmlns="http://www.w3.org/2000/svg" width="150.013" height="206.063" viewBox="0 0 39.691 54.521"><path d="M8.951 45.78L0 54.52V0l8.951 8.741V45.78" fill="#be5bb4"/><path d="M39.691 54.52H0l8.951-8.74H30.74l8.951 8.74" fill="#ab45a9"/><path d="M39.691 54.52l-8.951-8.74V8.74L39.69 0v54.52" fill="#be5bb4"/><path d="M30.74 8.741H8.95L0 0h39.691L30.74 8.741" fill="#d173c0"/><path d="M30.74 45.78H8.95V8.74H30.74V45.78" fill="#a13aa3"/><path d="M28.484 44.015H11.207v-33.51h17.277v33.51" fill="#be5bb4"/><path d="M10.115 9.341l5.423 1.164-5.423 1.165-1.164 5.422-1.164-5.422-5.423-1.165 5.423-1.164L8.951 3.92l1.164 5.422M31.315 45.204l2.678.575-2.678.576-.575 2.678-.575-2.678-2.679-.576 2.679-.575.574-2.678.576 2.678" fill="#fff"/></svg>