<svg xmlns="http://www.w3.org/2000/svg" width="200.544" height="190.729" viewBox="0 0 53.061 50.464"><path d="M21.494 40.734l-8.15-5.921-3.113-9.581 3.112-9.581 8.15-5.921h10.074l8.15 5.921 3.113 9.58-3.113 9.582-8.15 5.92H21.494" fill="#f4721f"/><path d="M21.848 39.644L14.27 34.14l-2.894-8.907 2.894-8.908 7.578-5.505h9.365l7.577 5.505 2.895 8.908-2.895 8.907-7.577 5.505h-9.365" fill="#d3611c"/><path d="M22.22 38.498l-6.974-5.067-2.664-8.2 2.664-8.198 6.974-5.066h8.62l6.975 5.066 2.663 8.199-2.663 8.199-6.974 5.067h-8.62" fill="#f6872f"/><path d="M18.332 50.464l3.162-9.73h10.073l3.161 9.73H18.332" fill="#d3611c"/><path d="M21.494 40.734l-8.15-5.921-7.893 6.292 12.881 9.359 3.162-9.73" fill="#f4721f"/><path d="M5.45 41.105l7.893-6.292-3.112-9.581H0l5.45 15.873" fill="#f6872f"/><path d="M31.567 40.734l8.15-5.921 8.277 6.013-13.265 9.638-3.162-9.73" fill="#f4721f"/><path d="M39.717 34.813l3.113-9.581h10.23l-5.066 15.594-8.277-6.013" fill="#f6872f"/><path d="M42.83 25.232l-3.113-9.581 8.277-6.013 5.067 15.594H42.83" fill="#f89d4e"/><path d="M39.717 15.651l-8.15-5.921L34.728 0l13.266 9.638-8.277 6.013" fill="#f9ad68"/><path d="M21.494 9.73L18.332 0H34.73l-3.162 9.73H21.494" fill="#fbc997"/><path d="M10.23 25.232l3.113-9.581-8.276-6.013L0 25.232h10.23" fill="#f89d4e"/><path d="M13.343 15.651l8.15-5.921L18.334 0 5.066 9.638l8.276 6.013" fill="#f9ad68"/><path d="M15.387 15.153l5.423 1.164-5.423 1.165-1.164 5.422-1.164-5.422-5.423-1.165 5.423-1.164 1.163-5.423 1.165 5.423M39.822 33.813l2.679.575-2.679.575-.575 2.678-.575-2.678-2.678-.575 2.678-.575.575-2.679.575 2.679" fill="#fff"/></svg>