<svg xmlns="http://www.w3.org/2000/svg" width="184.547" height="244.883" viewBox="0 0 48.828 64.792"><path d="M24.462 64.792l-6.124-16.224-11.153-3.735z" fill="#7dcd4b"/><path d="M24.414 64.792l6.123-16.224 11.154-3.735z" fill="#4ca638"/><path d="M18.338 48.568h12.2l-6.124 16.224z" fill="#5ec233"/><path d="M0 23.864l18.338 24.704-11.153-3.735z" fill="#8bd14c"/><path d="M30.537 48.568l11.154-3.735 7.137-21.065z" fill="#5ec233"/><path d="M18.338 48.568l6.124-21.065 6.075 21.065z" fill="#8bd14c"/><path d="M24.462 27.503l24.366-3.735-18.29 24.8zM24.462 27.503l-6.124 21.065L0 23.864z" fill="#7dcd4b"/><path d="M24.462 27.503l14.33-20.916 10.036 17.181zM24.462 27.503L9.979 6.587 0 23.864z" fill="#8bd14c"/><path d="M9.98 6.587h28.812l-14.33 20.916z" fill="#a2d958"/><path d="M11.818 5.423l5.423 1.164-5.423 1.165-1.164 5.422L9.49 7.752 4.067 6.587 9.49 5.423 10.653 0l1.165 5.423M31.112 47.993l2.679.575-2.679.576-.575 2.678-.575-2.678-2.678-.576 2.678-.575.575-2.678.575 2.678" fill="#fff"/></svg>