<svg xmlns="http://www.w3.org/2000/svg" width="151.796" height="235.944" viewBox="0 0 40.163 62.427"><path d="M31.474 40.48l-11.39 9.268L8.697 40.48V21.946l11.389-9.267 11.389 9.267v18.535" fill="#b52128"/><path d="M30.702 40.019l-10.617 8.805L9.468 40.02v-17.61l10.617-8.806 10.617 8.805v17.61" fill="#78151d"/><path d="M29.785 39.495l-9.7 8.282-9.7-8.282V22.932l9.7-8.282 9.7 8.282v16.563" fill="#e3362c"/><path d="M20.085 62.427v-12.68l20.078-2.927z" fill="#78151d"/><path d="M20.085 49.748l11.389-9.267 8.689 6.339z" fill="#b52128"/><path d="M40.163 46.82l-8.69-6.34 8.69-24.873z" fill="#78151d"/><path d="M31.474 40.48V21.947l8.689-6.34z" fill="#b52128"/><path d="M31.474 21.946L20.084 0v12.68z" fill="#f1443d"/><path d="M40.163 15.607L20.085 0l11.389 21.946z" fill="#e3362c"/><path d="M20.078 62.427v-12.68L0 46.82z" fill="#b52128"/><path d="M20.078 49.748L8.688 40.48 0 46.82z" fill="#e3362c"/><path d="M0 46.82l8.689-6.34L0 15.608z" fill="#b52128"/><path d="M8.689 40.48V21.947L0 15.606zM8.689 21.946L20.079 0v12.68z" fill="#e3362c"/><path d="M0 15.607L20.078 0 8.688 21.946z" fill="#f1443d"/><path d="M9.86 20.782l5.423 1.165L9.86 23.11l-1.164 5.422-1.165-5.422-5.422-1.165 5.422-1.164 1.164-5.423 1.165 5.423M30.699 39.782l2.678.576-2.678.574-.575 2.679-.575-2.679-2.679-.574 2.679-.576.574-2.678.576 2.678" fill="#fff"/></svg>