<svg xmlns="http://www.w3.org/2000/svg" width="170.499" height="170.499" viewBox="0 0 45.111 45.111"><path d="M16.856 36.316l-8.06-8.06v-11.4l8.06-8.06h11.4l8.06 8.06v11.4l-8.06 8.06h-11.4" fill="#f3649b"/><path d="M18.043 33.45l-6.382-6.382v-9.025l6.382-6.382h9.025l6.382 6.382v9.025l-6.382 6.382h-9.025" fill="#f24c88"/><path d="M13.213 45.111l3.643-8.795h11.4l3.642 8.795H13.213" fill="#e61b4d"/><path d="M16.856 36.316l-8.06-8.06L0 31.898 13.213 45.11l3.643-8.795" fill="#ee2259"/><path d="M31.898 45.111l-3.643-8.795 8.06-8.06 8.796 3.643L31.898 45.11" fill="#c9183d"/><path d="M36.316 28.255v-11.4l8.795-3.642v18.686l-8.795-3.644" fill="#e61b4d"/><path d="M8.796 28.255v-11.4L0 13.214v18.686l8.796-3.644" fill="#f03775"/><path d="M36.316 16.856l-8.06-8.06L31.897 0l13.213 13.213-8.795 3.643" fill="#ee2259"/><path d="M16.856 8.795L13.213 0h18.685l-3.643 8.795H16.856" fill="#f03775"/><path d="M8.796 16.856l8.06-8.06L13.213 0 0 13.213l8.796 3.643" fill="#f14785"/><path d="M17.64 8.286l5.829 1.252-5.83 1.251-1.25 5.829-1.253-5.829-5.828-1.252 5.828-1.251 1.252-5.829 1.251 5.829" fill="#fff"/></svg>