<svg xmlns="http://www.w3.org/2000/svg" width="196.808" height="196.808" viewBox="0 0 52.072 52.072"><path d="M26.036 12.007l-14.03 14.03H0L26.036 0v12.007" fill="#d173c0"/><path d="M52.072 26.036L26.036 52.072V40.065l14.03-14.029h12.006" fill="#aa44a8"/><path d="M26.036 40.065v12.007L0 26.036h12.007l14.03 14.03M52.072 26.036H40.065l-14.029-14.03V0l26.036 26.036" fill="#be5bb4"/><path d="M40.065 26.036l-14.029 14.03-14.03-14.03 14.03-14.03 14.03 14.03" fill="#9c329e"/><path d="M37.613 26.036L26.036 37.612 14.46 26.036 26.036 14.46l11.577 11.576" fill="#be5bb4"/><path d="M26.72 11.586l3.214.69-3.215.69-.69 3.215-.69-3.215-3.214-.69 3.214-.69.69-3.214.69 3.214M26.464 37.178l2.025.435-2.025.434-.434 2.025-.435-2.025-2.025-.435 2.025-.434.435-2.024.434 2.024" fill="#fff"/></svg>