<svg xmlns="http://www.w3.org/2000/svg" width="213.704" height="198.495" viewBox="0 0 56.543 52.518"><path d="M37.615 29.202L28.27 46.559l-9.344-17.357z" fill="#ee2259"/><path d="M37.615 29.202l18.928 23.316L28.27 46.56z" fill="#e61b4d"/><path d="M18.927 29.202l9.344 17.357L0 52.52z" fill="#e61b4d"/><path d="M18.927 29.202L28.271 0l9.344 29.202z" fill="#f03775"/><path d="M28.27 46.56l28.273 5.958H0z" fill="#c9183d"/><path d="M56.543 52.518L28.27 0l9.344 29.202z" fill="#ef2d69"/><path d="M18.927 29.202L28.271 0 0 52.518z" fill="#ef2d69"/><path d="M19.391 28.038l5.423 1.164-5.423 1.164-1.164 5.423-1.163-5.423-5.423-1.164 5.423-1.164 1.163-5.423 1.164 5.423" fill="#fff"/></svg>