<svg xmlns="http://www.w3.org/2000/svg" width="199.675" height="209.876" viewBox="0 0 52.831 55.53"><path d="M15.827 48.281h21.306l5.857-14.897-5.566-9.715L26.43 13.47 15.448 23.706l-5.525 9.738 5.904 14.837" fill="#f4721f"/><path d="M17.244 46.85H35.71l5.076-12.91-4.824-8.421-9.528-8.838-9.518 8.87-4.79 8.44 5.118 12.86" fill="#f89d4e"/><path d="M37.133 48.281l6.355 7.249 9.343-23.765-9.841 1.62-5.857 14.896" fill="#f4721f"/><path d="M42.99 33.384l-5.566-9.715 6.528-7.402 8.879 15.498-9.841 1.62" fill="#f6872f"/><path d="M37.424 23.669l6.528-7.402L26.415 0l.015 13.471L37.424 23.67" fill="#f89d4e"/><path d="M15.827 48.281L9.5 55.53 0 31.765l9.923 1.679 5.904 14.837" fill="#f6872f"/><path d="M9.923 33.444l5.525-9.738-6.57-7.439L0 31.765l9.923 1.679" fill="#f89d4e"/><path d="M15.448 23.706l-6.57-7.439L26.416 0l.015 13.471L15.45 23.706" fill="#f9ad68"/><path d="M9.5 55.53l6.327-7.249h21.306l6.355 7.249H9.5" fill="#d3611c"/><path d="M17.39 24.023l5.424 1.165-5.423 1.165-1.164 5.422-1.164-5.422-5.423-1.165 5.423-1.165 1.163-5.422 1.165 5.422M37.049 47.048l2.678.575-2.678.575-.575 2.678-.575-2.678-2.679-.575 2.679-.575.574-2.678.576 2.678" fill="#fff"/></svg>