<svg xmlns="http://www.w3.org/2000/svg" width="197.432" height="187.768" viewBox="0 0 52.237 49.68"><path d="M41.536 18.312L26.12 49.68 10.7 18.312z" fill="#a6e2f9"/><path d="M10.701 18.312L0 15.005 26.119 49.68z" fill="#caeefb"/><path d="M41.536 18.312l10.701-3.307L26.12 49.68z" fill="#7cd1f4"/><path d="M35.58 0H16.658L10.7 18.312h30.835L35.58 0" fill="#caeefb"/><path d="M41.536 18.312l10.701-3.307L42.261 0h-6.682l5.957 18.312M10.701 18.312L16.66 0H9.977L0 15.005l10.701 3.307" fill="#a6e2f9"/><path d="M12.372 17.148l5.422 1.164-5.422 1.165-1.165 5.422-1.164-5.422-5.423-1.165 5.423-1.164 1.164-5.423 1.165 5.423" fill="#fff"/></svg>