<svg width="86" height="64" fill="none" xmlns="http://www.w3.org/2000/svg"><path d="M14.347 4.997l15.515 15.46-20.5-.111 13.98 5.71-10.918 4.374 8.487 1.604L10.599 44.67l12.97-6.834-2.395 11.85 9.507-9.157 5.554 12.12 6.265-9.235 4.081 10.128 4.67-10.128 12.52 5.793-4.036-7.494 16.237 7.973-10.042-12.78L85.486 31.7 72.98 29.717 86 23.023H68.11l6.366-9.963-10.705 4.488 5.364-12.551-15.596 8.656-6.958-11.512-7.022 10.156-25.212-7.3" fill="#F25B21"/><path d="M27.625 19.99l-9.753-9.817 13.78 4.55.854-4.55 7.122 9.62-.07-7.496 3.885 4.259L46.83 1.54l2.43 17.39L63.541 6.788l-5.649 12.888 16.913-3.79-12.925 9.19 19.328 3.398-17.299 2.76 20.41 4.543-24.638.455 13.414 12.276-18.327-8.54 4.63 8.653-7.55-3.62 5.438 19-10.66-15.07-5.324 13.42-3.38-18.986-6.242 12.144.753-16.66-12.741 8.381 6.935-12.36-19.801 7.228 18.522-11.845-12.564-2.254 8.825-4.44-12.758-5.034 18.773 1.465" fill="#F6811E"/><path d="M35.282 27.842l-6.932-9.444 14.217 7.266 3.097-11.532 3.96 12.29 11.296-10.36-8.065 13.283 14.09-1.161-9.58 3.676 6.973 3.999-13.246-2.127 8.59 6.01-9.65-1.275.099 11.166-9.689-11.105-5.254 8.136.476-8.686-8.948 4.63 6.858-7.757-15.292-1.188 12.792-3.205-7.328-6.542 11.536 3.926" fill="#F9D917"/><path d="M32.453 42.451l7.208-4.595 1.673 6.63 1.763-6.62 4.005 5.295-.071-7.726 7.738 3.373-4.936-5.574 6.984-2.047-7.344-1.378 7.277-5.865-8.837 2.794 2.433-8.788-4.993 6.232-6.006-7.097 1.134 8.284-8.83-10.645 5.965 12.954-8.598-2.106 8.573 5.892-9.183 2.426 8.116 1.418-4.071 7.143z" fill="#F9EC9A"/><path d="M37.255 1.784l3.418 10.71V0l-3.419 1.784zM19.662 6.329l2.139-2.634 5.824 7.937-7.963-5.303zM18.852 57.906l2.273 1.065 9.186-15.104-11.46 14.039zM53.08 46.172l7.09 13.756 3.036-2.353L53.08 46.172zM60.255 36.84l16.827 5.168.045-3.458-16.872-1.71zM75.847 8.763l3.232 3.076-16.475 9.696L75.847 8.763zM0 34.606l19.723-3.671L.295 32.77 0 34.606z" fill="#F9D917"/></svg>