<svg width="20" height="20" fill="none" xmlns="http://www.w3.org/2000/svg"><path d="M18.076 8.222a.416.416 0 00-.454.09l-2.572 2.572a1.244 1.244 0 01-.638.341l-2.084.417a1.249 1.249 0 01-1.47-1.47l.367-1.839H4.583a.416.416 0 110-.833h6.995c.014-.016.023-.036.038-.052l1.615-1.615H4.583a.416.416 0 110-.833h9.167c.089 0 .166.034.234.08l2.704-2.703c.228-.228.504-.407.82-.534a.416.416 0 00.075-.734 1.663 1.663 0 00-.916-.276h-15C.747.833 0 1.581 0 2.5v16.25a.417.417 0 00.711.294L4.756 15h11.91c.92 0 1.667-.748 1.667-1.667V8.607a.417.417 0 00-.257-.385zm-8.493 2.611h-5a.416.416 0 110-.833h5a.416.416 0 110 .833z" fill="#fff"/><path d="M18.405 2.5c-.42 0-.832.17-1.128.467l-5.072 5.07a.415.415 0 00-.114.214l-.416 2.084a.416.416 0 00.49.49l2.082-.416a.414.414 0 00.213-.114l5.073-5.072A1.597 1.597 0 0018.405 2.5zm-.66 3.333l-1.079-1.077.59-.59 1.077 1.078-.589.59z" fill="#fff"/></svg>