<svg xmlns="http://www.w3.org/2000/svg" width="216.589" height="73.473" viewBox="0 0 57.306 19.44"><g fill-rule="evenodd"><path d="M28.653 0c15.814 0 28.653 6.827 28.653 11.03 0 4.204-12.84 7.617-28.653 7.617C12.839 18.647 0 15.234 0 11.031 0 6.827 12.839 0 28.653 0" fill="#ac1f22"/><path d="M28.653 4.344c15.814 0 28.653 2.483 28.653 6.687 0 4.203-12.84 7.616-28.653 7.616C12.839 18.647 0 15.234 0 11.031c0-4.204 12.839-6.687 28.653-6.687" fill="#581515"/><path d="M28.653 8.441c-2.328 0-4.219-1.005-4.219-1.624 0-.619 1.89-1.121 4.219-1.121 2.328 0 4.218.502 4.218 1.121s-1.89 1.624-4.218 1.624M17.915 9.022c-2.327.09-4.254-.843-4.278-1.46-.024-.62 1.846-1.194 4.173-1.283 2.326-.09 4.234.34 4.258.959.024.618-1.827 1.695-4.153 1.784M39.04 8.86c2.326.09 4.253-.842 4.277-1.46.024-.62-1.846-1.194-4.173-1.283-2.326-.09-4.234.34-4.258.959-.024.618 1.827 1.695 4.153 1.784M7.637 10.729c-2.308.307-4.315-.44-4.396-1.054-.082-.613 1.726-1.36 4.034-1.668 2.308-.307 4.248-.058 4.33.556.081.613-1.66 1.86-3.968 2.166M49.317 10.567c2.308.307 4.314-.44 4.396-1.054.081-.613-1.726-1.36-4.034-1.668-2.308-.306-4.248-.058-4.33.556-.08.614 1.66 1.86 3.968 2.166M7.933 15.727c-1.87-.4-3.216-1.533-3.11-2.03.107-.498 1.712-.576 3.583-.176 1.87.401 3.302 1.13 3.195 1.627-.106.497-1.797.98-3.668.579M49.02 15.565c1.871-.4 3.217-1.533 3.11-2.03-.106-.498-1.711-.576-3.581-.176-1.87.401-3.303 1.13-3.197 1.627.107.497 1.799.98 3.669.579M16.95 17.013c-1.903-.195-3.364-1.175-3.312-1.681.052-.506 1.639-.758 3.542-.563 1.903.195 3.405.765 3.353 1.27-.051.506-1.68 1.17-3.583.974M40.004 16.851c1.903-.195 3.364-1.175 3.312-1.681-.052-.506-1.64-.758-3.542-.563-1.903.196-3.405.765-3.354 1.27.052.506 1.681 1.17 3.584.974" fill="#c7d32d"/><path d="M28.653 18.647c-6.931 0-12.559-2.992-12.559-4.834 0-1.843 5.628-3.339 12.559-3.339 6.931 0 12.559 1.496 12.559 3.339 0 1.842-5.628 4.834-12.559 4.834" fill="#ac1f22"/><path d="M28.653 19.44c-3.16 0-5.726-1.364-5.726-2.204 0-.84 2.566-1.523 5.726-1.523s5.725.682 5.725 1.523c0 .84-2.565 2.204-5.725 2.204" fill="#c7d32d"/></g></svg>