<svg xmlns="http://www.w3.org/2000/svg" width="173.708" height="73.323" viewBox="0 0 45.96 19.4"><g fill-rule="evenodd"><path d="M39.3 8.618C39.27 14.572 31.97 19.4 22.98 19.4c-9.007 0-16.32-4.847-16.32-10.817H39.3v.035" fill="#22437a"/><path d="M22.98 8.583H39.3v.035C39.27 14.572 31.97 19.4 22.98 19.4V8.583" fill="#152c44"/><path d="M25.226 14.94a1.325 1.325 0 110 2.652 1.325 1.325 0 010-2.651M29.371 14.551a1.326 1.326 0 110 2.652 1.326 1.326 0 010-2.652M36.963 14.755c-.368.635-1.141.876-1.433.706-.293-.17-.232-.822.135-1.457.368-.634.903-1.012 1.196-.843.292.17.47.96.102 1.594M9.165 14.755c.368.635 1.141.876 1.434.706.292-.17.231-.822-.136-1.457-.367-.634-.903-1.012-1.196-.843-.292.17-.469.96-.102 1.594M34.088 15.748c-.288.674-1.23.92-1.666.733-.436-.186-.556-.885-.268-1.56.288-.674.876-1.07 1.312-.884.436.187.91 1.036.622 1.711M12.04 15.748c.288.674 1.23.92 1.666.733.436-.186.556-.885.268-1.56-.288-.674-.875-1.07-1.312-.884-.436.187-.91 1.036-.622 1.711M21.179 14.94a1.325 1.325 0 11-.002 2.652 1.325 1.325 0 01.002-2.651M17.033 14.551a1.326 1.326 0 110 2.651 1.326 1.326 0 010-2.65" fill="#c7d32d"/><path d="M35.183 8.063C35.163 3.61 29.702 0 22.98 0c-6.735 0-12.203 3.624-12.203 8.09h24.406v-.027" fill="#3d7ab7"/><path d="M22.98 0c6.722 0 12.182 3.61 12.203 8.063v.026H22.98V0" fill="#2d56ae"/><path d="M45.96 8.273c0-1.666-1.633-2.693-3.018-3.019-6.916-1.623-32.53-1.603-39.924 0C1.628 5.556 0 6.607 0 8.273c0 1.665 1.664 2.583 3.018 3.018 7.418 2.381 33.044 2.497 39.924 0 1.337-.485 3.018-1.353 3.018-3.018" fill="#2d56ae"/><path d="M22.98 4.045c8.253-.008 16.479.392 19.962 1.21 1.385.325 3.018 1.352 3.018 3.018 0 1.665-1.68 2.533-3.018 3.018-3.468 1.259-11.7 1.854-19.962 1.829V4.045" fill="#22437a"/><path d="M.05 7.781a17.08 17.08 0 011.304-.12c8.01-.445 35.76-.45 43.252 0 .43.025.88.067 1.305.124.033.156.05.318.05.488 0 .344-.073.654-.198.933a32 32 0 01-1.156.127c-7.454.693-35.217.66-43.253 0-.376-.03-.774-.07-1.158-.12A2.303 2.303 0 010 8.273c0-.17.017-.334.05-.492" fill="#c7d32d"/></g></svg>