<svg width="20" height="20" fill="none" xmlns="http://www.w3.org/2000/svg"><g clip-path="url(#clip0)"><path d="M10.002 0C4.48 0 0 4.48 0 10.002c0 2.607.996 4.982 2.633 6.76-.383.782-1.01 1.7-1.976 2.173-.335.167-.258.666.112.726 1.09.171 2.64-.013 4.101-1.074A9.955 9.955 0 009.998 20C15.52 20 20 15.52 20 9.998 20.004 4.479 15.525 0 10.002 0zm0 5.407a4.6 4.6 0 00-4.595 4.595 1.195 1.195 0 11-2.392 0c0-3.852 3.135-6.987 6.987-6.987.662 0 1.198.537 1.198 1.198 0 .657-.536 1.194-1.198 1.194z" fill="#fff"/></g><defs><clipPath id="clip0"><path fill="#fff" d="M0 0h20v20H0z"/></clipPath></defs></svg>