<svg xmlns="http://www.w3.org/2000/svg" width="313.48" height="355.803" viewBox="0 0 82.942 94.139"><g fill-rule="evenodd"><path d="M27.99 14.545L46.962 2.214c4.74-3.081 10.563-2.876 14.906.524l16.27 12.738c4.509 3.53 6.015 9.444 3.784 14.856l-4.155 10.08c-1.313 3.186-1.365 6.347-.157 9.51l3.196 8.361c1.79 4.682.8 9.736-2.696 13.479L61.24 89.825c-2.92 3.127-6.756 4.773-10.928 4.203L13.57 89.005c-3.729-.509-6.79-2.122-8.955-5.158C2.45 80.811 1.77 77.34 2.616 73.64l1.033-4.528c.38-1.664.436-3.14.183-4.81L1.839 51.168C1.04 45.913 3.384 40.89 7.966 38.035l7.37-4.591c2.706-1.687 4.528-3.972 5.56-6.978l1.748-5.08c1.004-2.922 2.747-5.152 5.346-6.841" fill="#ebe8f6"/><path d="M26.306 13.828l18.97-11.835c4.74-2.957 10.565-2.6 14.908.914L76.453 16.07c4.509 3.648 6.015 9.6 3.785 14.955l-4.155 9.972c-1.313 3.15-1.366 6.311-.158 9.504l3.196 8.446c1.79 4.729.782 9.739-2.697 13.408L60.9 88.733c-2.905 3.065-6.738 4.438-10.929 3.917l-38.087-4.738c-3.745-.466-6.79-2.3-8.955-5.392C.765 79.427.086 75.938.931 72.26l1.034-4.501a12.29 12.29 0 00.182-4.806L.154 49.77c-.798-5.277 1.545-10.238 6.128-12.974l7.369-4.4c2.707-1.615 4.528-3.852 5.56-6.83l1.748-5.036c1.005-2.896 2.747-5.08 5.347-6.7" fill="#b1adc6"/><path d="M26.306 13.828l18.97-11.835c4.74-2.957 10.565-2.6 14.908.914L73.34 13.553 61.117 9.586c-3.472-1.127-6.885-.788-10.067 1l-8.395 4.719c-3.865 2.172-6.163 5.86-6.409 10.288l-.398 7.164a12.556 12.556 0 01-11.826 11.882l-11.117.671c-6.033.364-10.855 4.803-11.716 10.784l-.039.267-.996-6.592c-.798-5.277 1.545-10.238 6.128-12.974l7.369-4.4c2.707-1.615 4.528-3.852 5.56-6.83l1.748-5.036c1.005-2.896 2.747-5.08 5.347-6.7" fill="#c4c1d6"/><path d="M80.238 31.025l-4.155 9.972c-1.313 3.15-1.366 6.311-.158 9.504l3.196 8.446c1.79 4.729.782 9.739-2.697 13.408L60.9 88.733c-2.905 3.065-6.738 4.438-10.929 3.917l-38.087-4.738c-3.745-.466-6.79-2.3-8.955-5.392C.765 79.427.086 75.938.931 72.26l1.034-4.501 1.871 2.355c2.467 3.107 6.61 4.092 10.212 2.427l7.354-3.4a8.104 8.104 0 013.083-.77l18.55-1.052c4.134-.235 7.436-3.322 7.946-7.43L52.7 46.074c.402-3.231 2.433-5.791 5.489-6.919l22.05-8.13" fill="#8785a8"/><path d="M63.306 50.842c3.411 0 6.177 2.326 6.177 5.195s-2.766 5.194-6.177 5.194c-3.412 0-6.178-2.325-6.178-5.194 0-2.87 2.766-5.195 6.178-5.195zm-21.13 22.885c4.613 0 8.353 2.703 8.353 6.037 0 3.335-3.74 6.037-8.353 6.037-4.614 0-8.354-2.702-8.354-6.037 0-3.334 3.74-6.037 8.354-6.037" fill="#6f6e90"/><path d="M36.7 49.017c3.45 0 6.248 2.546 6.248 5.686s-2.798 5.686-6.247 5.686c-3.451 0-6.249-2.546-6.249-5.686s2.798-5.686 6.249-5.686zm25.903-30.888c2.87 0 5.195 2.169 5.195 4.844 0 2.676-2.326 4.844-5.195 4.844-2.868 0-5.194-2.168-5.194-4.844 0-2.675 2.326-4.844 5.194-4.844zM10.656 55.756c2.482 0 4.493 1.698 4.493 3.79 0 2.095-2.011 3.791-4.493 3.791-2.481 0-4.492-1.696-4.492-3.79 0-2.093 2.01-3.79 4.492-3.79" fill="#8785a8"/><path d="M28.838 23.745c1.977 0 3.58 1.132 3.58 2.528 0 1.396-1.603 2.527-3.58 2.527s-3.58-1.131-3.58-2.527c0-1.396 1.603-2.528 3.58-2.528zM43.72 5.775c1.744 0 3.159.942 3.159 2.106 0 1.163-1.415 2.105-3.16 2.105-1.743 0-3.158-.942-3.158-2.105 0-1.164 1.415-2.106 3.159-2.106zM19.853 34.697c-1.435 0-2.598.785-2.598 1.754 0 .97 1.163 1.756 2.598 1.756 1.434 0 2.597-.787 2.597-1.756s-1.163-1.754-2.597-1.754" fill="#b1adc6"/></g><path d="M24.195 50.842c0 6.178-2.63 11.186-5.877 11.186-3.246 0-5.876-5.008-5.876-11.186 0-6.177 2.63-11.186 5.876-11.186 3.246 0 5.877 5.009 5.877 11.186" fill="#231f20"/><path d="M22.869 46.56c0 2.66-1.103 4.817-2.465 4.817-1.36 0-2.464-2.157-2.464-4.818 0-2.66 1.104-4.817 2.464-4.817 1.362 0 2.465 2.156 2.465 4.817M17.012 49.633c0 .963-.4 1.744-.891 1.744-.492 0-.891-.781-.891-1.744 0-.962.4-1.742.891-1.742.492 0 .891.78.891 1.742M19.723 53.875c0 .963-.4 1.744-.892 1.744s-.891-.78-.891-1.744c0-.963.4-1.742.891-1.742.493 0 .892.78.892 1.742" fill="#fff"/><path d="M63.306 50.842c0 6.178-2.631 11.186-5.877 11.186s-5.877-5.008-5.877-11.186c0-6.177 2.631-11.186 5.877-11.186s5.877 5.009 5.877 11.186" fill="#231f20"/><path d="M61.98 46.56c0 2.66-1.105 4.817-2.466 4.817-1.36 0-2.464-2.157-2.464-4.818 0-2.66 1.104-4.817 2.464-4.817 1.361 0 2.465 2.156 2.465 4.817M56.124 49.633c0 .963-.4 1.744-.892 1.744s-.892-.781-.892-1.744c0-.962.4-1.742.892-1.742s.892.78.892 1.742M58.834 53.875c0 .963-.4 1.744-.892 1.744-.493 0-.892-.78-.892-1.744 0-.963.399-1.742.892-1.742.492 0 .892.78.892 1.742" fill="#fff"/><path d="M20.409 62.575c0 1.195-2.207 2.164-4.929 2.164-2.723 0-4.93-.97-4.93-2.164 0-1.196 2.207-2.165 4.93-2.165 2.722 0 4.929.969 4.929 2.165M65.198 62.575c0 1.195-2.208 2.164-4.93 2.164-2.722 0-4.928-.97-4.928-2.164 0-1.196 2.206-2.165 4.929-2.165 2.721 0 4.929.969 4.929 2.165" fill="#db4582"/><path d="M15.525 37.201c.018.04.36.944 1.175 1.876.808.927 2.144 1.899 4.039 1.896a6.69 6.69 0 002.095-.36.59.59 0 10-.37-1.123c-.647.213-1.219.3-1.725.3-1.475-.002-2.468-.727-3.15-1.494a5.966 5.966 0 01-.91-1.403l-.04-.09-.008-.02-.001-.004-.195.076.195-.074v-.002l-.196.076.196-.074a.593.593 0 00-1.106.42M58.707 36.78l.184.07-.184-.071.184.072-.184-.072a5.698 5.698 0 01-.991 1.553c-.682.754-1.666 1.455-3.118 1.458a5.507 5.507 0 01-1.725-.3.592.592 0 10-.37 1.124c.752.247 1.452.36 2.095.36 1.895.001 3.231-.97 4.038-1.897.816-.932 1.16-1.835 1.176-1.876a.591.591 0 10-1.105-.42" fill="#231f20"/><path d="M46.09 70.999c-.858 0-1.869-.232-3.039-.502-1.502-.346-3.204-.738-5.018-.738-1.815 0-3.518.392-5.02.738-1.171.27-2.181.502-3.04.502-1.784 0-2.652-1.041-2.652-3.184 0-5.148 4.805-9.337 10.712-9.337 5.905 0 10.71 4.189 10.71 9.337 0 2.143-.868 3.184-2.653 3.184" fill="#fff"/><path d="M38.033 57.815c-6.273 0-11.376 4.486-11.376 10 0 3.348 2.079 3.848 3.317 3.848.933 0 1.978-.24 3.187-.52 1.468-.338 3.132-.72 4.872-.72 1.738 0 3.402.382 4.87.72 1.209.28 2.254.52 3.187.52 1.239 0 3.317-.5 3.317-3.848 0-5.514-5.103-10-11.374-10zm0 1.326c5.549 0 10.047 3.884 10.047 8.674 0 1.943-.74 2.52-1.99 2.52-1.832 0-4.76-1.24-8.057-1.24-3.3 0-6.227 1.24-8.06 1.24-1.25 0-1.99-.577-1.99-2.52 0-4.79 4.499-8.674 10.05-8.674" fill="#231f20"/><path d="M48.293 68.621c.036-.166-.855-.961-.982-1.086a7.419 7.419 0 00-1.48-1.143 9.68 9.68 0 00-1.241-.6c-.266-.109-.588-.225-.825-.35 1.603-.136 3.294.188 4.716.946.265.141-.188 2.232-.188 2.233M27.858 68.621c-.035-.166.856-.961.983-1.086a7.435 7.435 0 011.48-1.143 9.728 9.728 0 011.24-.6c.268-.109.589-.225.825-.35-1.603-.136-3.293.188-4.716.946-.264.141.188 2.232.188 2.233M41.824 64.86s-.064.018-.175.039a6.601 6.601 0 01-.454.069c-.187.02-.404.038-.634.047-.23.004-.474.015-.718.007-.123-.007-.243-.003-.363-.01a4.521 4.521 0 01-.352-.021 6.99 6.99 0 01-.626-.052c-.092-.01-.176-.016-.252-.023-.076-.006-.143-.017-.198-.025a1.953 1.953 0 01-.178-.032s.057-.033.16-.08c.05-.022.113-.052.187-.08.074-.027.158-.063.251-.088.185-.046.405-.093.64-.124.237-.022.49-.039.74-.034a5.98 5.98 0 011.368.187c.183.05.335.104.44.146.105.041.164.073.164.073" fill="#231f20"/></svg>