<svg width="20" height="20" fill="none" xmlns="http://www.w3.org/2000/svg"><path d="M8.924 18.826c-.87 0-1.644-.424-2.125-1.076h-.614V20h7.423v-1.174H8.924zM8.924 17.849h5.656c.764 0 1.386-.622 1.386-1.386v-1.94H8.924c-.917 0-1.663.745-1.663 1.663 0 .916.746 1.663 1.663 1.663z" fill="#fff"/><path d="M12.254 5.414h-1.281a.484.484 0 00-.485.485V9.71c0 .267-.206.5-.473.508a.488.488 0 01-.503-.488V5.899a.484.484 0 00-.485-.485H7.746a.484.484 0 00-.485.485V9.73a.488.488 0 01-.503.488.502.502 0 01-.474-.508V1.158C6.284.553 5.82.03 5.216 0a1.126 1.126 0 00-1.182 1.124v13.778a1.87 1.87 0 001.87 1.87h.447a2.639 2.639 0 012.573-3.227h7.042V3.309c0-.605-.464-1.126-1.068-1.156a1.126 1.126 0 00-1.182 1.124V9.71c0 .267-.206.5-.474.508a.488.488 0 01-.503-.488V5.899a.485.485 0 00-.485-.485z" fill="#fff"/></svg>