<svg width="20" height="20" fill="none" xmlns="http://www.w3.org/2000/svg"><g clip-path="url(#clip0)"><path d="M10.754.028l.134.012-.134-.012zM10.252.003l.095.003c-.032 0-.064-.002-.095-.003zM10.505.012l.12.007-.12-.007zM.005 10.332l-.003-.084.003.084zM.06 11.095l-.011-.109.011.109zM12.648.355a9.993 9.993 0 014.226 2.387 10.082 10.082 0 00-1.208-.075c-.463 0-.918.032-1.364.093l.054.075c.38.562.334 1.256-.102 1.552-.437.296-1.099.08-1.479-.481a1.459 1.459 0 01-.255-.733c-.758.25-1.474.59-2.14 1.004a1.333 1.333 0 01-2.054 1.698 9.964 9.964 0 00-2.66 6.792 9.969 9.969 0 003.125 7.258 10.006 10.006 0 01-7.536-5.071A9.997 9.997 0 009.999 20c5.523 0 10-4.477 10-10 0-4.606-3.114-8.484-7.351-9.645zM7.763 7.764a.349.349 0 01.473 0A.35.35 0 018.333 8a.351.351 0 01-.097.237.351.351 0 01-.237.097.35.35 0 01-.236-.097A.35.35 0 017.666 8c0-.09.036-.173.097-.236zm-.194 8.473a.351.351 0 01-.236.097.35.35 0 01-.237-.097.35.35 0 01-.097-.237.35.35 0 01.097-.236.349.349 0 01.473 0 .35.35 0 01.097.236.351.351 0 01-.097.237zm.097-3.737a1.833 1.833 0 113.667 0 1.833 1.833 0 01-3.667 0zm3.511 5.788c-.819.22-1.618-.11-1.785-.734-.168-.625.36-1.31 1.18-1.528.819-.22 1.618.109 1.785.734.168.625-.36 1.309-1.18 1.528zm2.392-6.051a.352.352 0 01-.236.097.351.351 0 01-.237-.097.35.35 0 01-.097-.237.35.35 0 01.097-.236.349.349 0 01.473 0 .35.35 0 01.097.236.351.351 0 01-.097.237zM13 9a1 1 0 110-2 1 1 0 010 2zm2.767-2.903c.116-.12.343-.123.47 0a.35.35 0 01.097.237.351.351 0 01-.097.236.351.351 0 01-.237.097.344.344 0 01-.236-.097.332.332 0 01.003-.473zm.227 8.594c-.375.375-.906.45-1.187.17-.281-.282-.205-.813.17-1.188.374-.375.906-.45 1.187-.17.28.281.205.813-.17 1.188zm.185-3.54c-.513-.084-.837-.706-.724-1.39.112-.683.62-1.169 1.132-1.085.513.085.837.708.724 1.391-.112.684-.62 1.17-1.132 1.085zM.018 10.595l-.006-.099.006.1zM12.422.296zM11.96.192zM11.001.05l.146.016-.146-.016zM.038 10.848l-.009-.106.009.106zM12.192.242zM11.245.077c.053.006.105.014.158.021-.053-.007-.105-.015-.158-.021zM11.487.11zM11.726.149zM.167 11.82zM.09 11.34zM.589 13.385zM.745 13.791zM.834 14.004zM.66 13.58zM.214 12.059a10.724 10.724 0 01-.024-.116l.024.116zM.323 12.526l-.03-.12.03.12zM.266 12.293l-.027-.117.027.117zM.125 11.581zM.384 12.756l-.035-.127.035.127zM1.03 14.426zM1.247 14.838zM1.138 14.634zM.93 14.216z" fill="#FFEDB9"/><path d="M8.792 19.925a9.969 9.969 0 01-3.125-7.258 9.964 9.964 0 012.66-6.792 1.333 1.333 0 002.054-1.698 9.955 9.955 0 012.14-1.005c.012.242.096.5.255.733.38.562 1.042.777 1.479.482.436-.296.482-.99.102-1.552a1.631 1.631 0 00-.055-.075c.447-.061.902-.093 1.365-.093.409 0 .812.027 1.208.075A9.993 9.993 0 0012.423.296L12.396.29a10.008 10.008 0 00-.203-.048l-.04-.009a10.098 10.098 0 00-.193-.04l-.055-.011a9.989 9.989 0 00-.18-.033l-.07-.012a9.795 9.795 0 00-.169-.027l-.084-.012-.157-.021-.098-.011L11 .05l-.113-.01-.133-.012-.13-.008-.12-.007c-.051-.003-.103-.004-.155-.006l-.096-.004A10.037 10.037 0 0010 0C4.477 0 0 4.477 0 10l.003.249c0 .028.002.056.003.083l.006.164.006.1.01.146.008.105.012.14.012.108a10.008 10.008 0 00.153.963l.025.118.027.117.027.113.03.12.028.104.035.127.024.08c.055.185.114.367.179.547l.01.03c.02.056.042.11.063.166l.02.052.063.159.023.056.068.157.023.053.072.159.023.048a10.297 10.297 0 00.184.37l.016.03c.03.058.062.117.094.175l.009.014a10.005 10.005 0 007.536 5.072zm4.086-17.571c.416-.282 1.034-.096 1.42.408a9.934 9.934 0 00-1.774.411c-.018-.338.1-.647.354-.82zM8.43 1.43a.349.349 0 01.473 0A.35.35 0 019 1.667a.351.351 0 01-.097.236.351.351 0 01-.236.097.35.35 0 01-.237-.097.337.337 0 010-.473zm-.428 3.501a1.333 1.333 0 011.331-1.264c.426 0 .8.203 1.045.514a10.046 10.046 0 00-2.046 1.691 1.322 1.322 0 01-.33-.94zm-3.66-.756c.392-.392.987-.431 1.33-.089.343.343.303.939-.089 1.33-.392.393-.987.432-1.33.09-.343-.344-.303-.94.089-1.331zM5 11.995a.351.351 0 01-.097.238.351.351 0 01-.236.096.35.35 0 01-.237-.097.35.35 0 01-.097-.236.35.35 0 01.097-.237.349.349 0 01.473 0 .35.35 0 01.097.237zM2 9.334C2 8.597 2.522 8 3.167 8c.644 0 1.166.597 1.166 1.333 0 .737-.522 1.334-1.166 1.334C2.522 10.667 2 10.07 2 9.333zm1.212 4.212c.39-.39 1.13-.285 1.65.236.52.52.626 1.26.236 1.65-.391.39-1.13.285-1.65-.236-.521-.52-.627-1.26-.236-1.65z" fill="#FFD586"/><path d="M3.166 10.667c.645 0 1.167-.597 1.167-1.334C4.333 8.597 3.81 8 3.166 8 2.522 8 2 8.597 2 9.333c0 .737.522 1.334 1.166 1.334zM3.447 15.195c.52.52 1.26.626 1.65.236.39-.39.285-1.13-.236-1.65-.52-.521-1.26-.627-1.65-.236-.39.39-.285 1.13.236 1.65z" fill="#E7B27E"/><path d="M16.163 13.503c-.28-.281-.813-.205-1.187.17-.375.374-.451.906-.17 1.187s.813.205 1.188-.17c.374-.374.45-.906.17-1.187zM8 8.333a.352.352 0 00.236-.096A.351.351 0 008.333 8a.35.35 0 00-.097-.237.349.349 0 00-.473 0A.343.343 0 007.666 8a.35.35 0 00.097.237.35.35 0 00.236.096z" fill="#FFD586"/><path d="M4.43 11.76a.35.35 0 00-.096.236.35.35 0 00.096.237.35.35 0 00.237.096.352.352 0 00.237-.096.35.35 0 00.096-.237.351.351 0 00-.096-.237.349.349 0 00-.474 0z" fill="#E7B27E"/><path d="M13.097 11.763a.35.35 0 00-.096.237.35.35 0 00.096.237.35.35 0 00.237.097.352.352 0 00.236-.097.351.351 0 00.097-.237.351.351 0 00-.097-.237.349.349 0 00-.473 0zM16 6.667a.352.352 0 00.236-.097.351.351 0 00.097-.237.351.351 0 00-.096-.236c-.127-.124-.354-.12-.47 0a.333.333 0 00.233.57z" fill="#FFD586"/><path d="M8.666 2a.352.352 0 00.237-.096.351.351 0 00.096-.237.351.351 0 00-.096-.237.349.349 0 00-.474 0 .337.337 0 000 .474.35.35 0 00.237.096z" fill="#E7B27E"/><path d="M7.096 15.763A.35.35 0 007 16a.35.35 0 00.096.237.35.35 0 00.237.097.351.351 0 00.237-.097.351.351 0 00.096-.237.351.351 0 00-.096-.237.35.35 0 00-.474 0zM9.5 14.333a1.833 1.833 0 100-3.666 1.833 1.833 0 000 3.666zM13 9a1 1 0 100-2 1 1 0 000 2zM12.358 16.758c-.168-.624-.967-.953-1.786-.734-.82.22-1.347.904-1.18 1.529.167.624.967.953 1.786.734.819-.22 1.347-.904 1.18-1.529zM17.312 10.067c.113-.684-.212-1.306-.724-1.39-.513-.085-1.02.4-1.133 1.084-.112.683.212 1.306.725 1.39.512.085 1.02-.4 1.132-1.084z" fill="#FFD586"/><path d="M8.333 5.872c.602-.65 1.29-1.22 2.046-1.691a1.326 1.326 0 00-1.114-.512A1.333 1.333 0 008 5c0 .335.128.638.333.872zM4.253 5.505c.343.343.939.303 1.33-.089.392-.391.432-.987.09-1.33-.344-.343-.94-.303-1.331.089-.392.392-.432.987-.089 1.33zM12.524 3.173a9.935 9.935 0 011.774-.41c-.386-.505-1.004-.691-1.42-.41-.255.173-.372.482-.354.82z" fill="#E7B27E"/></g><defs><clipPath id="clip0"><path fill="#fff" d="M0 0h20v20H0z"/></clipPath></defs></svg>