<svg width="372" height="440" fill="none" xmlns="http://www.w3.org/2000/svg"><path d="M102.917 250.922c8.421-8.814 20.265-14.307 33.389-14.307 5.316 0 10.42.893 15.163 2.573h.013-.015c-16.254 3.654-32.429 7.587-48.552 11.734" fill="url(#paint0_linear)"/><path d="M100.625 253.508a47.253 47.253 0 012.278-2.586h.014c16.121-4.147 32.296-8.08 48.55-11.734h.016c6.128 2.12 11.658 5.52 16.308 9.867h-.001c-20.492 1.813-40.971 3.36-61.476 4.307-1.879.04-3.771.093-5.689.146z" fill="url(#paint1_linear)"/><path d="M245.877 86.734c4.29 0 4.297-6.667 0-6.667-4.29 0-4.298 6.667 0 6.667zM140.47 149.799c4.289 0 4.296-6.667 0-6.667-4.289 0-4.297 6.667 0 6.667zM235.203 294.043c4.29 0 4.298-6.667 0-6.667-4.29 0-4.297 6.667 0 6.667zM147.809 70.632c4.288 0 4.296-6.666 0-6.666-4.291 0-4.298 6.666 0 6.666zM163.153 267.878c4.289 0 4.296-6.667 0-6.667-4.291 0-4.298 6.667 0 6.667zM243.209 210.179c4.289 0 4.297-6.667 0-6.667-4.291 0-4.298 6.667 0 6.667zM119.789 30.054c2.144 0 2.148-3.334 0-3.334-2.146 0-2.15 3.334 0 3.334zM82.429 90.435c2.144 0 2.148-3.333 0-3.333-2.146 0-2.148 3.333 0 3.333zM165.821 105.195c2.145 0 2.148-3.333 0-3.333-2.144 0-2.148 3.333 0 3.333zM219.191 52.194c2.146 0 2.15-3.334 0-3.334-2.144 0-2.148 3.334 0 3.334zM181.831 166.918c2.146 0 2.15-3.334 0-3.334-2.144 0-2.148 3.334 0 3.334zM173.159 205.83c2.144 0 2.148-3.334 0-3.334-2.145 0-2.148 3.334 0 3.334zM177.829 253.463c2.145 0 2.149-3.333 0-3.333-2.144 0-2.148 3.333 0 3.333zM131.797 309.819c2.145 0 2.148-3.334 0-3.334-2.144 0-2.148 3.334 0 3.334zM219.858 118.267c4.291 0 4.297-6.667 0-6.667-4.288 0-4.296 6.667 0 6.667zM149.142 22.999c4.289 0 4.297-6.667 0-6.667-4.289 0-4.296 6.667 0 6.667zM157.149 306.119c4.289 0 4.296-6.667 0-6.667-4.291 0-4.298 6.667 0 6.667zM102.442 141.078c4.291 0 4.297-6.667 0-6.667-4.29 0-4.296 6.667 0 6.667zM243.875 50.506c4.291 0 4.298-6.667 0-6.667-4.289 0-4.297 6.667 0 6.667zM159.817 221.586c4.289 0 4.296-6.667 0-6.667-4.29 0-4.298 6.667 0 6.667zM262.555 142.095c2.146 0 2.148-3.333 0-3.333-2.145 0-2.149 3.333 0 3.333zM184.501 269.566c2.145 0 2.148-3.334 0-3.334-2.146 0-2.15 3.334 0 3.334zM201.179 158.196c2.144 0 2.148-3.333 0-3.333-2.145 0-2.149 3.333 0 3.333zM162.485 149.474c2.145 0 2.148-3.334 0-3.334-2.144 0-2.148 3.334 0 3.334zM115.118 154.171c2.145 0 2.148-3.333 0-3.333-2.144 0-2.148 3.333 0 3.333zM140.47 293.718c2.144 0 2.148-3.334 0-3.334-2.145 0-2.149 3.334 0 3.334zM103.11 75.675c2.145 0 2.148-3.333 0-3.333-2.145 0-2.149 3.333 0 3.333z" fill="#E1E3E2"/><path d="M22.817 29.647h-.067.067c19.674 0 36.483-12.263 43.2-29.563-6.717 17.3-23.526 29.563-43.2 29.563zm-.078 0h-.065.065zm-.079 0h-.064.064zm-.074 0h-.063.063zm-.07-.001h-.066.066zm-.078 0c-.022 0-.043 0-.064-.002.022.002.042.002.064.002zm-.078-.002h-.065.065zm-.072 0l-.062-.001.062.001zm-.072-.001l-.064-.001.064.001zm-.078-.001h-.063.063zm-.077 0c-.022-.002-.044-.002-.065-.002.022 0 .043 0 .065.002zm-.07-.003h-.062.061zm-.076 0l-.062-.003c.02.002.042.002.062.003zm-.077-.003l-.062-.001.062.001zm-.076-.001l-.06-.001.06.001zm-.069-.001l-.06-.002.06.002zm-.078-.002l-.06-.002.06.002zm-.077-.002l-.06-.002.06.002zm-.076-.003l-.054-.001a.674.674 0 00.053.001zm-.068-.001c-.02-.002-.038-.002-.058-.002.019 0 .04 0 .058.002zm-.08-.003l-.056-.001.057.001zm-.076-.003l-.056-.001.056.001zm-.077-.002l-.046-.002.046.002zm-.066-.003l-.054-.001.054.001zm-.08-.003l-.051-.001.05.001zm-.079-.002c-.014-.002-.026-.002-.04-.002.014 0 .027 0 .04.002zm-.078-.004c-.011 0-.024 0-.036-.002a.333.333 0 00.036.002zm-.065-.003l-.048-.001.048.001zm-.08-.003l-.036-.001.037.001zm-.08-.004l-.025-.001a.164.164 0 00.025.001zm-.08-.004l-.023-.001.024.001zm-.082-.004l-.02-.001a.108.108 0 00.02.001zm-.057-.002l-.022-.002.022.002zm-.082-.004l-.018-.002.018.002zm-.08-.004l-.018-.002.017.002zm-.138-.008l-.014-.002.014.002zm-.083-.006h-.011.011zm-.219-.013z" fill="url(#paint2_linear)"/><path d="M164.355 82.911l-21.521-30.057 8.371-5.994 21.522 30.058-8.372 5.993z" fill="#B6BEB8"/><path d="M176.086 92.358L135.617 35.84l8.37-5.993 40.471 56.517-8.372 5.994z" fill="#888B8B"/><path d="M266.758 264.028c.159-.226.307-.453.465-.68a7.504 7.504 0 00-.253.387l-.212.293z" fill="url(#paint3_linear)"/><path d="M265.401 266.068h-.014l.054-.08-.04.08z" fill="url(#paint4_linear)"/><path d="M258.611 277.508c.08-.173.174-.36.28-.533.147-.28.306-.56.454-.84.198-.387.412-.76.624-1.147.373-.666.76-1.333 1.132-1.986l.106-.174c.159-.28.319-.56.492-.84.067-.133.147-.266.24-.4.334-.586.679-1.16 1.038-1.733l.44-.72c.158-.267.332-.533.505-.787.12-.2.24-.4.372-.586.227-.36.467-.72.693-1.08.134-.214.266-.414.4-.614h.014l.04-.08c.092-.146.198-.293.293-.44-.095.147-.201.294-.293.44l-.04.08c-.148.2-.28.4-.414.614-.226.36-.466.72-.693 1.08a9.11 9.11 0 00-.372.586c-.173.254-.347.52-.505.787l-.44.72a48.366 48.366 0 00-1.038 1.733 3.333 3.333 0 00-.24.4c-.173.28-.333.56-.492.84l-.106.174c-.372.653-.759 1.32-1.132 1.986-.212.387-.426.76-.624 1.147-.148.28-.307.56-.454.84-.106.173-.2.36-.28.533z" fill="#C82626"/><path d="M257.787 279.068c.266-.52.532-1.04.824-1.56-.24.44-.465.88-.692 1.32l-.132.24z" fill="url(#paint5_linear)"/><path d="M265.734 265.548c.179-.276.36-.548.544-.82l-.544.82z" fill="url(#paint6_linear)"/><path d="M257.425 279.784c.12-.24.241-.478.362-.716l.132-.24c-.166.318-.332.636-.494.956z" fill="url(#paint7_linear)"/><path d="M270.311 259.082l.027-.054.107-.133-.134.187zm2.316-3c.107-.16.227-.307.347-.454l.253-.32c.252-.306.492-.6.758-.906a76.93 76.93 0 00-1.358 1.68z" fill="url(#paint8_linear)"/><path d="M303.135 227.562z" fill="url(#paint9_linear)"/><path d="M244.623 317.828c.039-.253.092-.52.132-.773l.014.013c-.054.254-.107.507-.146.76z" fill="url(#paint10_linear)"/><path d="M242.903 330.52l.068-.798.031-.29c-.035.363-.068.727-.099 1.088zm.362-3.545c.066-.614.145-1.24.226-1.867.052-.413.106-.84.174-1.253-.148 1.04-.28 2.08-.4 3.12zm.438-3.386a95.17 95.17 0 01.492-3.334v-.04c.135-.8.28-1.6.428-2.387.039-.253.092-.506.146-.76-.414 2.16-.759 4.334-1.066 6.521zm2.676-13.974c.04-.254.107-.507.174-.747.092-.36.185-.707.278-1.066l-.009.078-.007.023.002.01c-.159.571-.306 1.13-.438 1.702zm.959-3.72c.107-.413.212-.813.345-1.213-.009.044-.02.086-.03.129-.075.26-.147.521-.219.783a9.949 9.949 0 00-.096.301z" fill="url(#paint11_linear)"/><path d="M248.39 302.274c.105-.344.212-.687.319-1.032l-.027.102-.155.498-.137.432zm.971-3.086c.053-.16.106-.333.158-.493l.135-.36c-.067.2-.135.4-.2.6l-.093.253z" fill="url(#paint12_linear)"/><path d="M247.806 304.272l.051-.204.04-.146c.04-.12.065-.24.106-.36.126-.43.255-.859.387-1.288l.137-.432c-.246.806-.488 1.617-.721 2.43zm.876-2.928l.027-.102c.04-.147.08-.294.133-.427.172-.547.345-1.08.519-1.627l.093-.253c.065-.2.133-.4.2-.6l.144-.421a134.519 134.519 0 00-1.116 3.43zm2.125-6.298l.111-.311.12-.347c.053-.16.107-.306.173-.453.106-.307.226-.613.346-.907.053-.16.106-.306.173-.453.037-.105.083-.217.131-.328-.362.928-.712 1.86-1.054 2.799zm1.239-3.274c.091-.244.184-.486.283-.73.226-.587.465-1.16.718-1.747l.014-.031c-.347.832-.684 1.667-1.015 2.508z" fill="#B82227"/><path d="M255.353 284.055h-.003l.009-.019h.002l-.008.019z" fill="url(#paint13_linear)"/><path d="M255.359 284.036l.047-.096a2.07 2.07 0 00-.045.096h-.002z" fill="url(#paint14_linear)"/><path d="M254.797 285.264c.18-.406.366-.813.553-1.209h.003c-.187.401-.372.805-.556 1.209zm.876-1.894l.009-.022.004-.006-.013.028z" fill="#B82227"/><path d="M247.798 304.303l.008-.031-.003.01-.005.021z" fill="url(#paint15_linear)"/><path d="M249.798 297.914c.327-.962.663-1.918 1.009-2.868-.34.946-.677 1.902-1.009 2.868z" fill="url(#paint16_linear)"/><path d="M251.861 292.247l.185-.475-.129.35c-.019.041-.038.082-.056.125z" fill="url(#paint17_linear)"/><path d="M253.061 289.264a136.692 136.692 0 011.736-4l-.112.258a180.444 180.444 0 00-1.624 3.742z" fill="url(#paint18_linear)"/><path d="M255.406 283.94c.088-.19.177-.381.267-.57l-.15.325-.117.245z" fill="url(#paint19_linear)"/><path d="M255.686 283.342l.125-.266v.015l-.061.124-.064.127z" fill="url(#paint20_linear)"/><path d="M255.363 284.055h-.01l.008-.019.012-.001-.01.02z" fill="url(#paint21_linear)"/><path d="M255.361 284.036a2.07 2.07 0 01.045-.096l.117-.245-.15.34-.012.001z" fill="url(#paint22_linear)"/><path d="M246.817 307.912l-.002-.009.007-.023-.004.028-.001.004zm.617-2.318c.072-.262.144-.523.219-.783-.06.237-.128.475-.195.711l-.024.072zm1.093-3.752l.155-.498-.04.151-.115.347z" fill="url(#paint23_linear)"/><path d="M296.653 232.295c.293-.24.585-.467.892-.693v.026c-.307.214-.599.442-.892.667z" fill="url(#paint24_linear)"/><path d="M285.393 242.042c.185-.187.372-.374.572-.56l.346-.32.226-.2c-.386.346-.758.706-1.144 1.08zm11.26-9.747c.293-.225.585-.453.892-.667v-.013.013c-.307.214-.599.442-.892.667z" fill="#B82227"/><path d="M112.519 270.728v112.87s70.667 33.778 142.666 0V265.799H110.297l2.222 4.929z" fill="#F1A1A5"/><path d="M183.731 292.5l-71.316-27.585.104 29.813s44.1 35.327 45.434 36.661c0 0 7.556 5.555 25.778 6 18.222-.445 25.778-6 25.778-6 1.333-1.334 45.572-36.775 45.572-36.775l.001-30.188-71.351 28.074z" fill="#D47A93"/><path d="M97.286 152.639s-16.333-6.167-19.833-4.167-6 3.5-4.834 10.5c1.167 7 8.5 41.167 8.5 41.167s2.167 8.833 6.5 10.333c4.334 1.5 9.667.834 9.667.834v-58.667z" fill="#F1A1A5"/><path d="M97.286 166.182c-.667 0-14.444-2-14.444-2s-5.777-2.667-4 7.333c1.777 10 6.519 24.467 6.519 24.467s1.138 3.166 2.533 1.312c1.347-1.79 5.577-4.812 8.021-3.479 2.446 1.333 1.371-27.633 1.371-27.633z" fill="#D47A93"/><path d="M265.195 152.639s16.334-6.167 19.834-4.167 6 3.5 4.833 10.5c-1.167 7-8.5 41.167-8.5 41.167s-2.167 8.833-6.5 10.333-9.667.834-9.667.834v-58.667z" fill="#F1A1A5"/><path d="M266.169 163.126c.666 0 14.445-2 14.445-2s5.777-2.667 4 7.333c-1.779 9.999-6 24.665-6 24.665s-.94 2.691-3.053 1.112c-1.795-1.34-6.202-4.116-8.646-2.782-2.444 1.333-.746-28.328-.746-28.328z" fill="#D47A93"/><path d="M97.52 50.815l-2.518 69.667v112.222s2.667 24 15.777 35.555c13.111 11.556 44.89 38.667 44.89 38.667s6.221 7.333 25.554 8.222c19.335-.889 25.556-8.222 25.556-8.222s31.779-27.111 44.89-38.667c13.11-11.555 15.777-35.555 15.777-35.555V120.482l-6.197-68-82-11.888-81.728 10.221z" fill="#F1A1A5"/><path d="M95.002 174.134v-51.718c0-2.029.719-3.988 2.039-5.53 4.013-4.694 12.5-15.906 11.818-26.115-.889-13.333.035-24 .035-24s15.059-16.623 43.948-17.956c28.888-1.333 69.851.833 74.74 3.833 4.889 3 22.165 8.79 23.499 15.456.956 4.779 1.684 20.288 2.02 28.691a18.404 18.404 0 003.406 9.964c3.823 5.36 9.752 13.927 10.13 16.012.612 3.377.809 48.377.809 48.377l12.968-21.41s12.253-38.156 9.501-52.256c-2.666-13.667-35.405-61.327-38.666-66-2.443-3.5-3.962-4.338-35.279-10.934-29.592-6.232-76.783-12.169-84.985-13.181a7.82 7.82 0 00-2.944.18c-4.682 1.217-18.06 6.792-28.515 31.668-12.89 30.667-31.556 49.476-28.89 60.072 2.667 10.595 17.7 71.544 24.366 74.847z" fill="#4C2E24"/><path d="M266.827 54.854l3.704 5.821-18.421 17.2-1.029-9.77 15.746-13.251z" fill="#603A2A"/><path d="M171.245 240.02l-.18-.01a1.334 1.334 0 01-1.143-1.5l4.229-31.344a1.333 1.333 0 112.643.356l-4.229 31.344a1.334 1.334 0 01-1.32 1.154zM191.471 240.02a1.334 1.334 0 01-1.32-1.154l-4.229-31.344a1.333 1.333 0 011.143-1.5 1.34 1.34 0 011.5 1.144l4.229 31.344c.099.729-.413 1.4-1.143 1.5l-.18.01z" fill="#EB8899"/><path d="M197.702 133.951c-2.675-.297-2.377-6.24 2.675-7.725 5.349-1.487 36.55-12.184 45.465 4.456 0 .298-41.305 4.458-48.14 3.269z" fill="#44281D"/><path d="M165.014 133.951c2.675-.297 2.377-6.24-2.673-7.725-5.35-1.487-36.551-12.184-45.466 4.456 0 .298 41.306 4.458 48.139 3.269z" fill="#4C3026"/><path d="M197.863 195.054h-7.598v-29.727c0-4.777-4.383-8.493-9.351-8.493-5.261 0-9.352 3.981-9.352 8.493v29.992h-7.597c-2.923 0-5.26 2.388-5.26 4.777 0 2.654 2.629 4.778 5.26 4.778h8.474c1.168 3.185 4.676 5.308 8.475 5.308 3.799 0 7.305-2.39 8.475-5.308h8.474c2.923 0 5.26-2.39 5.26-4.778-.292-2.654-2.922-5.042-5.26-5.042z" fill="#E58596"/><path d="M238.514 157.648c0-2.442-1.359-12.486-18.459-12.486-17.101 0-18.458 9.772-18.458 12.486 0 2.443 1.357 12.487 18.458 12.487 17.372 0 18.459-9.772 18.459-12.487z" fill="#fff"/><path d="M227.383 157.648a8.143 8.143 0 01-8.144 8.143 8.142 8.142 0 01-8.142-8.143 8.143 8.143 0 1116.286 0z" fill="#1B2016"/><path d="M228.833 151.624a4.887 4.887 0 11-9.774 0 4.887 4.887 0 019.774 0z" fill="#fff"/><path d="M238.514 155.476c0-3.528 0-12.486-11.572-15.472-23.143-6.242-25.345 11.13-25.345 16.83 10.193-9.23 26.448-10.587 36.917-1.358z" fill="#EB8899"/><path d="M161.027 157.648c0-2.442-1.357-12.486-18.458-12.486-17.102 0-18.459 9.772-18.459 12.486 0 2.443 1.357 12.487 18.459 12.487 17.372 0 18.458-9.772 18.458-12.487z" fill="#fff"/><path d="M149.898 157.648a8.144 8.144 0 11-16.287-.001 8.144 8.144 0 0116.287.001z" fill="#1B2016"/><path d="M151.346 151.624a4.887 4.887 0 01-9.772 0 4.886 4.886 0 019.772 0z" fill="#fff"/><path d="M161.027 155.476c0-3.528 0-12.486-11.57-15.472-23.143-6.242-25.347 11.13-25.347 16.83 10.193-9.23 26.448-10.587 36.917-1.358z" fill="#EB8899"/><path d="M151.074 75.563h62.408v4.768h-62.408v-4.768zM151.074 95.563h62.408v4.768h-62.408v-4.768zM138.247 85.496h91.596v4.768h-91.596v-4.768z" fill="#E58596"/><path d="M130.735 246.682a1.333 1.333 0 01-1.333-1.334v-7.813c0-1.807.604-3.593 1.7-5.031l24.907-32.63a1.333 1.333 0 012.12 1.617l-24.907 32.631a5.652 5.652 0 00-1.153 3.413v7.813c0 .738-.598 1.334-1.334 1.334zM231.735 246.682a1.332 1.332 0 01-1.333-1.334v-7.813a5.654 5.654 0 00-1.155-3.413l-24.905-32.631a1.331 1.331 0 01.251-1.868 1.33 1.33 0 011.868.251l24.906 32.63a8.347 8.347 0 011.702 5.031v7.813c0 .738-.598 1.334-1.334 1.334z" fill="#EB8899"/><path d="M219.717 242.523c-8 .221-18.667-1.112-23-2.667-3.982-1.429-12.731-1.073-14.47.202-1.74-1.275-10.488-1.631-14.469-.202-4.333 1.555-15 2.888-23 2.667-8-.223-3.667 4.444-3.667 4.444s8.334-.111 8.111.889c-.223 1 12.777 9.424 17.556 13.98 4.325 4.124 13.724 3.334 15.469 3.146 1.744.188 11.144.978 15.47-3.146 4.778-4.556 17.778-12.98 17.556-13.98-.223-1 8.11-.889 8.11-.889s4.334-4.667-3.666-4.444z" fill="#A84A78"/><path d="M211.09 243.774c-1.365-.223-29.131 0-29.131 0s-27.189-.223-28.556 0c0 0-4.222.11-.666 2.444 3.556 2.333 14.262 9.11 14.374 9.556.111.444 15.292 1.11 15.292 1.11s15.263-.666 15.375-1.11c.111-.446 10.424-7.223 13.979-9.556 3.556-2.334-.667-2.444-.667-2.444z" fill="#0F0A0C"/><path d="M193.727 254.416c-4.477 0-11.217-.194-11.284-.197-.146.003-7.025.197-11.594.197-2.33 0-3.211-.052-3.531-.084-2.908-2.854-13.636-10.417-13.847-10.56l.058-.001.088-.015c.19-.022 1.362-.081 7.797-.081 8.456 0 20.533.099 20.535.099.022 0 12.356-.099 20.981-.099 6.567 0 7.756.059 7.964.084l.131.012c-.142.093-10.932 7.699-13.848 10.563-.316.03-1.179.082-3.448.082h-.002z" fill="#fff"/><path d="M210.946 243.495c1.039-1.187-27.072-.068-28.695-.003-1.509-.065-27.66-1.184-28.7.003 0 0-3.062 3.876 28.62 3.779h.154c31.684.097 28.621-3.779 28.621-3.779z" fill="#E97C9A"/><path d="M165.35 284.204s14.017-26 30.136 0H165.35z" fill="#E57B99"/><path d="M252.581 85.567l.342 7.039 26.372-17.503-3.701-6.236-23.013 16.7zM111.277 19.318s1.638 11.608 6.638 15.718c0 0 13.618 17.182 15.531 17.258 0 0 4.987-1.67 7.575-2.004l-17.55-18.587s-7.929-13.659-6.853-17.773c0 0-4.896 4.41-5.341 5.388z" fill="#603A2A"/><path d="M119.822 11.472s2.427 12.828 7.427 16.94c0 0 14.689 21.274 16.602 21.35 0 0 6.731-1.114 9.903-.987l-20.949-23.697s-8.026-12.56-6.951-16.675c0 0-5.588 2.092-6.032 3.07zM102.755 32.284s-.173 4.142 4.827 8.254c0 0 12.171 16.753 14.085 16.83 0 0 5.418-2.912 7.531-3.542l-16.06-16.622s-6.736-8.773-5.66-12.886c0 0-4.277 6.99-4.723 7.966z" fill="#603A2A"/><path d="M371.733 393.977v46.042H.599v-46.042h.467c1.533-22.54 65.981-68.046 110.701-78.528 14.214 26.493 39.491 44.6 71.638 44.6 32.185 0 56.83-18.868 71.029-45.415 44.933 10.456 115.752 56.736 117.299 79.343z" fill="#585B4D"/><defs><linearGradient id="paint0_linear" x1="194.319" y1="-96.572" x2="194.319" y2="436.762" gradientUnits="userSpaceOnUse"><stop stop-color="#492E7C"/><stop offset=".549" stop-color="#6D2B7B"/><stop offset="1" stop-color="#124465"/></linearGradient><linearGradient id="paint1_linear" x1="194.319" y1="-96.572" x2="194.319" y2="436.762" gradientUnits="userSpaceOnUse"><stop stop-color="#462E76"/><stop offset=".549" stop-color="#662C74"/><stop offset="1" stop-color="#13415E"/></linearGradient><linearGradient id="paint2_linear" x1="194.319" y1="-96.572" x2="194.319" y2="436.762" gradientUnits="userSpaceOnUse"><stop stop-color="#30295C"/><stop offset=".549" stop-color="#3B2759"/><stop offset="1" stop-color="#121D2D"/></linearGradient><linearGradient id="paint3_linear" x1="194.32" y1="-96.57" x2="194.32" y2="436.761" gradientUnits="userSpaceOnUse"><stop stop-color="#3D2D30"/><stop offset=".549" stop-color="#4D2B2E"/><stop offset="1" stop-color="#1C2120"/></linearGradient><linearGradient id="paint4_linear" x1="194.337" y1="-96.557" x2="194.337" y2="436.755" gradientUnits="userSpaceOnUse"><stop stop-color="#3D2D30"/><stop offset=".549" stop-color="#4D2B2E"/><stop offset="1" stop-color="#1C2120"/></linearGradient><linearGradient id="paint5_linear" x1="194.32" y1="-96.57" x2="194.32" y2="436.761" gradientUnits="userSpaceOnUse"><stop stop-color="#462E30"/><stop offset=".549" stop-color="#5F2B2D"/><stop offset="1" stop-color="#202825"/></linearGradient><linearGradient id="paint6_linear" x1="194.322" y1="-96.573" x2="194.322" y2="436.762" gradientUnits="userSpaceOnUse"><stop stop-color="#3D2D30"/><stop offset=".549" stop-color="#4D2B2E"/><stop offset="1" stop-color="#1C2120"/></linearGradient><linearGradient id="paint7_linear" x1="194.32" y1="-96.568" x2="194.32" y2="436.76" gradientUnits="userSpaceOnUse"><stop stop-color="#432D30"/><stop offset=".549" stop-color="#59292D"/><stop offset="1" stop-color="#212223"/></linearGradient><linearGradient id="paint8_linear" x1="194.319" y1="-96.573" x2="194.319" y2="436.762" gradientUnits="userSpaceOnUse"><stop stop-color="#3B2C2F"/><stop offset=".549" stop-color="#4A2A2D"/><stop offset="1" stop-color="#1D1E1F"/></linearGradient><linearGradient id="paint9_linear" x1="194.321" y1="-96.584" x2="194.321" y2="436.77" gradientUnits="userSpaceOnUse"><stop stop-color="#3D2C2F"/><stop offset=".549" stop-color="#4D292D"/><stop offset="1" stop-color="#1D1E1F"/></linearGradient><linearGradient id="paint10_linear" x1="194.315" y1="-96.573" x2="194.315" y2="436.762" gradientUnits="userSpaceOnUse"><stop stop-color="#482E30"/><stop offset=".549" stop-color="#642A2C"/><stop offset="1" stop-color="#202825"/></linearGradient><linearGradient id="paint11_linear" x1="194.319" y1="-96.572" x2="194.319" y2="436.762" gradientUnits="userSpaceOnUse"><stop stop-color="#462D2F"/><stop offset=".549" stop-color="#5F292C"/><stop offset="1" stop-color="#212324"/></linearGradient><linearGradient id="paint12_linear" x1="194.319" y1="-96.572" x2="194.319" y2="436.762" gradientUnits="userSpaceOnUse"><stop stop-color="#462D2F"/><stop offset=".549" stop-color="#5F292C"/><stop offset="1" stop-color="#212324"/></linearGradient><linearGradient id="paint13_linear" x1="194.26" y1="-96.611" x2="194.26" y2="436.778" gradientUnits="userSpaceOnUse"><stop stop-color="#482E30"/><stop offset=".549" stop-color="#642A2C"/><stop offset="1" stop-color="#202825"/></linearGradient><linearGradient id="paint14_linear" x1="194.345" y1="-96.556" x2="194.345" y2="436.755" gradientUnits="userSpaceOnUse"><stop stop-color="#462E30"/><stop offset=".549" stop-color="#5F2B2D"/><stop offset="1" stop-color="#202825"/></linearGradient><linearGradient id="paint15_linear" x1="194.485" y1="-96.644" x2="194.485" y2="436.786" gradientUnits="userSpaceOnUse"><stop stop-color="#482E30"/><stop offset=".549" stop-color="#642A2C"/><stop offset="1" stop-color="#202825"/></linearGradient><linearGradient id="paint16_linear" x1="194.321" y1="-96.572" x2="194.321" y2="436.762" gradientUnits="userSpaceOnUse"><stop stop-color="#482E30"/><stop offset=".549" stop-color="#642A2C"/><stop offset="1" stop-color="#202825"/></linearGradient><linearGradient id="paint17_linear" x1="194.324" y1="-96.578" x2="194.324" y2="436.764" gradientUnits="userSpaceOnUse"><stop stop-color="#482E30"/><stop offset=".549" stop-color="#642A2C"/><stop offset="1" stop-color="#202825"/></linearGradient><linearGradient id="paint18_linear" x1="194.319" y1="-96.572" x2="194.319" y2="436.762" gradientUnits="userSpaceOnUse"><stop stop-color="#482E30"/><stop offset=".549" stop-color="#642A2C"/><stop offset="1" stop-color="#202825"/></linearGradient><linearGradient id="paint19_linear" x1="194.319" y1="-96.574" x2="194.319" y2="436.763" gradientUnits="userSpaceOnUse"><stop stop-color="#462E30"/><stop offset=".549" stop-color="#5F2B2D"/><stop offset="1" stop-color="#202825"/></linearGradient><linearGradient id="paint20_linear" x1="194.323" y1="-96.57" x2="194.323" y2="436.761" gradientUnits="userSpaceOnUse"><stop stop-color="#462E30"/><stop offset=".549" stop-color="#5F2B2D"/><stop offset="1" stop-color="#202825"/></linearGradient><linearGradient id="paint21_linear" x1="194.359" y1="-96.634" x2="194.359" y2="436.787" gradientUnits="userSpaceOnUse"><stop stop-color="#462D2F"/><stop offset=".549" stop-color="#5F292C"/><stop offset="1" stop-color="#212324"/></linearGradient><linearGradient id="paint22_linear" x1="194.321" y1="-96.562" x2="194.321" y2="436.758" gradientUnits="userSpaceOnUse"><stop stop-color="#432D30"/><stop offset=".549" stop-color="#59292D"/><stop offset="1" stop-color="#212223"/></linearGradient><linearGradient id="paint23_linear" x1="194.319" y1="-96.572" x2="194.319" y2="436.762" gradientUnits="userSpaceOnUse"><stop stop-color="#432C2F"/><stop offset=".549" stop-color="#59282C"/><stop offset="1" stop-color="#212123"/></linearGradient><linearGradient id="paint24_linear" x1="194.32" y1="-96.576" x2="194.32" y2="436.765" gradientUnits="userSpaceOnUse"><stop stop-color="#3E2D30"/><stop offset=".549" stop-color="#512B2D"/><stop offset="1" stop-color="#1C2120"/></linearGradient></defs></svg>