<svg width="372" height="440" viewBox="0 0 372 440" fill="none" xmlns="http://www.w3.org/2000/svg">
<path d="M102.917 250.922C111.338 242.108 123.182 236.615 136.306 236.615C141.622 236.615 146.726 237.508 151.469 239.188H151.482H151.467C135.213 242.842 119.038 246.775 102.915 250.922" fill="url(#paint0_linear)"/>
<path d="M100.625 253.508C101.345 252.615 102.118 251.762 102.903 250.922H102.915H102.917C119.038 246.775 135.213 242.842 151.467 239.188H151.482H151.483C157.611 241.308 163.141 244.708 167.791 249.055C167.79 249.055 167.79 249.055 167.79 249.055C147.298 250.868 126.819 252.415 106.314 253.362C104.435 253.402 102.543 253.455 100.625 253.508Z" fill="url(#paint1_linear)"/>
<path d="M245.877 86.7336C250.167 86.7336 250.174 80.067 245.877 80.067C241.587 80.067 241.579 86.7336 245.877 86.7336Z" fill="#E1E3E2"/>
<path d="M140.47 149.799C144.759 149.799 144.766 143.132 140.47 143.132C136.181 143.132 136.173 149.799 140.47 149.799Z" fill="#E1E3E2"/>
<path d="M235.203 294.043C239.493 294.043 239.501 287.376 235.203 287.376C230.913 287.376 230.906 294.043 235.203 294.043Z" fill="#E1E3E2"/>
<path d="M147.809 70.6323C152.097 70.6323 152.105 63.9657 147.809 63.9657C143.518 63.9657 143.511 70.6323 147.809 70.6323Z" fill="#E1E3E2"/>
<path d="M163.153 267.878C167.442 267.878 167.449 261.211 163.153 261.211C158.862 261.211 158.855 267.878 163.153 267.878Z" fill="#E1E3E2"/>
<path d="M243.209 210.179C247.498 210.179 247.506 203.512 243.209 203.512C238.918 203.512 238.911 210.179 243.209 210.179Z" fill="#E1E3E2"/>
<path d="M119.789 30.0537C121.933 30.0537 121.937 26.7204 119.789 26.7204C117.643 26.7204 117.639 30.0537 119.789 30.0537Z" fill="#E1E3E2"/>
<path d="M82.4287 90.4351C84.5727 90.4351 84.5767 87.1017 82.4287 87.1017C80.2833 87.1017 80.2807 90.4351 82.4287 90.4351Z" fill="#E1E3E2"/>
<path d="M165.821 105.195C167.966 105.195 167.969 101.862 165.821 101.862C163.677 101.862 163.673 105.195 165.821 105.195Z" fill="#E1E3E2"/>
<path d="M219.191 52.1936C221.337 52.1936 221.341 48.8603 219.191 48.8603C217.047 48.8603 217.043 52.1936 219.191 52.1936Z" fill="#E1E3E2"/>
<path d="M181.831 166.918C183.977 166.918 183.981 163.584 181.831 163.584C179.687 163.584 179.683 166.918 181.831 166.918Z" fill="#E1E3E2"/>
<path d="M173.159 205.83C175.303 205.83 175.307 202.496 173.159 202.496C171.014 202.496 171.011 205.83 173.159 205.83Z" fill="#E1E3E2"/>
<path d="M177.829 253.463C179.974 253.463 179.978 250.13 177.829 250.13C175.685 250.13 175.681 253.463 177.829 253.463Z" fill="#E1E3E2"/>
<path d="M131.797 309.819C133.942 309.819 133.945 306.485 131.797 306.485C129.653 306.485 129.649 309.819 131.797 309.819Z" fill="#E1E3E2"/>
<path d="M219.858 118.267C224.149 118.267 224.155 111.6 219.858 111.6C215.57 111.6 215.562 118.267 219.858 118.267Z" fill="#E1E3E2"/>
<path d="M149.142 22.999C153.431 22.999 153.439 16.3324 149.142 16.3324C144.853 16.3324 144.846 22.999 149.142 22.999Z" fill="#E1E3E2"/>
<path d="M157.149 306.119C161.438 306.119 161.445 299.452 157.149 299.452C152.858 299.452 152.851 306.119 157.149 306.119Z" fill="#E1E3E2"/>
<path d="M102.442 141.078C106.733 141.078 106.739 134.411 102.442 134.411C98.1527 134.411 98.146 141.078 102.442 141.078Z" fill="#E1E3E2"/>
<path d="M243.875 50.5056C248.166 50.5056 248.173 43.8389 243.875 43.8389C239.586 43.8389 239.578 50.5056 243.875 50.5056Z" fill="#E1E3E2"/>
<path d="M159.817 221.586C164.106 221.586 164.113 214.919 159.817 214.919C155.527 214.919 155.519 221.586 159.817 221.586Z" fill="#E1E3E2"/>
<path d="M262.555 142.095C264.701 142.095 264.703 138.762 262.555 138.762C260.41 138.762 260.406 142.095 262.555 142.095Z" fill="#E1E3E2"/>
<path d="M184.501 269.566C186.646 269.566 186.649 266.232 184.501 266.232C182.355 266.232 182.351 269.566 184.501 269.566Z" fill="#E1E3E2"/>
<path d="M201.179 158.196C203.323 158.196 203.327 154.863 201.179 154.863C199.034 154.863 199.03 158.196 201.179 158.196Z" fill="#E1E3E2"/>
<path d="M162.485 149.474C164.63 149.474 164.633 146.14 162.485 146.14C160.341 146.14 160.337 149.474 162.485 149.474Z" fill="#E1E3E2"/>
<path d="M115.118 154.171C117.263 154.171 117.266 150.838 115.118 150.838C112.974 150.838 112.97 154.171 115.118 154.171Z" fill="#E1E3E2"/>
<path d="M140.47 293.718C142.614 293.718 142.618 290.384 140.47 290.384C138.325 290.384 138.321 293.718 140.47 293.718Z" fill="#E1E3E2"/>
<path d="M103.11 75.675C105.255 75.675 105.258 72.3417 103.11 72.3417C100.965 72.3417 100.961 75.675 103.11 75.675Z" fill="#E1E3E2"/>
<path d="M22.8172 29.647C22.7948 29.647 22.772 29.647 22.7496 29.647C22.7715 29.647 22.7953 29.647 22.8172 29.647C42.4912 29.647 59.3 17.3843 66.0167 0.0843124C59.3 17.3843 42.4912 29.647 22.8172 29.647ZM22.7387 29.647C22.7167 29.647 22.6953 29.647 22.674 29.647C22.6959 29.647 22.7167 29.647 22.7387 29.647ZM22.6605 29.647C22.6391 29.647 22.6172 29.647 22.5959 29.647C22.6177 29.647 22.6387 29.647 22.6605 29.647ZM22.586 29.647C22.5652 29.647 22.5439 29.647 22.5229 29.647C22.5448 29.647 22.5641 29.647 22.586 29.647ZM22.5163 29.6456C22.4944 29.6456 22.4715 29.6456 22.45 29.6456C22.4735 29.6456 22.4928 29.6456 22.5163 29.6456ZM22.4381 29.6456C22.4163 29.6456 22.3953 29.6456 22.374 29.6443C22.3959 29.6456 22.4163 29.6456 22.4381 29.6456ZM22.3605 29.6443C22.3391 29.6443 22.3172 29.6443 22.2953 29.6443C22.3172 29.6443 22.3387 29.6443 22.3605 29.6443ZM22.2876 29.6443C22.2667 29.6443 22.2464 29.6443 22.2256 29.643C22.2459 29.6443 22.2672 29.6443 22.2876 29.6443ZM22.2157 29.643C22.1944 29.643 22.1729 29.643 22.1516 29.6416C22.1715 29.643 22.1953 29.643 22.2157 29.643ZM22.1381 29.6416C22.1172 29.6416 22.0953 29.6416 22.0751 29.6416C22.0964 29.6416 22.1163 29.6416 22.1381 29.6416ZM22.0611 29.6416C22.0391 29.6403 22.0172 29.6403 21.9959 29.6403C22.0177 29.6403 22.0391 29.6403 22.0611 29.6416ZM21.9901 29.639C21.9704 29.639 21.9491 29.639 21.9292 29.639C21.9496 29.639 21.9699 29.639 21.9901 29.639ZM21.9152 29.639C21.8944 29.6376 21.8735 29.6376 21.8532 29.6363C21.8729 29.6376 21.8948 29.6376 21.9152 29.639ZM21.8381 29.6363C21.8172 29.6363 21.7959 29.6363 21.7756 29.635C21.7953 29.6363 21.8177 29.6363 21.8381 29.6363ZM21.762 29.635C21.7412 29.635 21.7215 29.635 21.7011 29.6336C21.7209 29.635 21.7417 29.635 21.762 29.635ZM21.6933 29.6336C21.6735 29.6336 21.6521 29.6323 21.6324 29.6323C21.6527 29.6323 21.6729 29.6336 21.6933 29.6336ZM21.6152 29.6323C21.5953 29.631 21.5751 29.631 21.5553 29.6296C21.5756 29.631 21.5948 29.631 21.6152 29.6323ZM21.5376 29.6296C21.5183 29.6296 21.498 29.6283 21.4781 29.6283C21.4985 29.6283 21.5177 29.6296 21.5376 29.6296ZM21.4615 29.627C21.4439 29.627 21.4267 29.627 21.4084 29.6256C21.4272 29.627 21.4428 29.627 21.4615 29.627ZM21.3939 29.6256C21.3745 29.6243 21.3557 29.6243 21.336 29.6243C21.3548 29.6243 21.3756 29.6243 21.3939 29.6256ZM21.3147 29.623C21.2959 29.623 21.2767 29.6216 21.2579 29.6216C21.2767 29.6216 21.2959 29.623 21.3147 29.623ZM21.2376 29.6203C21.2188 29.6203 21.2011 29.619 21.1824 29.619C21.1996 29.619 21.2204 29.6203 21.2376 29.6203ZM21.1611 29.6176C21.1459 29.6176 21.1297 29.6163 21.1147 29.6163C21.1303 29.6163 21.1453 29.6176 21.1611 29.6176ZM21.0948 29.615C21.0772 29.615 21.0589 29.6136 21.0412 29.6136C21.0595 29.6136 21.0767 29.615 21.0948 29.615ZM21.0141 29.6123C20.9975 29.6123 20.9803 29.611 20.9636 29.611C20.9803 29.611 20.9975 29.6123 21.0141 29.6123ZM20.936 29.6096C20.9224 29.6083 20.91 29.6083 20.8969 29.6083C20.9095 29.6083 20.9235 29.6083 20.936 29.6096ZM20.8584 29.6056C20.8469 29.6056 20.8339 29.6056 20.8224 29.6043C20.8349 29.6056 20.8459 29.6056 20.8584 29.6056ZM20.7928 29.603C20.7777 29.603 20.76 29.6016 20.7448 29.6016C20.762 29.6016 20.7756 29.603 20.7928 29.603ZM20.7136 29.6003C20.7011 29.599 20.6896 29.599 20.6772 29.599C20.6896 29.599 20.7011 29.599 20.7136 29.6003ZM20.6329 29.5963C20.624 29.5963 20.6167 29.5963 20.6079 29.595C20.6157 29.5963 20.6256 29.5963 20.6329 29.5963ZM20.5537 29.5923C20.5459 29.5923 20.5376 29.591 20.5297 29.591C20.5376 29.591 20.5459 29.5923 20.5537 29.5923ZM20.4709 29.5883C20.4647 29.5883 20.4568 29.5883 20.4505 29.587C20.4568 29.5883 20.4647 29.5883 20.4709 29.5883ZM20.4141 29.5856C20.4068 29.5856 20.3991 29.5843 20.3923 29.5843C20.3996 29.5843 20.4063 29.5856 20.4141 29.5856ZM20.3324 29.5816C20.3261 29.5816 20.3204 29.5803 20.3141 29.5803C20.3204 29.5803 20.3267 29.5816 20.3324 29.5816ZM20.2511 29.5776C20.2448 29.5776 20.2396 29.5763 20.2339 29.5763C20.2396 29.5763 20.2448 29.5776 20.2511 29.5776ZM20.1141 29.5696C20.1095 29.5696 20.1053 29.5683 20.1005 29.5683C20.1053 29.5683 20.1095 29.5696 20.1141 29.5696ZM20.0313 29.5643C20.0277 29.5643 20.0235 29.5643 20.0199 29.5643C20.0229 29.5643 20.0281 29.5643 20.0313 29.5643ZM19.812 29.551H19.8115H19.812Z" fill="url(#paint2_linear)"/>
<path d="M164.355 82.911L142.834 52.8537L151.205 46.8603L172.727 76.9177L164.355 82.911Z" fill="#B6BEB8"/>
<path d="M176.086 92.3577L135.617 35.8403L143.987 29.847L184.458 86.3643L176.086 92.3577Z" fill="#888B8B"/>
<path d="M266.758 264.028C266.917 263.802 267.065 263.575 267.223 263.348C267.13 263.482 267.051 263.602 266.97 263.735L266.758 264.028Z" fill="url(#paint3_linear)"/>
<path d="M265.401 266.068H265.387L265.441 265.988L265.401 266.068Z" fill="url(#paint4_linear)"/>
<path d="M258.611 277.508C258.691 277.335 258.785 277.148 258.891 276.975C259.038 276.695 259.197 276.415 259.345 276.135C259.543 275.748 259.757 275.375 259.969 274.988C260.342 274.322 260.729 273.655 261.101 273.002L261.207 272.828C261.366 272.548 261.526 272.268 261.699 271.988C261.766 271.855 261.846 271.722 261.939 271.588C262.273 271.002 262.618 270.428 262.977 269.855C263.123 269.615 263.27 269.375 263.417 269.135C263.575 268.868 263.749 268.602 263.922 268.348C264.042 268.148 264.162 267.948 264.294 267.762C264.521 267.402 264.761 267.042 264.987 266.682C265.121 266.468 265.253 266.268 265.387 266.068H265.401L265.441 265.988C265.533 265.842 265.639 265.695 265.734 265.548C265.639 265.695 265.533 265.842 265.441 265.988L265.401 266.068C265.253 266.268 265.121 266.468 264.987 266.682C264.761 267.042 264.521 267.402 264.294 267.762C264.162 267.948 264.042 268.148 263.922 268.348C263.749 268.602 263.575 268.868 263.417 269.135C263.27 269.375 263.123 269.615 262.977 269.855C262.618 270.428 262.273 271.002 261.939 271.588C261.846 271.722 261.766 271.855 261.699 271.988C261.526 272.268 261.366 272.548 261.207 272.828L261.101 273.002C260.729 273.655 260.342 274.322 259.969 274.988C259.757 275.375 259.543 275.748 259.345 276.135C259.197 276.415 259.038 276.695 258.891 276.975C258.785 277.148 258.691 277.335 258.611 277.508Z" fill="#C82626"/>
<path d="M257.787 279.068C258.053 278.548 258.319 278.028 258.611 277.508C258.371 277.948 258.146 278.388 257.919 278.828L257.787 279.068Z" fill="url(#paint5_linear)"/>
<path d="M265.734 265.548C265.913 265.272 266.094 265 266.278 264.728C266.098 264.999 265.917 265.271 265.734 265.548Z" fill="url(#paint6_linear)"/>
<path d="M257.425 279.784C257.545 279.544 257.666 279.306 257.787 279.068L257.919 278.828C257.753 279.146 257.587 279.464 257.425 279.784Z" fill="url(#paint7_linear)"/>
<path d="M270.311 259.082L270.338 259.028L270.445 258.895L270.311 259.082ZM272.627 256.082C272.734 255.922 272.854 255.775 272.974 255.628L273.227 255.308C273.479 255.002 273.719 254.708 273.985 254.402C273.519 254.962 273.067 255.522 272.627 256.082Z" fill="url(#paint8_linear)"/>
<path d="M303.135 227.562C303.211 227.508 303.286 227.456 303.365 227.406C303.289 227.456 303.213 227.508 303.135 227.562Z" fill="url(#paint9_linear)"/>
<path d="M244.623 317.828C244.662 317.575 244.715 317.308 244.755 317.055L244.769 317.068C244.715 317.322 244.662 317.575 244.623 317.828Z" fill="url(#paint10_linear)"/>
<path d="M242.903 330.52C242.926 330.255 242.949 329.984 242.971 329.722C242.982 329.625 242.991 329.528 243.002 329.432C242.967 329.795 242.934 330.159 242.903 330.52ZM243.265 326.975C243.331 326.361 243.41 325.735 243.491 325.108C243.543 324.695 243.597 324.268 243.665 323.855C243.517 324.895 243.385 325.935 243.265 326.975ZM243.703 323.589C243.85 322.468 244.01 321.361 244.195 320.255V320.215C244.33 319.415 244.475 318.615 244.623 317.828C244.662 317.575 244.715 317.322 244.769 317.068C244.355 319.228 244.01 321.402 243.703 323.589ZM246.379 309.615C246.419 309.361 246.486 309.108 246.553 308.868C246.645 308.508 246.738 308.161 246.831 307.802L246.822 307.88C246.819 307.889 246.818 307.895 246.815 307.903C246.815 307.907 246.817 307.909 246.817 307.913C246.658 308.484 246.511 309.043 246.379 309.615ZM247.338 305.895C247.445 305.482 247.55 305.082 247.683 304.682C247.674 304.726 247.663 304.768 247.653 304.811C247.578 305.071 247.506 305.332 247.434 305.594C247.402 305.69 247.37 305.788 247.338 305.895Z" fill="url(#paint11_linear)"/>
<path d="M248.39 302.274C248.495 301.93 248.602 301.587 248.709 301.242L248.682 301.344C248.63 301.511 248.579 301.676 248.527 301.842C248.482 301.986 248.435 302.13 248.39 302.274ZM249.361 299.188C249.414 299.028 249.467 298.855 249.519 298.695L249.654 298.335C249.587 298.535 249.519 298.735 249.454 298.935L249.361 299.188Z" fill="url(#paint12_linear)"/>
<path d="M247.806 304.272L247.857 304.068L247.897 303.922C247.937 303.802 247.962 303.682 248.003 303.562C248.129 303.132 248.258 302.703 248.39 302.274C248.435 302.13 248.482 301.986 248.527 301.842C248.281 302.648 248.039 303.459 247.806 304.272ZM248.682 301.344L248.709 301.242C248.749 301.095 248.789 300.948 248.842 300.815C249.014 300.268 249.187 299.735 249.361 299.188L249.454 298.935C249.519 298.735 249.587 298.535 249.654 298.335C249.702 298.194 249.75 298.054 249.798 297.914C249.411 299.051 249.039 300.195 248.682 301.344ZM250.807 295.046C250.845 294.942 250.881 294.839 250.918 294.735L251.038 294.388C251.091 294.228 251.145 294.082 251.211 293.935C251.317 293.628 251.437 293.322 251.557 293.028C251.61 292.868 251.663 292.722 251.73 292.575C251.767 292.47 251.813 292.358 251.861 292.247C251.499 293.175 251.149 294.107 250.807 295.046ZM252.046 291.772C252.137 291.528 252.23 291.286 252.329 291.042C252.555 290.455 252.794 289.882 253.047 289.295C253.051 289.284 253.057 289.274 253.061 289.264C252.714 290.096 252.377 290.931 252.046 291.772Z" fill="#B82227"/>
<path d="M255.353 284.055H255.35L255.359 284.036H255.361C255.358 284.043 255.355 284.048 255.353 284.055Z" fill="url(#paint13_linear)"/>
<path d="M255.359 284.036L255.406 283.94C255.39 283.972 255.375 284.004 255.361 284.036H255.359Z" fill="url(#paint14_linear)"/>
<path d="M254.797 285.264C254.977 284.858 255.163 284.451 255.35 284.055H255.353C255.166 284.456 254.981 284.86 254.797 285.264ZM255.673 283.37L255.682 283.348L255.686 283.342C255.682 283.351 255.678 283.36 255.673 283.37Z" fill="#B82227"/>
<path d="M247.798 304.303C247.801 304.292 247.803 304.283 247.806 304.272L247.803 304.282C247.802 304.288 247.799 304.295 247.798 304.303Z" fill="url(#paint15_linear)"/>
<path d="M249.798 297.914C250.125 296.952 250.461 295.996 250.807 295.046C250.467 295.992 250.13 296.948 249.798 297.914Z" fill="url(#paint16_linear)"/>
<path d="M251.861 292.247C251.922 292.09 251.985 291.93 252.046 291.772C252.003 291.888 251.961 292.004 251.917 292.122C251.898 292.163 251.879 292.204 251.861 292.247Z" fill="url(#paint17_linear)"/>
<path d="M253.061 289.264C253.619 287.92 254.198 286.586 254.797 285.264C254.759 285.35 254.722 285.436 254.685 285.522C254.13 286.764 253.589 288.007 253.061 289.264Z" fill="url(#paint18_linear)"/>
<path d="M255.406 283.94C255.494 283.75 255.583 283.559 255.673 283.37L255.523 283.695L255.406 283.94Z" fill="url(#paint19_linear)"/>
<path d="M255.686 283.342C255.729 283.252 255.77 283.164 255.811 283.076C255.811 283.082 255.811 283.087 255.811 283.091L255.75 283.215L255.686 283.342Z" fill="url(#paint20_linear)"/>
<path d="M255.363 284.055H255.353C255.355 284.048 255.358 284.043 255.361 284.036C255.365 284.036 255.369 284.036 255.373 284.035L255.363 284.055Z" fill="url(#paint21_linear)"/>
<path d="M255.361 284.036C255.375 284.004 255.39 283.972 255.406 283.94L255.523 283.695L255.373 284.035C255.369 284.036 255.365 284.036 255.361 284.036Z" fill="url(#paint22_linear)"/>
<path d="M246.817 307.912C246.817 307.909 246.815 307.907 246.815 307.903C246.818 307.895 246.819 307.889 246.822 307.88L246.818 307.908C246.818 307.909 246.817 307.911 246.817 307.912ZM247.434 305.594C247.506 305.332 247.578 305.071 247.653 304.811C247.593 305.048 247.525 305.286 247.458 305.522C247.45 305.546 247.442 305.57 247.434 305.594ZM248.527 301.842C248.579 301.676 248.63 301.511 248.682 301.344L248.642 301.495C248.603 301.61 248.566 301.726 248.527 301.842Z" fill="url(#paint23_linear)"/>
<path d="M296.653 232.295C296.946 232.055 297.238 231.828 297.545 231.602V231.615V231.628C297.238 231.842 296.946 232.07 296.653 232.295Z" fill="url(#paint24_linear)"/>
<path d="M285.393 242.042C285.578 241.855 285.765 241.668 285.965 241.482L286.311 241.162L286.537 240.962C286.151 241.308 285.779 241.668 285.393 242.042ZM296.653 232.295C296.946 232.07 297.238 231.842 297.545 231.628V231.615V231.628C297.238 231.842 296.946 232.07 296.653 232.295Z" fill="#B82227"/>
<path d="M112.519 270.728V383.598C112.519 383.598 183.186 417.376 255.185 383.598V265.799H110.297L112.519 270.728Z" fill="#F1A1A5"/>
<path d="M183.731 292.5L112.415 264.915L112.519 294.728C112.519 294.728 156.619 330.055 157.953 331.389C157.953 331.389 165.509 336.944 183.731 337.389C201.953 336.944 209.509 331.389 209.509 331.389C210.842 330.055 255.081 294.614 255.081 294.614L255.082 264.426L183.731 292.5Z" fill="#D47A93"/>
<path d="M97.286 152.639C97.286 152.639 80.9526 146.472 77.4526 148.472C73.9526 150.472 71.4526 151.972 72.6193 158.972C73.786 165.972 81.1193 200.139 81.1193 200.139C81.1193 200.139 83.286 208.972 87.6193 210.472C91.9526 211.972 97.286 211.306 97.286 211.306V152.639Z" fill="#F1A1A5"/>
<path d="M97.286 166.182C96.6193 166.182 82.842 164.182 82.842 164.182C82.842 164.182 77.0647 161.515 78.842 171.515C80.6193 181.515 85.3607 195.982 85.3607 195.982C85.3607 195.982 86.4993 199.148 87.894 197.294C89.2407 195.504 93.4713 192.482 95.9153 193.815C98.3607 195.148 97.286 166.182 97.286 166.182Z" fill="#D47A93"/>
<path d="M265.195 152.639C265.195 152.639 281.529 146.472 285.029 148.472C288.529 150.472 291.029 151.972 289.862 158.972C288.695 165.972 281.362 200.139 281.362 200.139C281.362 200.139 279.195 208.972 274.862 210.472C270.529 211.972 265.195 211.306 265.195 211.306V152.639Z" fill="#F1A1A5"/>
<path d="M266.169 163.126C266.835 163.126 280.614 161.126 280.614 161.126C280.614 161.126 286.391 158.459 284.614 168.459C282.835 178.458 278.614 193.124 278.614 193.124C278.614 193.124 277.674 195.815 275.561 194.236C273.766 192.896 269.359 190.12 266.915 191.454C264.471 192.787 266.169 163.126 266.169 163.126Z" fill="#D47A93"/>
<path d="M97.5207 50.815L95.002 120.482V232.704C95.002 232.704 97.6687 256.704 110.779 268.259C123.89 279.815 155.669 306.926 155.669 306.926C155.669 306.926 161.89 314.259 181.223 315.148C200.558 314.259 206.779 306.926 206.779 306.926C206.779 306.926 238.558 279.815 251.669 268.259C264.779 256.704 267.446 232.704 267.446 232.704V131.371V129.148V120.482L261.249 52.4817L179.249 40.5936L97.5207 50.815Z" fill="#F1A1A5"/>
<path d="M95.002 174.134V122.416C95.002 120.387 95.7207 118.428 97.0407 116.886C101.054 112.192 109.541 100.98 108.859 90.771C107.97 77.4377 108.894 66.771 108.894 66.771C108.894 66.771 123.953 50.1484 152.842 48.815C181.73 47.4817 222.693 49.6484 227.582 52.6484C232.471 55.6484 249.747 61.4377 251.081 68.1043C252.037 72.883 252.765 88.3923 253.101 96.795C253.242 100.378 254.425 103.839 256.507 106.759C260.33 112.119 266.259 120.686 266.637 122.771C267.249 126.148 267.446 171.148 267.446 171.148L280.414 149.738C280.414 149.738 292.667 111.582 289.915 97.4817C287.249 83.815 254.51 36.155 251.249 31.4817C248.806 27.9817 247.287 27.1444 215.97 20.5484C186.378 14.3164 139.187 8.37901 130.985 7.367C129.998 7.24434 129.002 7.29636 128.041 7.54703C123.359 8.76436 109.981 14.339 99.526 39.215C86.6367 69.8817 67.97 88.691 70.6367 99.287C73.3033 109.882 88.3353 170.831 95.002 174.134Z" fill="#4C2E24"/>
<path d="M266.827 54.8537L270.531 60.675L252.11 77.875L251.081 68.1043L266.827 54.8537Z" fill="#603A2A"/>
<path d="M171.245 240.02L171.065 240.01C170.335 239.91 169.823 239.239 169.922 238.51L174.151 207.166C174.25 206.435 174.927 205.927 175.651 206.022C176.381 206.122 176.893 206.791 176.794 207.522L172.565 238.866C172.474 239.535 171.902 240.02 171.245 240.02Z" fill="#EB8899"/>
<path d="M191.471 240.02C190.814 240.02 190.242 239.535 190.151 238.866L185.922 207.522C185.823 206.791 186.335 206.122 187.065 206.022C187.791 205.93 188.466 206.435 188.565 207.166L192.794 238.51C192.893 239.239 192.381 239.91 191.651 240.01L191.471 240.02Z" fill="#EB8899"/>
<path d="M197.702 133.951C195.027 133.654 195.325 127.711 200.377 126.226C205.726 124.739 236.927 114.042 245.842 130.682C245.842 130.98 204.537 135.14 197.702 133.951Z" fill="#44281D"/>
<path d="M165.014 133.951C167.689 133.654 167.391 127.711 162.341 126.226C156.991 124.739 125.79 114.042 116.875 130.682C116.875 130.98 158.181 135.14 165.014 133.951Z" fill="#4C3026"/>
<path d="M197.863 195.054H190.265V165.327C190.265 160.55 185.882 156.834 180.914 156.834C175.653 156.834 171.562 160.815 171.562 165.327V195.319H163.965C161.042 195.319 158.705 197.707 158.705 200.096C158.705 202.75 161.334 204.874 163.965 204.874H172.439C173.607 208.059 177.115 210.182 180.914 210.182C184.713 210.182 188.219 207.792 189.389 204.874H197.863C200.786 204.874 203.123 202.484 203.123 200.096C202.831 197.442 200.201 195.054 197.863 195.054Z" fill="#E58596"/>
<path d="M238.514 157.648C238.514 155.206 237.155 145.162 220.055 145.162C202.954 145.162 201.597 154.934 201.597 157.648C201.597 160.091 202.954 170.135 220.055 170.135C237.427 170.135 238.514 160.363 238.514 157.648Z" fill="white"/>
<path d="M227.383 157.648C227.383 162.146 223.737 165.791 219.239 165.791C214.742 165.791 211.097 162.146 211.097 157.648C211.097 153.151 214.742 149.504 219.239 149.504C223.737 149.504 227.383 153.151 227.383 157.648Z" fill="#1B2016"/>
<path d="M228.833 151.624C228.833 154.323 226.645 156.511 223.946 156.511C221.247 156.511 219.061 154.323 219.061 151.624C219.061 148.927 221.247 146.739 223.946 146.739C226.645 146.739 228.833 148.927 228.833 151.624Z" fill="white"/>
<path d="M238.514 155.476C238.514 151.948 238.514 142.99 226.942 140.004C203.799 133.762 201.597 151.134 201.597 156.834C211.79 147.604 228.045 146.247 238.514 155.476Z" fill="#EB8899"/>
<path d="M161.027 157.648C161.027 155.206 159.67 145.162 142.569 145.162C125.467 145.162 124.11 154.934 124.11 157.648C124.11 160.091 125.467 170.135 142.569 170.135C159.941 170.135 161.027 160.363 161.027 157.648Z" fill="white"/>
<path d="M149.898 157.648C149.898 162.146 146.251 165.791 141.754 165.791C137.257 165.791 133.611 162.146 133.611 157.648C133.611 153.151 137.257 149.504 141.754 149.504C146.251 149.504 149.898 153.151 149.898 157.648Z" fill="#1B2016"/>
<path d="M151.346 151.624C151.346 154.323 149.158 156.511 146.459 156.511C143.762 156.511 141.574 154.323 141.574 151.624C141.574 148.927 143.762 146.739 146.459 146.739C149.158 146.739 151.346 148.927 151.346 151.624Z" fill="white"/>
<path d="M161.027 155.476C161.027 151.948 161.027 142.99 149.457 140.004C126.314 133.762 124.11 151.134 124.11 156.834C134.303 147.604 150.558 146.247 161.027 155.476Z" fill="#EB8899"/>
<path d="M151.074 75.5631H213.482V80.3311H151.074V75.5631Z" fill="#E58596"/>
<path d="M151.074 95.5631H213.482V100.331H151.074V95.5631Z" fill="#E58596"/>
<path d="M138.247 85.4964H229.843V90.2644H138.247V85.4964Z" fill="#E58596"/>
<path d="M130.735 246.682C129.999 246.682 129.402 246.086 129.402 245.348V237.535C129.402 235.728 130.006 233.942 131.102 232.504L156.009 199.874C156.454 199.29 157.291 199.175 157.878 199.623C158.463 200.068 158.575 200.906 158.129 201.491L133.222 234.122C132.478 235.096 132.069 236.308 132.069 237.535V245.348C132.069 246.086 131.471 246.682 130.735 246.682Z" fill="#EB8899"/>
<path d="M231.735 246.682C230.998 246.682 230.402 246.086 230.402 245.348V237.535C230.402 236.308 229.991 235.096 229.247 234.122L204.342 201.491C203.895 200.906 204.007 200.068 204.593 199.623C205.179 199.172 206.014 199.29 206.461 199.874L231.367 232.504C232.463 233.942 233.069 235.728 233.069 237.535V245.348C233.069 246.086 232.471 246.682 231.735 246.682Z" fill="#EB8899"/>
<path d="M219.717 242.523C211.717 242.744 201.05 241.411 196.717 239.856C192.735 238.427 183.986 238.783 182.247 240.058C180.507 238.783 171.759 238.427 167.778 239.856C163.445 241.411 152.778 242.744 144.778 242.523C136.778 242.3 141.111 246.967 141.111 246.967C141.111 246.967 149.445 246.856 149.222 247.856C148.999 248.856 161.999 257.28 166.778 261.836C171.103 265.96 180.502 265.17 182.247 264.982C183.991 265.17 193.391 265.96 197.717 261.836C202.495 257.28 215.495 248.856 215.273 247.856C215.05 246.856 223.383 246.967 223.383 246.967C223.383 246.967 227.717 242.3 219.717 242.523Z" fill="#A84A78"/>
<path d="M211.09 243.774C209.725 243.551 181.959 243.774 181.959 243.774C181.959 243.774 154.77 243.551 153.403 243.774C153.403 243.774 149.181 243.884 152.737 246.218C156.293 248.551 166.999 255.328 167.111 255.774C167.222 256.218 182.403 256.884 182.403 256.884C182.403 256.884 197.666 256.218 197.778 255.774C197.889 255.328 208.202 248.551 211.757 246.218C215.313 243.884 211.09 243.774 211.09 243.774Z" fill="#0F0A0C"/>
<path d="M193.727 254.416C189.25 254.416 182.51 254.222 182.443 254.219C182.297 254.222 175.418 254.416 170.849 254.416C168.519 254.416 167.638 254.364 167.318 254.332C164.41 251.478 153.682 243.915 153.471 243.772L153.529 243.771L153.617 243.756C153.807 243.734 154.979 243.675 161.414 243.675C169.87 243.675 181.947 243.774 181.949 243.774C181.971 243.774 194.305 243.675 202.93 243.675C209.497 243.675 210.686 243.734 210.894 243.759L211.025 243.771C210.883 243.864 200.093 251.47 197.177 254.334C196.861 254.364 195.998 254.416 193.729 254.416H193.727Z" fill="white"/>
<path d="M210.946 243.495C211.985 242.308 183.874 243.427 182.251 243.492C180.742 243.427 154.591 242.308 153.551 243.495C153.551 243.495 150.489 247.371 182.171 247.274H182.249H182.325C214.009 247.371 210.946 243.495 210.946 243.495Z" fill="#E97C9A"/>
<path d="M165.35 284.204C165.35 284.204 179.367 258.204 195.486 284.204H165.35Z" fill="#E57B99"/>
<path d="M252.581 85.567L252.923 92.6057L279.295 75.103L275.594 68.867L252.581 85.567Z" fill="#603A2A"/>
<path d="M111.277 19.3177C111.277 19.3177 112.915 30.9257 117.915 35.0364C117.915 35.0364 131.533 52.2177 133.446 52.2937C133.446 52.2937 138.433 50.6231 141.021 50.2897L123.471 31.703C123.471 31.703 115.542 18.0444 116.618 13.9297C116.618 13.9297 111.722 18.3391 111.277 19.3177Z" fill="#603A2A"/>
<path d="M119.822 11.4724C119.822 11.4724 122.249 24.3004 127.249 28.4111C127.249 28.4111 141.938 49.6857 143.851 49.7617C143.851 49.7617 150.582 48.6484 153.754 48.7751L132.805 25.0777C132.805 25.0777 124.779 12.5177 125.854 8.40306C125.854 8.40306 120.266 10.4951 119.822 11.4724Z" fill="#603A2A"/>
<path d="M102.755 32.2844C102.755 32.2844 102.582 36.4257 107.582 40.5377C107.582 40.5377 119.753 57.2911 121.667 57.3684C121.667 57.3684 127.085 54.4564 129.198 53.8257L113.138 37.2044C113.138 37.2044 106.402 28.4311 107.478 24.3178C107.478 24.3178 103.201 31.3084 102.755 32.2844Z" fill="#603A2A"/>
<path d="M371.733 393.977V440.019H0.59906V393.977H1.06626C2.59906 371.437 67.0473 325.931 111.767 315.449C125.981 341.942 151.258 360.049 183.405 360.049C215.59 360.049 240.235 341.181 254.434 314.634C299.367 325.09 370.186 371.37 371.733 393.977Z" fill="#585B4D"/>
<defs>
<linearGradient id="paint0_linear" x1="194.319" y1="-96.5715" x2="194.319" y2="436.762" gradientUnits="userSpaceOnUse">
<stop stop-color="#492E7C"/>
<stop offset="0.549147" stop-color="#6D2B7B"/>
<stop offset="1" stop-color="#124465"/>
</linearGradient>
<linearGradient id="paint1_linear" x1="194.319" y1="-96.5718" x2="194.319" y2="436.762" gradientUnits="userSpaceOnUse">
<stop stop-color="#462E76"/>
<stop offset="0.549147" stop-color="#662C74"/>
<stop offset="1" stop-color="#13415E"/>
</linearGradient>
<linearGradient id="paint2_linear" x1="194.319" y1="-96.5717" x2="194.319" y2="436.762" gradientUnits="userSpaceOnUse">
<stop stop-color="#30295C"/>
<stop offset="0.549147" stop-color="#3B2759"/>
<stop offset="1" stop-color="#121D2D"/>
</linearGradient>
<linearGradient id="paint3_linear" x1="194.32" y1="-96.5699" x2="194.32" y2="436.761" gradientUnits="userSpaceOnUse">
<stop stop-color="#3D2D30"/>
<stop offset="0.549147" stop-color="#4D2B2E"/>
<stop offset="1" stop-color="#1C2120"/>
</linearGradient>
<linearGradient id="paint4_linear" x1="194.337" y1="-96.5569" x2="194.337" y2="436.755" gradientUnits="userSpaceOnUse">
<stop stop-color="#3D2D30"/>
<stop offset="0.549147" stop-color="#4D2B2E"/>
<stop offset="1" stop-color="#1C2120"/>
</linearGradient>
<linearGradient id="paint5_linear" x1="194.32" y1="-96.5701" x2="194.32" y2="436.761" gradientUnits="userSpaceOnUse">
<stop stop-color="#462E30"/>
<stop offset="0.549147" stop-color="#5F2B2D"/>
<stop offset="1" stop-color="#202825"/>
</linearGradient>
<linearGradient id="paint6_linear" x1="194.322" y1="-96.5731" x2="194.322" y2="436.762" gradientUnits="userSpaceOnUse">
<stop stop-color="#3D2D30"/>
<stop offset="0.549147" stop-color="#4D2B2E"/>
<stop offset="1" stop-color="#1C2120"/>
</linearGradient>
<linearGradient id="paint7_linear" x1="194.32" y1="-96.5676" x2="194.32" y2="436.76" gradientUnits="userSpaceOnUse">
<stop stop-color="#432D30"/>
<stop offset="0.549147" stop-color="#59292D"/>
<stop offset="1" stop-color="#212223"/>
</linearGradient>
<linearGradient id="paint8_linear" x1="194.319" y1="-96.5726" x2="194.319" y2="436.762" gradientUnits="userSpaceOnUse">
<stop stop-color="#3B2C2F"/>
<stop offset="0.549147" stop-color="#4A2A2D"/>
<stop offset="1" stop-color="#1D1E1F"/>
</linearGradient>
<linearGradient id="paint9_linear" x1="194.321" y1="-96.5838" x2="194.321" y2="436.77" gradientUnits="userSpaceOnUse">
<stop stop-color="#3D2C2F"/>
<stop offset="0.549147" stop-color="#4D292D"/>
<stop offset="1" stop-color="#1D1E1F"/>
</linearGradient>
<linearGradient id="paint10_linear" x1="194.315" y1="-96.5731" x2="194.315" y2="436.762" gradientUnits="userSpaceOnUse">
<stop stop-color="#482E30"/>
<stop offset="0.549147" stop-color="#642A2C"/>
<stop offset="1" stop-color="#202825"/>
</linearGradient>
<linearGradient id="paint11_linear" x1="194.319" y1="-96.5717" x2="194.319" y2="436.762" gradientUnits="userSpaceOnUse">
<stop stop-color="#462D2F"/>
<stop offset="0.549147" stop-color="#5F292C"/>
<stop offset="1" stop-color="#212324"/>
</linearGradient>
<linearGradient id="paint12_linear" x1="194.319" y1="-96.5721" x2="194.319" y2="436.762" gradientUnits="userSpaceOnUse">
<stop stop-color="#462D2F"/>
<stop offset="0.549147" stop-color="#5F292C"/>
<stop offset="1" stop-color="#212324"/>
</linearGradient>
<linearGradient id="paint13_linear" x1="194.26" y1="-96.6114" x2="194.26" y2="436.778" gradientUnits="userSpaceOnUse">
<stop stop-color="#482E30"/>
<stop offset="0.549147" stop-color="#642A2C"/>
<stop offset="1" stop-color="#202825"/>
</linearGradient>
<linearGradient id="paint14_linear" x1="194.345" y1="-96.5561" x2="194.345" y2="436.755" gradientUnits="userSpaceOnUse">
<stop stop-color="#462E30"/>
<stop offset="0.549147" stop-color="#5F2B2D"/>
<stop offset="1" stop-color="#202825"/>
</linearGradient>
<linearGradient id="paint15_linear" x1="194.485" y1="-96.644" x2="194.485" y2="436.786" gradientUnits="userSpaceOnUse">
<stop stop-color="#482E30"/>
<stop offset="0.549147" stop-color="#642A2C"/>
<stop offset="1" stop-color="#202825"/>
</linearGradient>
<linearGradient id="paint16_linear" x1="194.321" y1="-96.5718" x2="194.321" y2="436.762" gradientUnits="userSpaceOnUse">
<stop stop-color="#482E30"/>
<stop offset="0.549147" stop-color="#642A2C"/>
<stop offset="1" stop-color="#202825"/>
</linearGradient>
<linearGradient id="paint17_linear" x1="194.324" y1="-96.578" x2="194.324" y2="436.764" gradientUnits="userSpaceOnUse">
<stop stop-color="#482E30"/>
<stop offset="0.549147" stop-color="#642A2C"/>
<stop offset="1" stop-color="#202825"/>
</linearGradient>
<linearGradient id="paint18_linear" x1="194.319" y1="-96.5716" x2="194.319" y2="436.762" gradientUnits="userSpaceOnUse">
<stop stop-color="#482E30"/>
<stop offset="0.549147" stop-color="#642A2C"/>
<stop offset="1" stop-color="#202825"/>
</linearGradient>
<linearGradient id="paint19_linear" x1="194.319" y1="-96.5743" x2="194.319" y2="436.763" gradientUnits="userSpaceOnUse">
<stop stop-color="#462E30"/>
<stop offset="0.549147" stop-color="#5F2B2D"/>
<stop offset="1" stop-color="#202825"/>
</linearGradient>
<linearGradient id="paint20_linear" x1="194.323" y1="-96.5698" x2="194.323" y2="436.761" gradientUnits="userSpaceOnUse">
<stop stop-color="#462E30"/>
<stop offset="0.549147" stop-color="#5F2B2D"/>
<stop offset="1" stop-color="#202825"/>
</linearGradient>
<linearGradient id="paint21_linear" x1="194.359" y1="-96.6336" x2="194.359" y2="436.787" gradientUnits="userSpaceOnUse">
<stop stop-color="#462D2F"/>
<stop offset="0.549147" stop-color="#5F292C"/>
<stop offset="1" stop-color="#212324"/>
</linearGradient>
<linearGradient id="paint22_linear" x1="194.321" y1="-96.5622" x2="194.321" y2="436.758" gradientUnits="userSpaceOnUse">
<stop stop-color="#432D30"/>
<stop offset="0.549147" stop-color="#59292D"/>
<stop offset="1" stop-color="#212223"/>
</linearGradient>
<linearGradient id="paint23_linear" x1="194.319" y1="-96.5716" x2="194.319" y2="436.762" gradientUnits="userSpaceOnUse">
<stop stop-color="#432C2F"/>
<stop offset="0.549147" stop-color="#59282C"/>
<stop offset="1" stop-color="#212123"/>
</linearGradient>
<linearGradient id="paint24_linear" x1="194.32" y1="-96.5762" x2="194.32" y2="436.765" gradientUnits="userSpaceOnUse">
<stop stop-color="#3E2D30"/>
<stop offset="0.549147" stop-color="#512B2D"/>
<stop offset="1" stop-color="#1C2120"/>
</linearGradient>
</defs>
</svg>
