<svg width="21" height="28" fill="none" xmlns="http://www.w3.org/2000/svg"><path fill-rule="evenodd" clip-rule="evenodd" d="M3.218 9.557c.525-5.019 4.534-8.755 8.954-8.345 4.42.41 7.578 4.81 7.053 9.83a10.13 10.13 0 01-1.64 4.586 9.388 9.388 0 01.222 3.26c-.486 4.647-4.199 8.108-8.293 7.728-4.093-.38-7.018-4.455-6.531-9.104.118-1.135.43-2.2.893-3.155a9.968 9.968 0 01-.658-4.8z" fill="#DA8A38"/><path fill-rule="evenodd" clip-rule="evenodd" d="M4.614 5.354c1.648-2.73 4.505-4.426 7.558-4.142 4.42.41 7.578 4.81 7.053 9.83a10.13 10.13 0 01-1.64 4.586 9.388 9.388 0 01.222 3.26c-.348 3.322-2.344 6.037-4.95 7.177 2.591-1.865 1.668-7.636-.536-10.92 3.246-5.247-1.137-13.084-7.707-9.791z" fill="#CA7626"/><path fill-rule="evenodd" clip-rule="evenodd" d="M17.242 3.993c1.478 1.818 2.266 4.343 1.983 7.049a10.128 10.128 0 01-1.64 4.586 9.388 9.388 0 01.222 3.26 9.502 9.502 0 01-.903 3.175l.166-.742c.44-1.967.176-4.024-.734-5.714l.418-.702c2.033-3.407 2.12-7.634.488-10.912z" fill="#AD601D"/><path fill-rule="evenodd" clip-rule="evenodd" d="M5.49 16.767c-.061.592.128 1.094.423 1.121.295.027.584-.43.646-1.022.062-.592-.127-1.093-.422-1.12-.295-.028-.584.43-.646 1.021zm-1.506 2.037c-.04.385.029.707.154.718.126.012.26-.29.3-.676.041-.385-.028-.706-.154-.718-.125-.011-.26.291-.3.676zm-.327-1.047c.258-2.467 1.474-4.373 2.715-4.258 1.241.115 2.038 2.208 1.78 4.675-.258 2.467-1.473 4.373-2.714 4.258-1.242-.115-2.039-2.208-1.78-4.675z" fill="#EB9D4C"/><path fill-rule="evenodd" clip-rule="evenodd" d="M9.453 11.074c.107-1.027.569-1.825 1.03-1.782.461.043.748.91.641 1.937-.107 1.026-.569 1.824-1.03 1.781-.461-.043-.748-.91-.641-1.936zM11.316 21.14c.069-.664.364-1.18.66-1.152.295.028.478.588.408 1.25-.069.664-.364 1.179-.66 1.152-.295-.028-.478-.588-.408-1.25zM8.136 23.666c.054-.517.337-.913.632-.886.295.027.49.468.436.985-.054.517-.337.914-.632.887-.295-.028-.49-.469-.436-.986zM4.824 10c.055-.517.338-.914.633-.887.295.027.49.469.436.986-.054.516-.337.913-.632.886-.295-.027-.49-.469-.437-.986z" fill="#CA7626"/><path fill-rule="evenodd" clip-rule="evenodd" d="M16.404 4.706c.031-.3.18-.53.332-.517.152.014.25.268.219.568-.031.3-.18.53-.332.517-.152-.015-.25-.269-.22-.568zm-.743 14.399c.042-.4.208-.71.371-.696.163.015.262.351.22.75-.042.4-.208.711-.371.696-.163-.015-.262-.351-.22-.75zm-.514-9.68c.08-.763.483-1.35.9-1.311.418.039.692.688.612 1.451-.08.763-.483 1.35-.9 1.311-.418-.039-.692-.688-.612-1.451zm-1.302 5.315c.041-.4.24-.708.445-.69.204.02.336.359.294.758-.042.4-.241.707-.445.689-.204-.02-.336-.358-.294-.757zM12.669 3.812c.063-.599.358-1.062.659-1.034.301.028.495.536.432 1.135-.062.6-.357 1.062-.659 1.034-.301-.028-.495-.536-.432-1.135z" fill="#AD601D"/></svg>