<svg width="200" height="197" fill="none" xmlns="http://www.w3.org/2000/svg"><g clip-path="url(#clip0)"><path d="M72.305 180.695H64v2.586h8.305v-2.586z" fill="#F03757"/><path d="M64.518 180.695h1.21v.593h-.98a2.712 2.712 0 00-.23-.593zm2.125 0h1.163v.593h-1.163v-.593zm2.076 0h.966c-.009.197-.013.395-.011.593h-.955v-.593z" fill="#EE2A42"/><path d="M64.652 182.984h1.076v.297h-1.21c.05-.098.095-.196.134-.297zm1.99 0h1.164v.297h-1.163v-.297zm2.078 0h1.098c.017.099.034.198.054.297h-1.153v-.297z" fill="#EF2F4C"/><path d="M105.422 175.135h4.879a3.699 3.699 0 013.699 3.697v4.731a3.7 3.7 0 01-3.699 3.698h-4.879v-12.126z" fill="#C9D32E"/><path d="M109.017 175.135h.741c1.217 1.63 1.93 3.625 1.93 6.063 0 2.438-.713 4.432-1.93 6.063h-.741c1.216-1.629 1.929-3.625 1.929-6.063 0-2.438-.712-4.433-1.929-6.063z" fill="#989F25"/><path d="M68.263 179.058a.455.455 0 01.456.456v4.945a.46.46 0 01-.456.458.457.457 0 01-.458-.457v-4.946a.452.452 0 01.283-.421.457.457 0 01.175-.035z" fill="#242E4B"/><path d="M69.674 181.198c0-5.004 3.34-9.06 7.462-9.06 4.12 0 7.462 4.056 7.462 9.06 0 5.006-3.341 9.062-7.462 9.062-4.122 0-7.462-4.056-7.462-9.062z" fill="#C9D32E"/><path d="M77.98 168.489s32.966-3.866 32.966 12.709c0 16.574-32.965 12.709-32.965 12.709v-25.419" fill="#98176E"/><path d="M84.81 180.722h-.01.01zm-.013 0h-.007.007zm-.01 0h-.008.008zm-.01 0c-.004.002-.006.002-.01.002.004 0 .007 0 .01-.002zm-.01.002a1.389 1.389 0 00-1.085.569 1.403 1.403 0 011.96 1.96 1.41 1.41 0 00-1.116.247 1.404 1.404 0 01.24-2.776zm1.446 1.4v.011-.011zm0 .015v.005-.005zm0 .009v.008-.008zm0 .011v.008-.008z" fill="#6C174E"/><path d="M84.8 180.722h-.002.002zm-.01 0h-.003.003zm-.01 0h-.004.003zm1.433 1.413v.004-.004zm0 .009v.004-.004zm0 .012v.003-.003zm0 .011v.002-.002z" fill="#C71F2E"/><path d="M84.81 180.722a1.402 1.402 0 011.403 1.402V182.169a1.402 1.402 0 01-.572 1.084 1.403 1.403 0 00-1.96-1.96 1.401 1.401 0 011.086-.569c.004 0 .007 0 .01-.002h.033" fill="#501039"/><path d="M90.745 180.722h-.01.01zm-.013 0h-.007.007zm-.01 0h-.008.008zm-.01 0c-.003.002-.006.002-.01.002.004 0 .007 0 .01-.002zm-.01.002a1.389 1.389 0 00-1.085.569 1.4 1.4 0 011.823.137 1.402 1.402 0 01.137 1.823 1.41 1.41 0 00-1.116.247 1.404 1.404 0 01.24-2.776zm1.446 1.4v.011-.011zm0 .015v.005-.005zm0 .009v.008-.008zm0 .011v.008-.008z" fill="#6C174E"/><path d="M90.735 180.722h-.003.003zm-.01 0h-.004.004zm-.01 0h-.004.003zm-.012.002h-.001zm1.445 1.411v.004-.004zm0 .009v.004-.004zm0 .012v.003-.003zm0 .011v.002-.002z" fill="#C71F2E"/><path d="M90.745 180.722a1.402 1.402 0 011.403 1.402V182.169a1.403 1.403 0 01-.572 1.084 1.402 1.402 0 00-1.96-1.96 1.4 1.4 0 011.086-.569c.004 0 .007 0 .01-.002h.033" fill="#501039"/><path d="M96.68 180.722h-.01.01zm-.012 0h-.008.008zm-.01 0h-.01.01zm-.01 0a1.396 1.396 0 00-1.096.571 1.394 1.394 0 011.823.136 1.405 1.405 0 01.137 1.824 1.405 1.405 0 10-1.828-.142 1.398 1.398 0 01-.305-1.512 1.404 1.404 0 011.268-.878v.001zm1.435 1.402v.01-.01zm0 .014v.006-.006zm0 .01v.008-.008zm0 .01v.009-.009" fill="#6C174E"/><path d="M96.67 180.722h-.002.002zm-.01 0h-.003.003zm-.011 0h-.002.002zm1.434 1.413v.003-.004.001zm0 .009v.004-.004zm0 .012v.003-.003zm0 .011v.002-.002z" fill="#C71F2E"/><path d="M96.68 180.722a1.393 1.393 0 01.992.41 1.412 1.412 0 01.411.992V182.169a1.4 1.4 0 01-.571 1.084 1.402 1.402 0 00-1.96-1.96 1.41 1.41 0 011.095-.571h.033" fill="#501039"/><path d="M85.86 168.099c9.468 0 24.195 1.694 25.046 12.134v.002c.012.148.021.296.028.444l.002.049a12.545 12.545 0 01-.045 1.617v.002c-.019.196-.044.391-.074.585-1.499 9.756-15.727 11.367-24.956 11.367a82.41 82.41 0 01-5.822-.208v-1.786c1.313.084 3.171.171 5.334.171 7.56 0 18.831-1.06 23.465-6.917a5.005 5.005 0 00-.003-6.206c-4.733-5.974-16.337-7.017-23.858-7.017-2.005 0-3.72.074-4.937.148v-4.127l-.001-.05a81.239 81.239 0 015.822-.208z" fill="#6C174E"/><path d="M107.057 184.609c-.081.097-.166.191-.25.288-.084.095-.167.194-.259.283-.183.176-.36.365-.557.529-.385.339-.793.653-1.22.938a15.544 15.544 0 01-2.719 1.447c-.947.392-1.92.715-2.913.967a33.51 33.51 0 01-2.99.635c-1.002.165-2.01.292-3.02.382-1.01.085-2.021.142-3.033.17-.385.008-.77.012-1.156.012-1.635 0-3.268-.077-4.892-.248 2.011-.147 4.012-.291 6-.507.994-.103 1.985-.22 2.97-.367a57.335 57.335 0 002.942-.491 43.431 43.431 0 002.895-.66 44.126 44.126 0 002.826-.863c1.861-.644 3.656-1.431 5.376-2.515" fill="#DD2BA3"/><path d="M67.806 184.459v.006-.006zm.913 0a.06.06 0 010 .006v-.006zm-.913.006v.006-.006zm.913 0v.006-.006zm0 .008v.003-.003zm-.913 0v.003-.003z" fill="#CFCBD6"/><path d="M68.263 179.058a.458.458 0 01.456.44v4.961a.06.06 0 010 .006v.011a.447.447 0 01-.165.333v-5.076a.29.29 0 00-.403-.27.298.298 0 00-.158.158.298.298 0 00-.022.112v5.076a.453.453 0 01-.165-.336v-4.959a.45.45 0 01.134-.322.449.449 0 01.323-.134" fill="#151922"/><path d="M66.186 179.058a.456.456 0 01.457.456v4.945a.462.462 0 01-.283.424.458.458 0 01-.632-.423v-4.946a.452.452 0 01.283-.421.456.456 0 01.175-.035" fill="#242E4B"/><path d="M65.728 184.459v.006-.006zm.915 0v.006-.006zm-.915.006v.006-.006zm.914 0v.006-.006zm-.914.008v.003-.003zm.914 0v.003-.003z" fill="#CFCBD6"/><path d="M66.186 179.058a.456.456 0 01.457.456V184.476a.449.449 0 01-.167.333v-5.076a.29.29 0 00-.402-.27.298.298 0 00-.158.158.296.296 0 00-.022.112v5.076a.455.455 0 01-.166-.333v-4.962a.452.452 0 01.283-.421.456.456 0 01.175-.035z" fill="#151922"/><path d="M64.232 180.257l.004.006-.004-.005v-.001zm.007.008l.004.006-.004-.005v-.001z" fill="#FBE0BB"/><path d="M77.681 166a2.367 2.367 0 011.668.69 2.36 2.36 0 01.69 1.667v25.682a2.358 2.358 0 01-4.716-.001v-25.68A2.36 2.36 0 0177.68 166z" fill="#242E4B"/><path d="M77.681 166a2.366 2.366 0 011.667.69 2.36 2.36 0 01.691 1.667V194.091a.06.06 0 010 .006v.003a2.35 2.35 0 01-.844 1.745c.059-.161.092-.335.092-.516v-24.401a1.527 1.527 0 00-1.526-1.526h-.16a1.52 1.52 0 00-1.41.942 1.523 1.523 0 00-.117.584v24.4c0 .182.034.356.091.517a2.34 2.34 0 01-.842-1.747v-.019-25.721a2.36 2.36 0 012.358-2.357" fill="#151922"/><path d="M76.856 195.316c.147 0 .427.141.777.218.49.105.93.04.886.246-.031.143-.253.226-.552.226-.127 0-.269-.014-.415-.046-.49-.107-.85-.359-.805-.564.012-.058.05-.08.109-.08" fill="#8882A0"/></g><g clip-path="url(#clip1)"><path fill-rule="evenodd" clip-rule="evenodd" d="M34.322 146.882c21.495 5.552 44.821 8.592 69.19 8.592 21.089 0 41.395-2.278 60.409-6.487-12.567 14.182-36.496 23.772-63.921 23.772-28.763 0-53.678-10.546-65.678-25.877z" fill="#242E4B"/><path fill-rule="evenodd" clip-rule="evenodd" d="M163.921 148.987c-12.567 14.182-36.496 23.772-63.921 23.772v-17.305c1.168.015 2.339.02 3.512.02 21.089 0 41.395-2.277 60.409-6.487" fill="#151922"/><path fill-rule="evenodd" clip-rule="evenodd" d="M113.782 156.621c5.123-.13 9.348 2.346 9.428 5.526.079 3.18-4.015 5.865-9.138 5.993-5.124.13-9.349-2.346-9.429-5.526-.08-3.179 4.015-5.865 9.139-5.993zM86.744 156.621c-5.123-.13-9.348 2.346-9.428 5.526-.08 3.18 4.015 5.865 9.138 5.993 5.124.13 9.348-2.346 9.428-5.526.081-3.179-4.014-5.865-9.138-5.993zM142.256 153.587c5.062-.803 9.576 1.094 10.075 4.237.498 3.14-3.208 6.341-8.269 7.144-5.062.804-9.576-1.095-10.075-4.236-.498-3.14 3.208-6.341 8.269-7.145zM58.27 153.587c-5.062-.803-9.577 1.094-10.075 4.237-.498 3.14 3.207 6.341 8.269 7.144 5.062.804 9.576-1.095 10.074-4.236.499-3.14-3.207-6.341-8.268-7.145zM170.913 147.217c4.937-1.378 9.64-.011 10.495 3.052.855 3.062-2.459 6.668-7.395 8.047-4.936 1.378-9.638.014-10.493-3.052-.855-3.062 2.457-6.668 7.393-8.047zM29.612 147.217c-4.936-1.378-9.639-.011-10.494 3.052-.856 3.062 2.458 6.668 7.394 8.047 4.937 1.378 9.639.014 10.494-3.052.855-3.062-2.458-6.668-7.394-8.047z" fill="#C9D32E"/><path fill-rule="evenodd" clip-rule="evenodd" d="M100 103.612c55.191 0 100 13.167 100 29.384 0 16.218-44.809 29.385-100 29.385-55.192 0-100-13.167-100-29.385 0-16.217 44.808-29.384 100-29.384z" fill="#6C174E"/><path fill-rule="evenodd" clip-rule="evenodd" d="M100 103.612c55.191 0 100 11.619 100 25.931 0 14.312-44.809 25.931-100 25.931-55.192 0-100-11.619-100-25.931 0-14.312 44.808-25.931 100-25.931z" fill="#98176E"/><path d="M27.4 113v-9.116C30.05 46.508 61.8 1.138 100.523 1.138V104.75c-28.85 0-54.863 3.175-73.121 8.25zm146.422-1.343zm-.125-6.477zm-.248-4.729zm-.395-4.844c-.036-.364-.072-.727-.11-1.09.035.363.074.726.11 1.09zm-.143-1.403c-.001-.022-.005-.043-.005-.063.002.02.005.04.005.063zm-.134-1.234a94.82 94.82 0 00-.109-.944l.109.944zm-.131-1.12c-.035-.313-.075-.618-.114-.93.04.312.077.617.114.93zm-.125-1.018c-.016-.092-.021-.188-.035-.278.015.09.021.186.035.278zm-.121-.93zm-1.019-6.615c-8.307-47.213-36.84-82.068-70.74-82.15 33.9.082 62.433 34.937 70.74 82.15" fill="#49415D"/><path d="M100 144.224l.418-.001h.05-.05l-.418.001z" fill="#8B2F73"/><path d="M173.816 113.047c-18.267-5.102-44.354-8.297-73.294-8.297V1.138h.119c33.9.081 62.433 34.936 70.739 82.149.006.038.016.078.022.115.375 2.143.708 4.308.999 6.5.026.217.056.433.084.652.015.09.021.186.035.278.004.028.01.06.01.089.04.311.077.616.114.928.011.06.016.116.022.177l.109.944c.044.391.086.779.128 1.171.001.02.005.04.005.063.011.103.022.209.031.314.035.362.074.725.11 1.09.01.093.015.184.026.276.144 1.511.267 3.035.369 4.567.018.243.031.486.047.73a168.77 168.77 0 01.326 10.476c0 .465-.004.927-.006 1.39" fill="#5B5668"/><path fill-rule="evenodd" clip-rule="evenodd" d="M100.522 90.635c19.558 0 36.954 10.269 47.046 25.651-9.841 15.656-27.266 26.066-47.119 26.066-19.83 0-37.237-10.385-47.085-26.009 10.05-15.444 27.462-25.708 47.158-25.708z" fill="#18374C"/><path fill-rule="evenodd" clip-rule="evenodd" d="M100.522 85.429c18.472 0 33.736 15.265 33.736 33.736v11.726a55.358 55.358 0 01-33.809 11.461 55.367 55.367 0 01-33.663-11.348v-11.839c0-18.555 15.181-33.736 33.736-33.736z" fill="#1E4962"/><path fill-rule="evenodd" clip-rule="evenodd" d="M100.522 81.681c12.314 0 22.49 10.178 22.49 22.49v27.906c0 2.019-.272 3.976-.778 5.842a55.402 55.402 0 01-21.785 4.433 55.418 55.418 0 01-21.611-4.36 22.11 22.11 0 01-.806-5.915v-27.906c0-12.37 10.12-22.49 22.49-22.49z" fill="#fff"/><path fill-rule="evenodd" clip-rule="evenodd" d="M100.522 77.655c10.261 0 18.742 8.48 18.742 18.742v3.888c0 10.307-8.434 18.742-18.741 18.742-10.262 0-18.743-8.481-18.743-18.742v-3.888c0-10.309 8.434-18.742 18.742-18.742z" fill="#BADAE6"/><path fill-rule="evenodd" clip-rule="evenodd" d="M100.522 75.78c10.261 0 18.742 8.482 18.742 18.742v3.888c0 10.308-8.434 18.742-18.741 18.742-10.262 0-18.743-8.48-18.743-18.742v-3.888c0-10.308 8.434-18.742 18.742-18.742z" fill="#fff"/><path fill-rule="evenodd" clip-rule="evenodd" d="M76.084 51.037h48.729c7.422 0 7.42 11.245 0 11.245H76.084c-7.42 0-7.422-11.245 0-11.245z" fill="#F6827E"/><path fill-rule="evenodd" clip-rule="evenodd" d="M76.084 51.037h48.728c2.422 0 4.052 1.197 4.893 2.81-.841 1.614-2.471 2.813-4.893 2.813H76.084c-2.421 0-4.052-1.198-4.893-2.812.841-1.614 2.471-2.81 4.893-2.81z" fill="#F9A993"/><path fill-rule="evenodd" clip-rule="evenodd" d="M76.085 54.036c-3.402 0-3.461 5.247 0 5.247h48.728c3.401 0 3.46-5.247 0-5.247H76.085z" fill="#D56"/><path fill-rule="evenodd" clip-rule="evenodd" d="M100.504 13.865c15.524 0 28.113 12.59 28.113 28.113 0 15.525-12.589 28.114-28.113 28.114S72.391 57.503 72.391 41.978c0-15.523 12.59-28.113 28.113-28.113z" fill="#BAC3B3"/><path fill-rule="evenodd" clip-rule="evenodd" d="M100.504 13.865c12.928 0 23.817 8.73 27.099 20.615-3.282 11.886-14.171 20.618-27.099 20.618s-23.818-8.732-27.1-20.618c3.282-11.885 14.172-20.615 27.1-20.615z" fill="#DBDFD6"/><path fill-rule="evenodd" clip-rule="evenodd" d="M83.879 77.428h33.735v14.454c0 6.56-7.589 11.931-16.868 11.931-8.307 0-16.867-4.756-16.867-11.931V77.428z" fill="#F6827E"/><path d="M102.809 9.671c-1.18-.305-.711-2.113.468-1.808a19.44 19.44 0 0113.415 12.192c.345 1.175-.982 1.764-1.693.817-3.174-4.963-8.198-7.701-13.365-8.157-2.08-.181-4.22-.001-6.227.573-1.175.333-1.687-1.468-.513-1.802 2.221-.634 4.603-.838 6.901-.637a19.466 19.466 0 018.234 2.649c-.439-.387-.897-.75-1.371-1.092a17.79 17.79 0 00-5.849-2.735z" fill="#DBDFD6"/><path fill-rule="evenodd" clip-rule="evenodd" d="M83.879 69.61h33.735v17.986l-6.02 6.02c-6.135 6.135-16.175 6.135-22.31 0l-5.406-5.405v-18.6z" fill="#D56"/><path fill-rule="evenodd" clip-rule="evenodd" d="M124.813 41.98v24.967c0 4.318-1.559 8.444-4.834 11.72l-7.812 7.811c-6.445 6.446-16.992 6.446-23.438 0l-7.812-7.811c-3.257-3.258-4.833-7.388-4.833-11.687v-25c0-13.376 11.081-24.39 24.419-24.364 13.293.024 24.31 11.04 24.31 24.364z" fill="#F89A83"/><path fill-rule="evenodd" clip-rule="evenodd" d="M124.813 38.23v26.843c0 4.317-1.558 8.442-4.834 11.719l-7.812 7.811c-6.445 6.446-16.991 6.446-23.437 0l-7.812-7.811c-3.257-3.257-4.834-7.388-4.834-11.686V38.23c0-13.376 11.082-24.389 24.42-24.365 13.293.025 24.309 11.043 24.309 24.365z" fill="#F9B289"/><path fill-rule="evenodd" clip-rule="evenodd" d="M84.733 54.452a7.498 7.498 0 11-7.497 7.497 7.497 7.497 0 017.496-7.497zM116.761 54.452a7.499 7.499 0 017.498 7.497 7.498 7.498 0 01-14.994 0 7.497 7.497 0 017.496-7.497z" fill="#FBC397"/><path fill-rule="evenodd" clip-rule="evenodd" d="M104.494 46.353c0-.511.422-.937.937-.937.514 0 .938.425.938.937l-.001 13.722h5.435a4.7 4.7 0 014.686 4.685v6.815a1.886 1.886 0 01-1.874 1.873H86.941a1.88 1.88 0 01-1.874-1.873v-6.791c-.04-2.573 2.134-4.71 4.686-4.71h5.371v-13.72c0-.512.42-.938.936-.938.514 0 .938.425.938.937h7.496z" fill="#F89A83"/><path fill-rule="evenodd" clip-rule="evenodd" d="M114.615 70.429c0 1.677-1.404 3.067-3.066 3.067H89.947c-1.67 0-3.067-1.38-3.067-3.067a3.087 3.087 0 013.067-3.067h21.602a3.075 3.075 0 013.066 3.067z" fill="#D56"/><path fill-rule="evenodd" clip-rule="evenodd" d="M100.746 72.854a7.498 7.498 0 010 14.994 7.498 7.498 0 010-14.994z" fill="#FBC397"/><path fill-rule="evenodd" clip-rule="evenodd" d="M108.925 70.383H92.568c0 10.794 16.357 10.795 16.357 0z" fill="#C71851"/><path fill-rule="evenodd" clip-rule="evenodd" d="M107.473 70.383H94.02c0 .714.592 1.302 1.304 1.302h10.845c.718 0 1.304-.586 1.304-1.302z" fill="#fff"/><path fill-rule="evenodd" clip-rule="evenodd" d="M96.173 77.225c3.777 2.317 9.468 1.416 11.751-2.705-3.776-2.318-9.467-1.416-11.75 2.705z" fill="#EE255C"/><path fill-rule="evenodd" clip-rule="evenodd" d="M95.366 76.656c3.006 2.428 7.756 2.428 10.761 0h-10.76z" fill="#fff"/><path fill-rule="evenodd" clip-rule="evenodd" d="M86.88 70.429v-3.067a3.086 3.086 0 013.066-3.066h21.602a3.075 3.075 0 013.067 3.066v3.067H86.879z" fill="#4B302A"/><path fill-rule="evenodd" clip-rule="evenodd" d="M87.53 65.49a3.072 3.072 0 012.416-1.194h21.602c.98 0 1.857.466 2.42 1.187a3.083 3.083 0 01-2.42 1.198H89.946a3.07 3.07 0 01-2.417-1.191z" fill="#70534C"/><path fill-rule="evenodd" clip-rule="evenodd" d="M100.746 42.605c2.052 0 3.748 1.698 3.748 3.749v20.28a3.76 3.76 0 01-3.748 3.749c-2.052 0-3.748-1.697-3.748-3.748V46.354a3.76 3.76 0 013.748-3.75z" fill="#F9B289"/><path fill-rule="evenodd" clip-rule="evenodd" d="M108.243 63.87a2.83 2.83 0 01-2.812 2.811h-9.37a2.82 2.82 0 01-2.81-2.811 2.829 2.829 0 012.81-2.811h9.37a2.82 2.82 0 012.812 2.81z" fill="#F9B289"/><path fill-rule="evenodd" clip-rule="evenodd" d="M100.746 47.835c-1.118 0-2.045.93-2.045 2.044v14.758c0 1.12.92 2.045 2.045 2.045 1.12 0 2.045-.926 2.045-2.045V49.88a2.05 2.05 0 00-2.045-2.044z" fill="#FBC397"/><path fill-rule="evenodd" clip-rule="evenodd" d="M114.511 35.008a.946.946 0 01-.937.937H87.325a.942.942 0 01-.937-.937c0-.512.424-.936.937-.936h26.249a.94.94 0 01.937.936zm-26.372 19.45a.945.945 0 00-.663-1.148l-5.44-1.457a.94.94 0 00-1.147.661.943.943 0 00.662 1.148l5.44 1.459a.94.94 0 001.148-.663zm4.128-3.937a2.058 2.058 0 01-2.503 1.445l-5.926-1.588a2.05 2.05 0 01-1.445-2.503 2.059 2.059 0 012.504-1.447l5.925 1.588a2.051 2.051 0 011.445 2.505zm16.364 0a2.06 2.06 0 011.447-2.505l5.925-1.587a2.052 2.052 0 012.504 1.446 2.057 2.057 0 01-1.446 2.503l-5.926 1.588a2.05 2.05 0 01-2.504-1.445zm11.379 1.97a.946.946 0 00-1.148-.661l-5.44 1.457a.943.943 0 00-.663 1.148.944.944 0 001.148.662l5.441-1.458a.94.94 0 00.662-1.148zm-25.178-9.986a.946.946 0 01-.938.938H82.64a.942.942 0 01-.937-.938c0-.513.424-.937.937-.937h11.254a.94.94 0 01.938.937zm1.874-3.748a.945.945 0 01-.937.937H84.514a.942.942 0 01-.937-.937c0-.513.424-.937.937-.937H95.77a.94.94 0 01.937.937zm7.498 0c0 .512.428.937.938.937h11.254a.943.943 0 00.938-.937.944.944 0 00-.938-.937h-11.254a.94.94 0 00-.938.937zm1.874 3.748c0 .512.428.938.937.938h11.256a.942.942 0 00.936-.938.943.943 0 00-.936-.937h-11.256a.94.94 0 00-.937.937z" fill="#F89A83"/><path fill-rule="evenodd" clip-rule="evenodd" d="M113.568 50.913a1.88 1.88 0 011.875 1.875v1.874a1.888 1.888 0 01-1.875 1.874 1.88 1.88 0 01-1.874-1.874v-1.874c0-1.027.849-1.875 1.874-1.875zM108.632 48.647a2.05 2.05 0 011.445-2.504l5.925-1.588A2.05 2.05 0 01118.506 46a2.057 2.057 0 01-1.445 2.504l-5.925 1.588a2.056 2.056 0 01-2.504-1.445z" fill="#4B302A"/><path fill-rule="evenodd" clip-rule="evenodd" d="M109.899 47.16a.945.945 0 01.662-1.147l5.441-1.458a.942.942 0 011.148.663.945.945 0 01-.663 1.147l-5.441 1.457a.939.939 0 01-1.147-.662z" fill="#70534C"/><path fill-rule="evenodd" clip-rule="evenodd" d="M113.568 50.913a.938.938 0 110 1.876.938.938 0 010-1.876z" fill="#fff"/><path fill-rule="evenodd" clip-rule="evenodd" d="M82.392 46a2.06 2.06 0 012.504-1.446l5.925 1.588a2.058 2.058 0 011.445 2.504 2.05 2.05 0 01-2.503 1.447l-5.925-1.588A2.051 2.051 0 0182.392 46zM87.33 50.912a1.88 1.88 0 011.874 1.875v1.875a1.887 1.887 0 01-1.874 1.874 1.88 1.88 0 01-1.875-1.874v-1.875c0-1.026.849-1.875 1.874-1.875z" fill="#4B302A"/><path fill-rule="evenodd" clip-rule="evenodd" d="M87.33 50.912a.938.938 0 11-.002 1.877.938.938 0 01.002-1.877z" fill="#fff"/><path fill-rule="evenodd" clip-rule="evenodd" d="M80.003 40.276a2.06 2.06 0 01-2.045-2.045v-4.26c0-1.124.92-2.045 2.045-2.045 1.119 0 2.044.926 2.044 2.045v4.26a2.05 2.05 0 01-2.044 2.045zM120.895 40.276a2.06 2.06 0 01-2.045-2.045v-4.26c0-1.124.921-2.045 2.045-2.045 1.118 0 2.044.926 2.044 2.045v4.26a2.05 2.05 0 01-2.044 2.045z" fill="#FBC397"/><path fill-rule="evenodd" clip-rule="evenodd" d="M91 47.16a.946.946 0 00-.664-1.147l-5.44-1.458a.94.94 0 00-1.147.663.943.943 0 00.662 1.147l5.44 1.457A.94.94 0 0091 47.16z" fill="#70534C"/><path fill-rule="evenodd" clip-rule="evenodd" d="M86.626 24.7c0-3.074 2.553-5.622 5.623-5.622h16.4c3.086 0 5.623 2.53 5.623 5.623 0 3.076-2.547 5.622-5.623 5.622h-16.4c-3.093 0-5.623-2.53-5.623-5.622z" fill="#FBC397"/><path fill-rule="evenodd" clip-rule="evenodd" d="M105.432 66.68h-.938a3.76 3.76 0 01-3.748 3.702c-2.039 0-3.727-1.675-3.748-3.71l-.937.009c-1.942 0-3.28-1.978-2.647-3.745a2.82 2.82 0 002.647 1.87h.936c.121 1.99 1.693 3.702 3.749 3.702a3.76 3.76 0 003.748-3.748l.938.046a2.834 2.834 0 002.649-1.876c.632 1.765-.71 3.75-2.649 3.75" fill="#F89A83"/><path fill-rule="evenodd" clip-rule="evenodd" d="M100.522 103.813c3.079 0 5.622 2.545 5.622 5.623v32.625a56.079 56.079 0 01-5.695.291c-1.874 0-3.724-.096-5.55-.277v-32.639c0-3.093 2.53-5.623 5.623-5.623z" fill="#BADAE6"/><path fill-rule="evenodd" clip-rule="evenodd" d="M100.522 104.75a4.686 4.686 0 110 9.372 4.686 4.686 0 010-9.372z" fill="#C71851"/><path fill-rule="evenodd" clip-rule="evenodd" d="M100.522 112.246c2.566 0 4.686 2.121 4.686 4.686v25.217a56.327 56.327 0 01-4.759.203c-1.553 0-3.091-.067-4.612-.192v-25.228a4.7 4.7 0 014.685-4.686z" fill="#EE255C"/><path fill-rule="evenodd" clip-rule="evenodd" d="M100.522 104.75a3.749 3.749 0 110 7.498 3.749 3.749 0 010-7.498z" fill="#EE255C"/><path fill-rule="evenodd" clip-rule="evenodd" d="M89.579 139.417a.727.727 0 00-.605-1.321.727.727 0 00.605 1.321z" fill="#FBFCFC"/><path fill-rule="evenodd" clip-rule="evenodd" d="M26.878 102.746C29.523 45.487 61.148.186 99.764.002L100 0C63.623 0 34.09 49.522 34.09 110.52c0 7.065.396 15.051 1.154 22.199-3.195-1.785-5.561-3.717-6.947-5.752h-.79a165.152 165.152 0 01-.628-8.677v-15.544" fill="#EDECEC"/><path fill-rule="evenodd" clip-rule="evenodd" d="M74.859 19.982c5.385 3.682 4.6 13.008-1.752 20.814-6.352 7.806-15.881 11.155-21.267 7.472-5.384-3.683-4.6-13.008 1.752-20.815 6.352-7.806 15.881-11.154 21.267-7.471zM75.754 49.97c2.9 1.556 3.075 6.23.392 10.433-2.683 4.201-7.215 6.35-10.115 4.795-2.899-1.555-3.075-6.229-.392-10.432 2.683-4.202 7.216-6.351 10.115-4.796" fill="#EDECEC"/><path fill-rule="evenodd" clip-rule="evenodd" d="M164.756 132.719c.758-7.149 1.154-15.137 1.154-22.199C165.91 49.522 136.376 0 100 0l.236.002C140.584.194 173.3 49.642 173.3 110.52c0 5.588-.277 11.079-.808 16.447h-.79c-1.386 2.035-3.751 3.967-6.946 5.752" fill="#D3D2D0"/></g><defs><clipPath id="clip0"><path fill="#fff" transform="rotate(-180 57 98.198)" d="M0 0h50v30.398H0z"/></clipPath><clipPath id="clip1"><path fill="#fff" d="M0 0h200v172.759H0z"/></clipPath></defs></svg>