<svg width="20" height="20" fill="none" xmlns="http://www.w3.org/2000/svg"><g clip-path="url(#clip0)"><path d="M.491 10.504C.491 15.579 5.155 20 10.232 20c3.623 0 6.752-1.663 8.25-4.704.605-1.223-1.888-1.752-2.457-.695-1.165 2.095-3.337 2.45-5.792 2.45-3.696 0-6.867-3.031-6.867-6.547 0-3.637 3.229-6.641 6.867-6.641 1.241 0 2.04.273 2.554.587.63.384.528 1.359.04 1.912-.914 1.04-2.031 2.366-2.031 2.366-1.062 1.062.14 1.045.14 1.045l6.62.003c.738 0 1.619.108 1.826-.087.209-.195.096-1.083.097-1.82l.01-7.375C19.477-.603 18.413.47 18.413.47L16.77 2.165c-.513.528-1.35.527-1.97.128-.931-.598-2.471-1.294-4.568-1.26-5.075 0-9.74 4.39-9.74 9.47z" fill="#fff"/></g><defs><clipPath id="clip0"><path fill="#fff" d="M0 0h20v20H0z"/></clipPath></defs></svg>