<svg width="53" height="40" fill="none" xmlns="http://www.w3.org/2000/svg"><g clip-path="url(#clip0)" fill-rule="evenodd" clip-rule="evenodd"><path d="M46.948 18.55l.682-.15c1.554-.338 2.755-1.423 3.098-2.797.344-1.375-.23-2.802-1.479-3.682a.521.521 0 01-.224-.54.589.589 0 01.441-.425.69.69 0 01.633.147c1.604 1.463 2.34 3.501 1.99 5.51-.397 2.273-2.309 4.114-4.847 4.669l-.294-2.732z" fill="#C1E127"/><path d="M51.31 12.571c.738 1.225 1.022 2.64.778 4.042-.396 2.273-2.308 4.114-4.846 4.669l-.067-.62.62-.691c2.83-1.062 4.408-3.739 3.762-6.384l-.248-1.016z" fill="#9CC720"/><path d="M1.93 5.46c.851-.09 1.66.348 1.95 1.057 1.134 2.773 4.97 4.479 8.297 4.128l.65-1.817-.565-1.498c-.783-2.073-2.665-3.681-5.046-4.308-2.38-.627-4.958-.195-6.908 1.158-.247.17-.359.452-.286.721.072.269.315.477.623.532a4.048 4.048 0 001.285.026z" fill="#9AC421"/><path d="M12.115 9.442c-.793-2.947-4.13-5.573-8.499-5.275 4.861.676 6.944 2.799 8.5 5.275z" fill="#769A2A"/><path d="M10.751 27.7l-1.01-.812c-3.218-2.699-3.449-7.145-.524-10.09 2.708-2.726 3.645-6.478 2.486-9.951l1.335-.476.244.75c.736 2.254.859 4.628.36 6.931-.327 1.51-1.148 2.903-2.362 4.009-1.026.933-1.386 2.286-.94 3.524.447 1.237 1.63 2.16 3.08 2.402-1.03 1.825-1.804 2.183-.686 3.487l-1.983.226z" fill="#9AC421"/><path d="M13.71 13.718c-.021.112-.044.223-.068.335-.327 1.509-1.148 2.902-2.362 4.008-1.026.933-1.386 2.286-.94 3.524.06.168.135.33.221.484l.018.032.002.003.035.06.01.014.011.022.004.005.02.033.016.024.013.02.016.023.022.033.006.01.008.01.016.024.016.022.023.032.001.001.021.029.005.005.039.051.01.014.016.02.023.028.008.01.026.03.004.005.02.024.002.002.027.03.019.021.012.014.023.025.027.03.027.027.003.004.027.027.029.029.022.022.014.013.022.02.03.029.002.003.023.02.01.01.024.021.031.027.004.004.019.016.024.02.015.013.032.026.003.003.028.022.033.027.02.016.02.014.02.015.005.005.033.024.02.014.026.019.018.013.004.002.034.023.02.014.027.019.021.014.035.022.03.019.015.01.026.015.036.022.002.002.032.018.005.004.033.018.036.02.002.002.034.019.003.001.061.033.019.01.025.012.005.003.038.019.023.01.026.013.023.011.004.002.04.018.028.013.018.008.03.014.04.016.027.012.031.012.02.009c.286.113.588.198.903.25-.341.604-.654 1.047-.879 1.417a9.456 9.456 0 01-.113-.061l-.016.283c-.25.459-.321.82-.073 1.291l-.034.606-.208.023c-.205-.063-.614.004-1.074.123l-.272.031-1.01-.812c-1.18-.989-1.957-2.212-2.325-3.51.094.167.177.34.249.516.082.204.279.357.52.403a.78.78 0 00.664-.174c.457-.412.608-1.017.39-1.56l-.159-.392c-.763-1.375-.313-3.044 1.093-3.969a8.525 8.525 0 003.032-3.448l.505-1.036z" fill="#769A2A"/><path d="M35.765 14.572c7.983-.32 14.749 5.11 15.113 12.128.364 7.018-5.812 12.967-13.795 13.287-2.731.109-5.32-.455-7.559-1.525a14.859 14.859 0 01-5.054 1.09c-7.393.296-13.66-4.733-13.997-11.232-.338-6.5 5.382-12.01 12.775-12.306a15.042 15.042 0 015.147.681c2.119-1.245 4.638-2.014 7.37-2.123z" fill="#DA8A38"/><path d="M42.668 15.802c4.652 1.96 7.959 6.05 8.21 10.898.364 7.018-5.812 12.967-13.795 13.287-2.731.109-5.32-.455-7.559-1.525a14.859 14.859 0 01-5.055 1.09c-5.284.212-9.993-2.298-12.372-6.12 3.512 3.634 12.343.873 16.985-3.326 8.96 3.89 20.24-4.76 13.586-14.304z" fill="#CA7626"/><path d="M47.675 35.276c-2.511 2.73-6.288 4.538-10.592 4.71-2.731.11-5.32-.454-7.559-1.524a14.859 14.859 0 01-5.055 1.09c-1.819.073-3.57-.177-5.18-.692l1.2.092c3.182.241 6.343-.64 8.785-2.452l1.194.496c5.8 2.409 12.443 1.582 17.207-1.72z" fill="#AD601D"/><path d="M24.987 19.774c-.94.037-1.684.448-1.66.916.024.47.807.818 1.748.78.941-.037 1.684-.448 1.66-.916-.024-.469-.807-.818-1.748-.78zm-3.534-1.897c-.613.024-1.1.206-1.09.405.01.2.515.341 1.127.317.612-.024 1.1-.206 1.09-.405-.01-.2-.515-.341-1.127-.317zm1.566-.75c3.923-.158 7.186 1.313 7.288 3.284.102 1.97-2.995 3.696-6.918 3.853-3.924.157-7.187-1.313-7.289-3.284-.102-1.97 2.995-3.696 6.918-3.853z" fill="#EB9D4C"/><path d="M34.809 24.685c1.633-.065 2.987.476 3.025 1.208.038.733-1.255 1.38-2.888 1.445-1.633.066-2.987-.475-3.025-1.208-.038-.732 1.255-1.38 2.888-1.445zM19.463 29.895c1.055-.043 1.93.303 1.954.772.024.468-.811.882-1.866.924-1.054.043-1.928-.303-1.953-.771-.024-.469.81-.883 1.865-.925zM14.78 25.488c.822-.033 1.509.32 1.533.789.024.469-.622.875-1.444.908-.822.033-1.509-.32-1.533-.789-.024-.468.622-.875 1.444-.908zM35.438 17.19c.822-.033 1.508.32 1.532.788.025.469-.622.875-1.444.908-.822.033-1.508-.32-1.533-.788-.024-.469.623-.875 1.445-.909z" fill="#CA7626"/><path d="M46.367 34.125c.477-.019.873.162.885.403.013.242-.363.453-.84.472-.476.02-.872-.161-.884-.403-.013-.241.363-.453.84-.472zM23.64 36.24c.635-.025 1.16.164 1.174.423.014.26-.49.49-1.125.516-.635.025-1.161-.164-1.174-.423-.014-.26.49-.49 1.125-.516zm15.048-3.009c1.213-.048 2.225.45 2.26 1.113.033.662-.922 1.24-2.135 1.288-1.214.049-2.225-.45-2.26-1.112-.034-.663.922-1.24 2.135-1.289zm-8.623-.83c.636-.026 1.164.217 1.18.54.017.325-.484.608-1.119.633-.635.026-1.163-.216-1.18-.54-.017-.324.484-.608 1.12-.633zm16.852-4.33c.953-.038 1.745.32 1.77.798.025.478-.727.897-1.68.935-.952.038-1.744-.318-1.77-.797-.024-.478.728-.897 1.68-.935z" fill="#AD601D"/><path d="M19.779 1.82c-.725.102-1.274.63-1.324 1.275-.193 2.517-2.339 4.584-5.173 4.982l-1.579-1.23.066-1.351c.09-1.87 1.21-3.583 3.004-4.591 1.792-1.008 4.032-1.185 6-.474.249.09.416.299.428.535.012.236-.132.458-.371.567a3.36 3.36 0 01-1.051.287z" fill="#9AC421"/><path d="M12.454 7.205c-.134-2.591 1.911-5.444 5.59-6.101-3.823 1.561-4.972 3.74-5.59 6.101z" fill="#769A2A"/></g><defs><clipPath id="clip0"><path fill="#fff" d="M0 0h52.174v40H0z"/></clipPath></defs></svg>