<svg width="1001" height="601" fill="none" xmlns="http://www.w3.org/2000/svg"><ellipse cx="36.73" cy="68.419" rx="1.503" ry="1.5" fill="#fff" fill-opacity=".8"/><ellipse cx="66.276" cy="203.39" rx="1.503" ry="1.5" fill="#fff" fill-opacity=".8"/><ellipse cx="64.003" cy="553.863" rx="1.503" ry="1.5" fill="#fff" fill-opacity=".8"/><ellipse cx="1.503" cy="227.209" rx="1.503" ry="1.5" fill="#fff" fill-opacity=".8"/><ellipse cx="142.412" cy="322.483" rx="1.503" ry="1.5" fill="#fff" fill-opacity=".8"/><ellipse cx="369.685" cy="228.343" rx="1.503" ry="1.5" fill="#fff" fill-opacity=".8"/><ellipse cx="394.685" cy="287.322" rx="1.503" ry="1.5" fill="#fff" fill-opacity=".8"/><ellipse cx="509.457" cy="235.148" rx="1.503" ry="1.5" fill="#fff" fill-opacity=".8"/><ellipse cx="257.185" cy="1.5" rx="1.503" ry="1.5" fill="#fff" fill-opacity=".8"/><ellipse cx="533.32" cy="463.126" rx="1.503" ry="1.5" fill="#fff" fill-opacity=".8"/><ellipse cx="969.685" cy="427.965" rx="1.503" ry="1.5" fill="#fff" fill-opacity=".8"/><ellipse cx="720.82" cy="138.74" rx="1.503" ry="1.5" fill="#fff" fill-opacity=".8"/><ellipse cx="968.549" cy="23.05" rx="1.503" ry="1.5" fill="#fff" fill-opacity=".8"/><ellipse cx="774.23" cy="92.237" rx="1.503" ry="1.5" fill="#fff" fill-opacity=".8"/><ellipse cx="999.23" cy="68.419" rx="1.503" ry="1.5" fill="#fff" fill-opacity=".8"/><ellipse cx="833.32" cy="201.122" rx="1.503" ry="1.5" fill="#fff" fill-opacity=".8"/><ellipse cx="807.185" cy="316.812" rx="1.503" ry="1.5" fill="#fff" fill-opacity=".8"/><ellipse cx="676.503" cy="371.254" rx="1.503" ry="1.5" fill="#fff" fill-opacity=".8"/><ellipse cx="809.457" cy="8.305" rx="1.503" ry="1.5" fill="#fff" fill-opacity=".8"/><ellipse cx="990.139" cy="599.232" rx="1.503" ry="1.5" fill="#fff" fill-opacity=".8"/></svg>