<svg width="1000" height="600" fill="none" xmlns="http://www.w3.org/2000/svg"><ellipse cx="53.064" cy="35.917" rx=".485" ry=".5" fill="#fff" fill-opacity=".7"/><ellipse cx="371.567" cy="34.875" rx=".485" ry=".5" fill="#fff" fill-opacity=".7"/><ellipse cx="66.208" cy="73.417" rx=".485" ry=".5" fill="#fff" fill-opacity=".7"/><ellipse cx="384.712" cy="72.375" rx=".485" ry=".5" fill="#fff" fill-opacity=".7"/><ellipse cx="84.408" cy="41.125" rx=".485" ry=".5" fill="#fff" fill-opacity=".7"/><ellipse cx="402.912" cy="40.083" rx=".485" ry=".5" fill="#fff" fill-opacity=".7"/><ellipse cx="59.13" cy="53.625" rx=".485" ry=".5" fill="#fff" fill-opacity=".7"/><ellipse cx="377.634" cy="52.583" rx=".485" ry=".5" fill="#fff" fill-opacity=".7"/><ellipse cx="65.197" cy="11.958" rx=".485" ry=".5" fill="#fff" fill-opacity=".7"/><ellipse cx="21.719" cy="10.917" rx=".485" ry=".5" fill="#fff" fill-opacity=".7"/><ellipse cx="17.674" cy="42.167" rx=".485" ry=".5" fill="#fff" fill-opacity=".7"/><ellipse cx="336.178" cy="41.125" rx=".485" ry=".5" fill="#fff" fill-opacity=".7"/><ellipse cx="46.997" cy="26.542" rx=".485" ry=".5" fill="#fff" fill-opacity=".7"/><ellipse cx="365.5" cy="25.5" rx=".485" ry=".5" fill="#fff" fill-opacity=".7"/><ellipse cx="112.72" cy="55.708" rx=".485" ry=".5" fill="#fff" fill-opacity=".7"/><ellipse cx="431.224" cy="54.667" rx=".485" ry=".5" fill="#fff" fill-opacity=".7"/><ellipse cx="137.998" cy="54.667" rx=".485" ry=".5" fill="#fff" fill-opacity=".7"/><ellipse cx="456.501" cy="53.625" rx=".485" ry=".5" fill="#fff" fill-opacity=".7"/><ellipse cx="522.224" cy="27.583" rx=".485" ry=".5" fill="#fff" fill-opacity=".7"/><ellipse cx="158.22" cy="35.917" rx=".485" ry=".5" fill="#fff" fill-opacity=".7"/><ellipse cx="476.724" cy="34.875" rx=".485" ry=".5" fill="#fff" fill-opacity=".7"/><ellipse cx="542.447" cy="8.833" rx=".485" ry=".5" fill="#fff" fill-opacity=".7"/><ellipse cx="210.799" cy="34.875" rx=".485" ry=".5" fill="#fff" fill-opacity=".7"/><ellipse cx="529.302" cy="33.833" rx=".485" ry=".5" fill="#fff" fill-opacity=".7"/><ellipse cx="595.025" cy="7.792" rx=".485" ry=".5" fill="#fff" fill-opacity=".7"/><ellipse cx="269.444" cy="20.292" rx=".485" ry=".5" fill="#fff" fill-opacity=".7"/><ellipse cx="217.877" cy="81.75" rx=".485" ry=".5" fill="#fff" fill-opacity=".7"/><ellipse cx="536.38" cy="80.708" rx=".485" ry=".5" fill="#fff" fill-opacity=".7"/><ellipse cx="602.103" cy="54.667" rx=".485" ry=".5" fill="#fff" fill-opacity=".7"/><ellipse cx="662.771" cy="6.75" rx=".485" ry=".5" fill="#fff" fill-opacity=".7"/><ellipse cx="527.28" cy="307.792" rx=".485" ry=".5" fill="#fff" fill-opacity=".7"/><ellipse cx="275.511" cy="55.708" rx=".485" ry=".5" fill="#fff" fill-opacity=".7"/><ellipse cx="594.014" cy="54.667" rx=".485" ry=".5" fill="#fff" fill-opacity=".7"/><ellipse cx="584.914" cy="281.75" rx=".485" ry=".5" fill="#fff" fill-opacity=".7"/><ellipse cx="896.34" cy="308.833" rx=".485" ry=".5" fill="#fff" fill-opacity=".7"/><ellipse cx="971.163" cy="328.625" rx=".485" ry=".5" fill="#fff" fill-opacity=".7"/><ellipse cx="999.474" cy="288" rx=".485" ry=".5" fill="#fff" fill-opacity=".7"/><ellipse cx="189.565" cy="144.25" rx=".485" ry=".5" fill="#fff" fill-opacity=".7"/><ellipse cx="508.069" cy="143.208" rx=".485" ry=".5" fill="#fff" fill-opacity=".7"/><ellipse cx="706.249" cy="180.708" rx=".485" ry=".5" fill="#fff" fill-opacity=".7"/><ellipse cx="498.969" cy="370.292" rx=".485" ry=".5" fill="#fff" fill-opacity=".7"/><ellipse cx="399.879" cy="341.125" rx=".485" ry=".5" fill="#fff" fill-opacity=".7"/><ellipse cx="597.048" cy="497.375" rx=".485" ry=".5" fill="#fff" fill-opacity=".7"/><ellipse cx="510.091" cy="542.167" rx=".485" ry=".5" fill="#fff" fill-opacity=".7"/><ellipse cx="715.349" cy="522.375" rx=".485" ry=".5" fill="#fff" fill-opacity=".7"/><ellipse cx="401.901" cy="464.042" rx=".485" ry=".5" fill="#fff" fill-opacity=".7"/><ellipse cx="305.844" cy="320.292" rx=".485" ry=".5" fill="#fff" fill-opacity=".7"/><ellipse cx="844.773" cy="431.75" rx=".485" ry=".5" fill="#fff" fill-opacity=".7"/><ellipse cx="259.333" cy="478.625" rx=".485" ry=".5" fill="#fff" fill-opacity=".7"/><ellipse cx="117.775" cy="332.792" rx=".485" ry=".5" fill="#fff" fill-opacity=".7"/><ellipse cx="190.576" cy="235.917" rx=".485" ry=".5" fill="#fff" fill-opacity=".7"/><ellipse cx="509.08" cy="234.875" rx=".485" ry=".5" fill="#fff" fill-opacity=".7"/><ellipse cx="707.26" cy="272.375" rx=".485" ry=".5" fill="#fff" fill-opacity=".7"/><ellipse cx="714.338" cy="232.792" rx=".485" ry=".5" fill="#fff" fill-opacity=".7"/><ellipse cx="732.538" cy="420.292" rx=".485" ry=".5" fill="#fff" fill-opacity=".7"/><ellipse cx="499.98" cy="461.958" rx=".485" ry=".5" fill="#fff" fill-opacity=".7"/><ellipse cx="402.912" cy="555.708" rx=".485" ry=".5" fill="#fff" fill-opacity=".7"/><ellipse cx="306.855" cy="411.958" rx=".485" ry=".5" fill="#fff" fill-opacity=".7"/><ellipse cx="845.784" cy="523.417" rx=".485" ry=".5" fill="#fff" fill-opacity=".7"/><ellipse cx="260.344" cy="570.292" rx=".485" ry=".5" fill="#fff" fill-opacity=".7"/><ellipse cx="176.421" cy="583.833" rx=".485" ry=".5" fill="#fff" fill-opacity=".7"/><ellipse cx="118.787" cy="424.458" rx=".485" ry=".5" fill="#fff" fill-opacity=".7"/><ellipse cx="137.998" cy="236.958" rx=".485" ry=".5" fill="#fff" fill-opacity=".7"/><ellipse cx="456.501" cy="235.917" rx=".485" ry=".5" fill="#fff" fill-opacity=".7"/><ellipse cx="654.682" cy="273.417" rx=".485" ry=".5" fill="#fff" fill-opacity=".7"/><ellipse cx="666.815" cy="309.875" rx=".485" ry=".5" fill="#fff" fill-opacity=".7"/><ellipse cx="705.238" cy="331.75" rx=".485" ry=".5" fill="#fff" fill-opacity=".7"/><ellipse cx="653.67" cy="348.417" rx=".485" ry=".5" fill="#fff" fill-opacity=".7"/><ellipse cx="966.107" cy="300.5" rx=".485" ry=".5" fill="#fff" fill-opacity=".7"/><ellipse cx="911.507" cy="271.333" rx=".485" ry=".5" fill="#fff" fill-opacity=".7"/><ellipse cx="679.96" cy="421.333" rx=".485" ry=".5" fill="#fff" fill-opacity=".7"/><ellipse cx="66.208" cy="425.5" rx=".485" ry=".5" fill="#fff" fill-opacity=".7"/><ellipse cx="226.977" cy="171.333" rx=".485" ry=".5" fill="#fff" fill-opacity=".7"/><ellipse cx="545.48" cy="170.292" rx=".485" ry=".5" fill="#fff" fill-opacity=".7"/><ellipse cx="743.66" cy="207.792" rx=".485" ry=".5" fill="#fff" fill-opacity=".7"/><ellipse cx="846.795" cy="21.333" rx=".485" ry=".5" fill="#fff" fill-opacity=".7"/><ellipse cx="768.938" cy="355.708" rx=".485" ry=".5" fill="#fff" fill-opacity=".7"/><ellipse cx="872.073" cy="169.25" rx=".485" ry=".5" fill="#fff" fill-opacity=".7"/><ellipse cx="671.871" cy="96.333" rx=".485" ry=".5" fill="#fff" fill-opacity=".7"/><ellipse cx="536.38" cy="397.375" rx=".485" ry=".5" fill="#fff" fill-opacity=".7"/><ellipse cx="437.29" cy="368.208" rx=".485" ry=".5" fill="#fff" fill-opacity=".7"/><ellipse cx="634.459" cy="524.458" rx=".485" ry=".5" fill="#fff" fill-opacity=".7"/><ellipse cx="752.76" cy="549.458" rx=".485" ry=".5" fill="#fff" fill-opacity=".7"/><ellipse cx="439.312" cy="491.125" rx=".485" ry=".5" fill="#fff" fill-opacity=".7"/><ellipse cx="343.256" cy="347.375" rx=".485" ry=".5" fill="#fff" fill-opacity=".7"/><ellipse cx="422.123" cy="429.667" rx=".485" ry=".5" fill="#fff" fill-opacity=".7"/><ellipse cx="882.184" cy="458.833" rx=".485" ry=".5" fill="#fff" fill-opacity=".7"/><ellipse cx="296.744" cy="505.708" rx=".485" ry=".5" fill="#fff" fill-opacity=".7"/><ellipse cx="155.187" cy="359.875" rx=".485" ry=".5" fill="#fff" fill-opacity=".7"/><ellipse cx="249.221" cy="254.667" rx=".485" ry=".5" fill="#fff" fill-opacity=".7"/><ellipse cx="202.71" cy="413" rx=".485" ry=".5" fill="#fff" fill-opacity=".7"/><ellipse cx="45.986" cy="522.375" rx=".485" ry=".5" fill="#fff" fill-opacity=".7"/><ellipse cx="567.725" cy="253.625" rx=".485" ry=".5" fill="#fff" fill-opacity=".7"/><ellipse cx="765.905" cy="291.125" rx=".485" ry=".5" fill="#fff" fill-opacity=".7"/><ellipse cx="869.039" cy="104.667" rx=".485" ry=".5" fill="#fff" fill-opacity=".7"/><ellipse cx="945.885" cy="91.125" rx=".485" ry=".5" fill="#fff" fill-opacity=".7"/><ellipse cx="791.183" cy="439.042" rx=".485" ry=".5" fill="#fff" fill-opacity=".7"/><ellipse cx="365.5" cy="430.708" rx=".485" ry=".5" fill="#fff" fill-opacity=".7"/><ellipse cx="904.429" cy="542.167" rx=".485" ry=".5" fill="#fff" fill-opacity=".7"/><ellipse cx="318.989" cy="589.042" rx=".485" ry=".5" fill="#fff" fill-opacity=".7"/><ellipse cx="177.432" cy="443.208" rx=".485" ry=".5" fill="#fff" fill-opacity=".7"/><ellipse cx="182.487" cy="479.667" rx=".485" ry=".5" fill="#fff" fill-opacity=".7"/><ellipse cx="20.708" cy="552.583" rx=".485" ry=".5" fill="#fff" fill-opacity=".7"/><ellipse cx="79.353" cy="513" rx=".485" ry=".5" fill="#fff" fill-opacity=".7"/><ellipse cx="225.966" cy="209.875" rx=".485" ry=".5" fill="#fff" fill-opacity=".7"/><ellipse cx="544.469" cy="208.833" rx=".485" ry=".5" fill="#fff" fill-opacity=".7"/><ellipse cx="742.649" cy="246.333" rx=".485" ry=".5" fill="#fff" fill-opacity=".7"/><ellipse cx="780.061" cy="192.167" rx=".485" ry=".5" fill="#fff" fill-opacity=".7"/><ellipse cx="845.784" cy="59.875" rx=".485" ry=".5" fill="#fff" fill-opacity=".7"/><ellipse cx="767.927" cy="394.25" rx=".485" ry=".5" fill="#fff" fill-opacity=".7"/><ellipse cx="670.859" cy="134.875" rx=".485" ry=".5" fill="#fff" fill-opacity=".7"/><ellipse cx="535.369" cy="435.917" rx=".485" ry=".5" fill="#fff" fill-opacity=".7"/><ellipse cx="633.448" cy="563" rx=".485" ry=".5" fill="#fff" fill-opacity=".7"/><ellipse cx="438.301" cy="529.667" rx=".485" ry=".5" fill="#fff" fill-opacity=".7"/><ellipse cx="451.446" cy="599.458" rx=".485" ry=".5" fill="#fff" fill-opacity=".7"/><ellipse cx="342.245" cy="385.917" rx=".485" ry=".5" fill="#fff" fill-opacity=".7"/><ellipse cx="881.173" cy="497.375" rx=".485" ry=".5" fill="#fff" fill-opacity=".7"/><ellipse cx="295.733" cy="544.25" rx=".485" ry=".5" fill="#fff" fill-opacity=".7"/><ellipse cx="154.176" cy="398.417" rx=".485" ry=".5" fill="#fff" fill-opacity=".7"/><ellipse cx="300.789" cy="164.042" rx=".485" ry=".5" fill="#fff" fill-opacity=".7"/><ellipse cx="256.299" cy="156.75" rx=".485" ry=".5" fill="#fff" fill-opacity=".7"/><ellipse cx="619.292" cy="163" rx=".485" ry=".5" fill="#fff" fill-opacity=".7"/><ellipse cx="817.472" cy="200.5" rx=".485" ry=".5" fill="#fff" fill-opacity=".7"/><ellipse cx="764.894" cy="149.458" rx=".485" ry=".5" fill="#fff" fill-opacity=".7"/><ellipse cx="920.607" cy="14.042" rx=".485" ry=".5" fill="#fff" fill-opacity=".7"/><ellipse cx="842.75" cy="348.417" rx=".485" ry=".5" fill="#fff" fill-opacity=".7"/><ellipse cx="945.885" cy="161.958" rx=".485" ry=".5" fill="#fff" fill-opacity=".7"/><ellipse cx="977.23" cy="127.583" rx=".485" ry=".5" fill="#fff" fill-opacity=".7"/><ellipse cx="745.682" cy="89.042" rx=".485" ry=".5" fill="#fff" fill-opacity=".7"/><ellipse cx="811.405" cy="101.542" rx=".485" ry=".5" fill="#fff" fill-opacity=".7"/><ellipse cx="610.192" cy="390.083" rx=".485" ry=".5" fill="#fff" fill-opacity=".7"/><ellipse cx="417.068" cy="340.083" rx=".485" ry=".5" fill="#fff" fill-opacity=".7"/><ellipse cx="955.996" cy="451.542" rx=".485" ry=".5" fill="#fff" fill-opacity=".7"/><ellipse cx="228.999" cy="352.583" rx=".485" ry=".5" fill="#fff" fill-opacity=".7"/><ellipse cx="182.487" cy="510.917" rx=".485" ry=".5" fill="#fff" fill-opacity=".7"/><ellipse cx="146.087" cy="496.333" rx=".485" ry=".5" fill="#fff" fill-opacity=".7"/><ellipse cx="119.798" cy="543.208" rx=".485" ry=".5" fill="#fff" fill-opacity=".7"/><ellipse cx="84.408" cy="580.708" rx=".485" ry=".5" fill="#fff" fill-opacity=".7"/><ellipse cx="255.288" cy="122.375" rx=".485" ry=".5" fill="#fff" fill-opacity=".7"/><ellipse cx="573.792" cy="121.333" rx=".485" ry=".5" fill="#fff" fill-opacity=".7"/><ellipse cx="596.036" cy="135.917" rx=".485" ry=".5" fill="#fff" fill-opacity=".7"/><ellipse cx="700.182" cy="47.375" rx=".485" ry=".5" fill="#fff" fill-opacity=".7"/><ellipse cx="564.692" cy="348.417" rx=".485" ry=".5" fill="#fff" fill-opacity=".7"/><ellipse cx="465.602" cy="319.25" rx=".485" ry=".5" fill="#fff" fill-opacity=".7"/><ellipse cx="371.567" cy="298.417" rx=".485" ry=".5" fill="#fff" fill-opacity=".7"/><ellipse cx="910.495" cy="409.875" rx=".485" ry=".5" fill="#fff" fill-opacity=".7"/><ellipse cx="325.056" cy="456.75" rx=".485" ry=".5" fill="#fff" fill-opacity=".7"/><ellipse cx="863.984" cy="568.208" rx=".485" ry=".5" fill="#fff" fill-opacity=".7"/><ellipse cx="183.499" cy="310.917" rx=".485" ry=".5" fill="#fff" fill-opacity=".7"/><ellipse cx="270.455" cy="186.958" rx=".485" ry=".5" fill="#fff" fill-opacity=".7"/><ellipse cx="588.958" cy="185.917" rx=".485" ry=".5" fill="#fff" fill-opacity=".7"/><ellipse cx="787.139" cy="223.417" rx=".485" ry=".5" fill="#fff" fill-opacity=".7"/><ellipse cx="781.072" cy="265.083" rx=".485" ry=".5" fill="#fff" fill-opacity=".7"/><ellipse cx="829.606" cy="264.042" rx=".485" ry=".5" fill="#fff" fill-opacity=".7"/><ellipse cx="890.273" cy="36.958" rx=".485" ry=".5" fill="#fff" fill-opacity=".7"/><ellipse cx="812.417" cy="371.333" rx=".485" ry=".5" fill="#fff" fill-opacity=".7"/><ellipse cx="915.551" cy="184.875" rx=".485" ry=".5" fill="#fff" fill-opacity=".7"/><ellipse cx="715.349" cy="111.958" rx=".485" ry=".5" fill="#fff" fill-opacity=".7"/><ellipse cx="579.858" cy="413" rx=".485" ry=".5" fill="#fff" fill-opacity=".7"/><ellipse cx="482.791" cy="506.75" rx=".485" ry=".5" fill="#fff" fill-opacity=".7"/><ellipse cx="386.734" cy="363" rx=".485" ry=".5" fill="#fff" fill-opacity=".7"/><ellipse cx="465.602" cy="445.292" rx=".485" ry=".5" fill="#fff" fill-opacity=".7"/><ellipse cx="563.68" cy="572.375" rx=".485" ry=".5" fill="#fff" fill-opacity=".7"/><ellipse cx="925.662" cy="474.458" rx=".485" ry=".5" fill="#fff" fill-opacity=".7"/><ellipse cx="340.222" cy="521.333" rx=".485" ry=".5" fill="#fff" fill-opacity=".7"/><ellipse cx="198.665" cy="375.5" rx=".485" ry=".5" fill="#fff" fill-opacity=".7"/><ellipse cx="41.941" cy="484.875" rx=".485" ry=".5" fill="#fff" fill-opacity=".7"/><ellipse cx="242.144" cy="90.083" rx=".485" ry=".5" fill="#fff" fill-opacity=".7"/><ellipse cx="560.647" cy="89.042" rx=".485" ry=".5" fill="#fff" fill-opacity=".7"/><ellipse cx="626.37" cy="63" rx=".485" ry=".5" fill="#fff" fill-opacity=".7"/><ellipse cx="687.037" cy="15.083" rx=".485" ry=".5" fill="#fff" fill-opacity=".7"/><ellipse cx="551.547" cy="316.125" rx=".485" ry=".5" fill="#fff" fill-opacity=".7"/><ellipse cx="358.423" cy="266.125" rx=".485" ry=".5" fill="#fff" fill-opacity=".7"/><ellipse cx="311.911" cy="424.458" rx=".485" ry=".5" fill="#fff" fill-opacity=".7"/><ellipse cx="850.839" cy="535.917" rx=".485" ry=".5" fill="#fff" fill-opacity=".7"/><ellipse cx="170.354" cy="278.625" rx=".485" ry=".5" fill="#fff" fill-opacity=".7"/><ellipse cx="312.922" cy="91.125" rx=".485" ry=".5" fill="#fff" fill-opacity=".7"/><ellipse cx="631.426" cy="90.083" rx=".485" ry=".5" fill="#fff" fill-opacity=".7"/><ellipse cx="757.816" cy="16.125" rx=".485" ry=".5" fill="#fff" fill-opacity=".7"/><ellipse cx="622.326" cy="317.167" rx=".485" ry=".5" fill="#fff" fill-opacity=".7"/><ellipse cx="933.751" cy="344.25" rx=".485" ry=".5" fill="#fff" fill-opacity=".7"/><ellipse cx="977.23" cy="383.833" rx=".485" ry=".5" fill="#fff" fill-opacity=".7"/><ellipse cx="647.604" cy="465.083" rx=".485" ry=".5" fill="#fff" fill-opacity=".7"/><ellipse cx="765.905" cy="490.083" rx=".485" ry=".5" fill="#fff" fill-opacity=".7"/><ellipse cx="276.522" cy="450.5" rx=".485" ry=".5" fill="#fff" fill-opacity=".7"/><ellipse cx="241.132" cy="279.667" rx=".485" ry=".5" fill="#fff" fill-opacity=".7"/><ellipse cx="194.621" cy="438" rx=".485" ry=".5" fill="#fff" fill-opacity=".7"/><ellipse cx="37.897" cy="547.375" rx=".485" ry=".5" fill="#fff" fill-opacity=".7"/><ellipse cx="96.542" cy="507.792" rx=".485" ry=".5" fill="#fff" fill-opacity=".7"/><ellipse cx="243.155" cy="52.583" rx=".485" ry=".5" fill="#fff" fill-opacity=".7"/><ellipse cx="561.658" cy="51.542" rx=".485" ry=".5" fill="#fff" fill-opacity=".7"/><ellipse cx="627.381" cy="25.5" rx=".485" ry=".5" fill="#fff" fill-opacity=".7"/><ellipse cx="552.558" cy="278.625" rx=".485" ry=".5" fill="#fff" fill-opacity=".7"/><ellipse cx="197.654" cy="103.625" rx=".485" ry=".5" fill="#fff" fill-opacity=".7"/><ellipse cx="516.158" cy="102.583" rx=".485" ry=".5" fill="#fff" fill-opacity=".7"/><ellipse cx="507.058" cy="329.667" rx=".485" ry=".5" fill="#fff" fill-opacity=".7"/><ellipse cx="407.968" cy="300.5" rx=".485" ry=".5" fill="#fff" fill-opacity=".7"/><ellipse cx="313.933" cy="279.667" rx=".485" ry=".5" fill="#fff" fill-opacity=".7"/><ellipse cx="852.862" cy="391.125" rx=".485" ry=".5" fill="#fff" fill-opacity=".7"/><ellipse cx="267.422" cy="438" rx=".485" ry=".5" fill="#fff" fill-opacity=".7"/><ellipse cx="125.864" cy="292.167" rx=".485" ry=".5" fill="#fff" fill-opacity=".7"/><ellipse cx="130.92" cy="27.583" rx=".485" ry=".5" fill="#fff" fill-opacity=".7"/><ellipse cx="449.424" cy="26.542" rx=".485" ry=".5" fill="#fff" fill-opacity=".7"/><ellipse cx="515.147" cy=".5" rx=".485" ry=".5" fill="#fff" fill-opacity=".7"/><ellipse cx="157.209" cy="13" rx=".485" ry=".5" fill="#fff" fill-opacity=".7"/><ellipse cx="190.576" cy="9.875" rx=".485" ry=".5" fill="#fff" fill-opacity=".7"/><ellipse cx="100.586" cy="3.625" rx=".485" ry=".5" fill="#fff" fill-opacity=".7"/><ellipse cx="136.987" cy="77.583" rx=".485" ry=".5" fill="#fff" fill-opacity=".7"/><ellipse cx="455.49" cy="76.542" rx=".485" ry=".5" fill="#fff" fill-opacity=".7"/><ellipse cx="521.213" cy="50.5" rx=".485" ry=".5" fill="#fff" fill-opacity=".7"/><ellipse cx="147.098" cy="72.375" rx=".485" ry=".5" fill="#fff" fill-opacity=".7"/><ellipse cx="465.602" cy="71.333" rx=".485" ry=".5" fill="#fff" fill-opacity=".7"/><ellipse cx="531.325" cy="45.292" rx=".485" ry=".5" fill="#fff" fill-opacity=".7"/><ellipse cx="148.109" cy="98.417" rx=".485" ry=".5" fill="#fff" fill-opacity=".7"/><ellipse cx="466.613" cy="97.375" rx=".485" ry=".5" fill="#fff" fill-opacity=".7"/><ellipse cx="532.336" cy="71.333" rx=".485" ry=".5" fill="#fff" fill-opacity=".7"/><ellipse cx="76.32" cy="286.958" rx=".485" ry=".5" fill="#fff" fill-opacity=".7"/><ellipse cx="179.454" cy="82.792" rx=".485" ry=".5" fill="#fff" fill-opacity=".7"/><ellipse cx="497.958" cy="81.75" rx=".485" ry=".5" fill="#fff" fill-opacity=".7"/><ellipse cx="563.68" cy="55.708" rx=".485" ry=".5" fill="#fff" fill-opacity=".7"/><ellipse cx="488.857" cy="308.833" rx=".485" ry=".5" fill="#fff" fill-opacity=".7"/><ellipse cx="180.465" cy="52.583" rx=".485" ry=".5" fill="#fff" fill-opacity=".7"/><ellipse cx="498.969" cy="51.542" rx=".485" ry=".5" fill="#fff" fill-opacity=".7"/><ellipse cx="564.692" cy="25.5" rx=".485" ry=".5" fill="#fff" fill-opacity=".7"/><ellipse cx="489.869" cy="278.625" rx=".485" ry=".5" fill="#fff" fill-opacity=".7"/><ellipse cx="111.709" cy="103.625" rx=".485" ry=".5" fill="#fff" fill-opacity=".7"/><ellipse cx="430.212" cy="102.583" rx=".485" ry=".5" fill="#fff" fill-opacity=".7"/><ellipse cx="39.919" cy="292.167" rx=".485" ry=".5" fill="#fff" fill-opacity=".7"/><ellipse cx="147.098" cy="122.375" rx=".485" ry=".5" fill="#fff" fill-opacity=".7"/><ellipse cx="465.602" cy="121.333" rx=".485" ry=".5" fill="#fff" fill-opacity=".7"/><ellipse cx="75.308" cy="310.917" rx=".485" ry=".5" fill="#fff" fill-opacity=".7"/><ellipse cx="120.809" cy="156.75" rx=".485" ry=".5" fill="#fff" fill-opacity=".7"/><ellipse cx="439.312" cy="155.708" rx=".485" ry=".5" fill="#fff" fill-opacity=".7"/><ellipse cx="637.492" cy="193.208" rx=".485" ry=".5" fill="#fff" fill-opacity=".7"/><ellipse cx="943.862" cy="224.458" rx=".485" ry=".5" fill="#fff" fill-opacity=".7"/><ellipse cx="882.184" cy="225.5" rx=".485" ry=".5" fill="#fff" fill-opacity=".7"/><ellipse cx="49.019" cy="345.292" rx=".485" ry=".5" fill="#fff" fill-opacity=".7"/><ellipse cx="119.798" cy="133.833" rx=".485" ry=".5" fill="#fff" fill-opacity=".7"/><ellipse cx="438.301" cy="132.792" rx=".485" ry=".5" fill="#fff" fill-opacity=".7"/><ellipse cx="48.008" cy="322.375" rx=".485" ry=".5" fill="#fff" fill-opacity=".7"/><ellipse cx="168.332" cy="155.708" rx=".485" ry=".5" fill="#fff" fill-opacity=".7"/><ellipse cx="486.835" cy="154.667" rx=".485" ry=".5" fill="#fff" fill-opacity=".7"/><ellipse cx="685.015" cy="192.167" rx=".485" ry=".5" fill="#fff" fill-opacity=".7"/><ellipse cx="477.735" cy="381.75" rx=".485" ry=".5" fill="#fff" fill-opacity=".7"/><ellipse cx="575.814" cy="508.833" rx=".485" ry=".5" fill="#fff" fill-opacity=".7"/><ellipse cx="488.857" cy="553.625" rx=".485" ry=".5" fill="#fff" fill-opacity=".7"/><ellipse cx="380.667" cy="475.5" rx=".485" ry=".5" fill="#fff" fill-opacity=".7"/><ellipse cx="284.611" cy="331.75" rx=".485" ry=".5" fill="#fff" fill-opacity=".7"/><ellipse cx="823.539" cy="443.208" rx=".485" ry=".5" fill="#fff" fill-opacity=".7"/><ellipse cx="238.099" cy="490.083" rx=".485" ry=".5" fill="#fff" fill-opacity=".7"/><ellipse cx="96.542" cy="344.25" rx=".485" ry=".5" fill="#fff" fill-opacity=".7"/><ellipse cx="83.397" cy="108.833" rx=".485" ry=".5" fill="#fff" fill-opacity=".7"/><ellipse cx="401.901" cy="107.792" rx=".485" ry=".5" fill="#fff" fill-opacity=".7"/><ellipse cx="11.608" cy="297.375" rx=".485" ry=".5" fill="#fff" fill-opacity=".7"/><ellipse cx="73.286" cy="199.458" rx=".485" ry=".5" fill="#fff" fill-opacity=".7"/><ellipse cx="391.79" cy="198.417" rx=".485" ry=".5" fill="#fff" fill-opacity=".7"/><ellipse cx="289.666" cy="201.542" rx=".485" ry=".5" fill="#fff" fill-opacity=".7"/><ellipse cx="1.496" cy="388" rx=".485" ry=".5" fill="#fff" fill-opacity=".7"/><ellipse cx="74.297" cy="255.708" rx=".485" ry=".5" fill="#fff" fill-opacity=".7"/><ellipse cx="392.801" cy="254.667" rx=".485" ry=".5" fill="#fff" fill-opacity=".7"/><ellipse cx="346.289" cy="413" rx=".485" ry=".5" fill="#fff" fill-opacity=".7"/><ellipse cx="885.217" cy="524.458" rx=".485" ry=".5" fill="#fff" fill-opacity=".7"/><ellipse cx="2.508" cy="444.25" rx=".485" ry=".5" fill="#fff" fill-opacity=".7"/><ellipse cx="79.353" cy="149.458" rx=".485" ry=".5" fill="#fff" fill-opacity=".7"/><ellipse cx="397.856" cy="148.417" rx=".485" ry=".5" fill="#fff" fill-opacity=".7"/><ellipse cx="7.563" cy="338" rx=".485" ry=".5" fill="#fff" fill-opacity=".7"/><ellipse cx="125.864" cy="200.5" rx=".485" ry=".5" fill="#fff" fill-opacity=".7"/><ellipse cx="444.368" cy="199.458" rx=".485" ry=".5" fill="#fff" fill-opacity=".7"/><ellipse cx="642.548" cy="236.958" rx=".485" ry=".5" fill="#fff" fill-opacity=".7"/><ellipse cx="953.974" cy="264.042" rx=".485" ry=".5" fill="#fff" fill-opacity=".7"/><ellipse cx="990.374" cy="247.375" rx=".485" ry=".5" fill="#fff" fill-opacity=".7"/><ellipse cx="971.163" cy="208.833" rx=".485" ry=".5" fill="#fff" fill-opacity=".7"/><ellipse cx="989.363" cy="188" rx=".485" ry=".5" fill="#fff" fill-opacity=".7"/><ellipse cx="667.826" cy="384.875" rx=".485" ry=".5" fill="#fff" fill-opacity=".7"/><ellipse cx="54.075" cy="389.042" rx=".485" ry=".5" fill="#fff" fill-opacity=".7"/><ellipse cx="173.387" cy="185.917" rx=".485" ry=".5" fill="#fff" fill-opacity=".7"/><ellipse cx="491.891" cy="184.875" rx=".485" ry=".5" fill="#fff" fill-opacity=".7"/><ellipse cx="690.071" cy="222.375" rx=".485" ry=".5" fill="#fff" fill-opacity=".7"/><ellipse cx="715.349" cy="370.292" rx=".485" ry=".5" fill="#fff" fill-opacity=".7"/><ellipse cx="818.483" cy="183.833" rx=".485" ry=".5" fill="#fff" fill-opacity=".7"/><ellipse cx="482.791" cy="411.958" rx=".485" ry=".5" fill="#fff" fill-opacity=".7"/><ellipse cx="580.87" cy="539.042" rx=".485" ry=".5" fill="#fff" fill-opacity=".7"/><ellipse cx="385.723" cy="505.708" rx=".485" ry=".5" fill="#fff" fill-opacity=".7"/><ellipse cx="289.666" cy="361.958" rx=".485" ry=".5" fill="#fff" fill-opacity=".7"/><ellipse cx="828.595" cy="473.417" rx=".485" ry=".5" fill="#fff" fill-opacity=".7"/><ellipse cx="243.155" cy="520.292" rx=".485" ry=".5" fill="#fff" fill-opacity=".7"/><ellipse cx="195.632" cy="543.208" rx=".485" ry=".5" fill="#fff" fill-opacity=".7"/><ellipse cx="101.598" cy="374.458" rx=".485" ry=".5" fill="#fff" fill-opacity=".7"/><ellipse cx="60.142" cy="97.375" rx=".485" ry=".5" fill="#fff" fill-opacity=".7"/><ellipse cx="378.645" cy="96.333" rx=".485" ry=".5" fill="#fff" fill-opacity=".7"/><ellipse cx="30.819" cy="92.167" rx=".485" ry=".5" fill="#fff" fill-opacity=".7"/><ellipse cx="349.323" cy="91.125" rx=".485" ry=".5" fill="#fff" fill-opacity=".7"/><ellipse cx="46.997" cy="71.333" rx=".485" ry=".5" fill="#fff" fill-opacity=".7"/><ellipse cx="365.5" cy="70.292" rx=".485" ry=".5" fill="#fff" fill-opacity=".7"/><ellipse cx="32.841" cy="129.667" rx=".485" ry=".5" fill="#fff" fill-opacity=".7"/><ellipse cx="351.345" cy="128.625" rx=".485" ry=".5" fill="#fff" fill-opacity=".7"/><ellipse cx="31.83" cy="188" rx=".485" ry=".5" fill="#fff" fill-opacity=".7"/><ellipse cx="350.334" cy="186.958" rx=".485" ry=".5" fill="#fff" fill-opacity=".7"/><ellipse cx="22.73" cy="234.875" rx=".485" ry=".5" fill="#fff" fill-opacity=".7"/><ellipse cx="341.234" cy="233.833" rx=".485" ry=".5" fill="#fff" fill-opacity=".7"/><ellipse cx="72.275" cy="172.375" rx=".485" ry=".5" fill="#fff" fill-opacity=".7"/><ellipse cx="390.779" cy="171.333" rx=".485" ry=".5" fill="#fff" fill-opacity=".7"/><ellipse cx=".485" cy="360.917" rx=".485" ry=".5" fill="#fff" fill-opacity=".7"/><ellipse cx="29.808" cy="163" rx=".485" ry=".5" fill="#fff" fill-opacity=".7"/><ellipse cx="348.311" cy="161.958" rx=".485" ry=".5" fill="#fff" fill-opacity=".7"/></svg>