<svg width="880" height="529" fill="none" xmlns="http://www.w3.org/2000/svg"><circle cx="32" cy="60" r="1" fill="#fff" fill-opacity=".8"/><circle cx="58" cy="179" r="1" fill="#fff" fill-opacity=".8"/><circle cx="56" cy="488" r="1" fill="#fff" fill-opacity=".8"/><circle cx="1" cy="200" r="1" fill="#fff" fill-opacity=".8"/><circle cx="125" cy="284" r="1" fill="#fff" fill-opacity=".8"/><circle cx="325" cy="201" r="1" fill="#fff" fill-opacity=".8"/><circle cx="347" cy="253" r="1" fill="#fff" fill-opacity=".8"/><circle cx="448" cy="207" r="1" fill="#fff" fill-opacity=".8"/><circle cx="226" cy="1" r="1" fill="#fff" fill-opacity=".8"/><circle cx="469" cy="408" r="1" fill="#fff" fill-opacity=".8"/><circle cx="853" cy="377" r="1" fill="#fff" fill-opacity=".8"/><circle cx="634" cy="122" r="1" fill="#fff" fill-opacity=".8"/><circle cx="852" cy="20" r="1" fill="#fff" fill-opacity=".8"/><circle cx="681" cy="81" r="1" fill="#fff" fill-opacity=".8"/><circle cx="879" cy="60" r="1" fill="#fff" fill-opacity=".8"/><circle cx="733" cy="177" r="1" fill="#fff" fill-opacity=".8"/><circle cx="710" cy="279" r="1" fill="#fff" fill-opacity=".8"/><circle cx="595" cy="327" r="1" fill="#fff" fill-opacity=".8"/><circle cx="712" cy="7" r="1" fill="#fff" fill-opacity=".8"/><circle cx="871" cy="528" r="1" fill="#fff" fill-opacity=".8"/></svg>