<svg width="1000" height="600" fill="none" xmlns="http://www.w3.org/2000/svg"><g clip-path="url(#clip0)" fill-rule="evenodd" clip-rule="evenodd"><path d="M649.589 166.609l-1.741 2.216c-.435.554-1.128.763-1.775.536l-2.42-.852c-.671-.236-1.083-.874-1.036-1.602l.088-1.357a1.553 1.553 0 00-.36-1.128l-.709-.859a1.596 1.596 0 01-.219-1.7l1.266-2.808c.219-.486.605-.834 1.118-.934l4.522-.88c.459-.09.883-.022 1.259.25.375.271.593.654.641 1.125l.058.576c.022.211.074.388.17.575l.757 1.47a1.626 1.626 0 01-.198 1.796l-.684.838c-.252.307-.375.65-.377 1.046l-.003.67a1.612 1.612 0 01-.357 1.022" fill="#EBE8F6"/><path d="M649.815 166.625l-1.761 2.158c-.44.539-1.139.73-1.789.49l-2.438-.902a1.584 1.584 0 01-1.04-1.614l.092-1.344a1.552 1.552 0 00-.359-1.128l-.712-.869a1.574 1.574 0 01-.216-1.691l1.174-2.555c.22-.479.616-.794 1.13-.901l4.669-.967a1.54 1.54 0 011.267.277c.378.279.597.663.644 1.131l.057.573c.021.211.073.387.17.575l.759 1.476a1.586 1.586 0 01-.205 1.778l-.692.814c-.254.3-.379.637-.382 1.03l-.005.664a1.55 1.55 0 01-.363 1.005z" fill="#B1ADC6"/><path d="M649.815 166.626l-1.76 2.158c-.44.539-1.14.73-1.79.49l-1.971-.73 1.595-.021a1.516 1.516 0 001.145-.522l.8-.894c.368-.411.491-.939.344-1.471l-.238-.862a1.57 1.57 0 01.918-1.876l1.281-.525a1.562 1.562 0 00.95-1.743l-.007-.033.38.738a1.582 1.582 0 01-.205 1.777l-.692.815a1.551 1.551 0 00-.382 1.03l-.005.664c-.003.382-.121.71-.363 1.005" fill="#C4C1D6"/><path d="M642.787 166.757l.092-1.344a1.55 1.55 0 00-.359-1.128l-.712-.869a1.574 1.574 0 01-.216-1.691l1.174-2.556c.22-.478.616-.794 1.13-.9l4.669-.967a1.54 1.54 0 011.267.277c.378.279.597.663.644 1.131l.057.573-.314-.203a1.041 1.041 0 00-1.298.123l-.729.696a1.007 1.007 0 01-.332.214l-2.141.868a1.056 1.056 0 00-.639 1.196l.348 1.7c.081.397-.056.781-.371 1.036l-2.27 1.844" fill="#8785A8"/><path d="M643.991 163.74c-.402.136-.82-.027-.934-.366-.114-.339.119-.724.52-.861.402-.137.819.027.934.366.114.338-.119.724-.52.861zm1.575-3.549c-.543.185-1.09.016-1.223-.378-.133-.393.2-.862.742-1.047.543-.185 1.091-.016 1.223.378.133.393-.2.862-.742 1.047" fill="#6F6E90"/><path d="M647.192 162.889c-.406.138-.836-.05-.961-.421-.125-.37.103-.783.509-.921.406-.139.836.05.961.421.125.37-.103.783-.509.921zm-1.818 4.685c-.337.115-.697-.048-.804-.364-.106-.316.081-.665.419-.78.337-.115.697.048.803.364.107.316-.081.665-.418.78zm4.614-6.524c-.292.099-.596-.021-.68-.268-.083-.247.086-.528.378-.627.292-.1.596.02.679.267.084.247-.085.528-.377.628z" fill="#8785A8"/><path d="M649.123 165.557c-.233.079-.466.01-.522-.155-.055-.165.088-.363.321-.442.232-.079.466-.01.521.155.056.165-.088.362-.32.442zm-1.036 2.718c-.205.07-.409.015-.455-.122-.046-.138.082-.306.288-.375.205-.07.409-.016.455.121.046.138-.083.306-.288.376zm1.657-4.371c.169-.058.274-.197.236-.311-.039-.115-.207-.161-.375-.104-.169.058-.275.197-.236.312.038.114.206.16.375.103z" fill="#B1ADC6"/></g><g clip-path="url(#clip1)" fill-rule="evenodd" clip-rule="evenodd"><path d="M323.076 133.502l-2.224 1.725c-.556.431-1.28.466-1.853.088l-2.147-1.413c-.595-.392-.842-1.11-.621-1.804l.411-1.294a1.55 1.55 0 00-.078-1.181l-.482-1.005a1.591 1.591 0 01.196-1.7l1.905-2.415c.33-.418.788-.661 1.311-.633l4.605.245c.467.025.863.194 1.162.548.3.355.42.778.353 1.246l-.082.573c-.03.21-.022.394.027.598l.382 1.609a1.62 1.62 0 01-.625 1.693l-.866.645a1.6 1.6 0 00-.617.923l-.165.649a1.595 1.595 0 01-.592.903" fill="#EBE8F6"/><path d="M323.292 133.573l-2.23 1.664a1.576 1.576 0 01-1.856.04l-2.151-1.467a1.584 1.584 0 01-.623-1.816l.413-1.28c.13-.405.104-.797-.078-1.181l-.483-1.015a1.572 1.572 0 01.197-1.692l1.755-2.191c.329-.41.79-.62 1.314-.599l4.769.197a1.55 1.55 0 011.165.577c.299.361.419.787.352 1.253l-.081.569c-.031.209-.022.392.026.598l.383 1.615a1.576 1.576 0 01-.627 1.673l-.868.621a1.552 1.552 0 00-.619.905l-.164.643c-.095.37-.289.658-.594.886z" fill="#B1ADC6"/><path d="M323.292 133.574l-2.23 1.663a1.575 1.575 0 01-1.856.04l-1.74-1.186 1.556.367c.442.104.861.027 1.237-.228l.992-.671c.456-.31.703-.791.688-1.343l-.024-.893a1.563 1.563 0 011.344-1.596l1.37-.197a1.555 1.555 0 001.341-1.459l.002-.033.192.808a1.575 1.575 0 01-.627 1.672l-.868.622a1.546 1.546 0 00-.619.905l-.164.642c-.095.37-.289.659-.594.887" fill="#C4C1D6"/><path d="M316.432 131.994l.413-1.28c.13-.405.104-.797-.078-1.181l-.483-1.015a1.572 1.572 0 01.197-1.692l1.755-2.191c.329-.41.79-.62 1.314-.599l4.769.197a1.55 1.55 0 011.165.577c.299.361.419.787.353 1.253l-.082.569-.256-.273a1.045 1.045 0 00-1.291-.197l-.876.498a.995.995 0 01-.374.127l-2.288.321c-.51.072-.887.489-.909 1.004l-.071 1.732a1.032 1.032 0 01-.609.914l-2.649 1.236" fill="#8785A8"/><path d="M318.327 129.361c-.423.035-.789-.226-.819-.582-.029-.356.29-.672.712-.707.423-.036.79.225.819.581.03.356-.289.672-.712.708zm2.384-3.057c-.572.047-1.063-.25-1.098-.663-.034-.414.402-.788.974-.835.571-.048 1.062.249 1.097.663.034.414-.402.788-.973.835" fill="#6F6E90"/><path d="M321.642 129.314c-.428.036-.8-.251-.833-.641-.032-.39.289-.734.716-.77.428-.035.8.252.833.642.032.389-.289.734-.716.769zm-2.893 4.099c-.355.03-.666-.216-.693-.548-.028-.332.238-.624.594-.654.355-.029.666.216.693.548.027.332-.239.625-.594.654zm6.051-5.202c-.308.025-.574-.165-.596-.425-.021-.259.211-.491.518-.516.308-.026.574.164.596.424.021.26-.211.491-.518.517z" fill="#8785A8"/><path d="M322.876 132.369c-.245.021-.455-.103-.469-.277-.015-.173.172-.33.417-.35.245-.02.456.104.47.277.014.173-.173.33-.418.35zm-1.659 2.383c-.217.018-.402-.085-.413-.229-.012-.144.153-.276.369-.294.216-.018.401.085.413.229.012.145-.153.276-.369.294zm2.66-3.834c.178-.015.314-.124.304-.244-.01-.121-.162-.206-.34-.191-.177.014-.314.124-.304.244.01.12.163.206.34.191z" fill="#B1ADC6"/></g><g clip-path="url(#clip2)" fill-rule="evenodd" clip-rule="evenodd"><path d="M228.817 324.957l-1.023 2.628c-.255.657-.858 1.059-1.542 1.03l-2.563-.108c-.71-.03-1.29-.52-1.456-1.231l-.309-1.323a1.548 1.548 0 00-.672-.975l-.927-.615a1.593 1.593 0 01-.703-1.562l.397-3.056c.068-.53.336-.975.799-1.221l4.071-2.161c.413-.219.838-.278 1.276-.128.438.151.758.453.94.889l.223.534c.082.196.183.35.329.501l1.151 1.186c.461.475.587 1.154.331 1.776l-.411 1.001a1.61 1.61 0 00-.057 1.111l.191.642c.11.369.095.722-.045 1.082" fill="#EBE8F6"/><path d="M229.038 324.907l-1.058 2.578a1.577 1.577 0 01-1.571.991l-2.593-.152a1.58 1.58 0 01-1.463-1.241l-.302-1.312a1.55 1.55 0 00-.671-.975l-.934-.623a1.575 1.575 0 01-.697-1.555l.383-2.788c.071-.521.359-.939.819-1.191l4.186-2.288c.412-.225.852-.26 1.294-.104.442.156.763.46.943.895l.221.531c.082.195.183.348.329.5l1.155 1.191c.462.477.584 1.15.32 1.76l-.426.982c-.156.36-.178.719-.067 1.096l.187.637c.108.367.091.715-.055 1.068z" fill="#B1ADC6"/><path d="M229.039 324.907l-1.059 2.578a1.576 1.576 0 01-1.57.991l-2.098-.123 1.521-.486a1.52 1.52 0 00.943-.833l.506-1.088a1.54 1.54 0 00-.097-1.509l-.478-.755a1.571 1.571 0 01.334-2.063l1.074-.876a1.563 1.563 0 00.402-1.944l-.015-.03.577.596c.462.476.584 1.149.32 1.76l-.426.981c-.156.36-.178.719-.067 1.096l.188.638c.108.366.09.714-.055 1.067" fill="#C4C1D6"/><path d="M222.353 327.083l-.302-1.312a1.55 1.55 0 00-.671-.975l-.934-.623a1.575 1.575 0 01-.697-1.555l.383-2.788a1.56 1.56 0 01.819-1.191l4.186-2.288c.412-.225.852-.26 1.294-.104.442.156.763.46.943.894l.221.532-.359-.103a1.042 1.042 0 00-1.206.496l-.496.879a1.016 1.016 0 01-.255.302l-1.796 1.455a1.053 1.053 0 00-.265 1.33l.826 1.525a1.04 1.04 0 01-.054 1.1l-1.637 2.426" fill="#8785A8"/><path d="M222.629 323.845c-.345.248-.792.213-.999-.077-.208-.291-.097-.728.248-.976.344-.247.791-.213.998.078.208.291.097.727-.247.975zm.477-3.854c-.465.335-1.038.333-1.279-.005-.241-.338-.059-.884.406-1.219.466-.335 1.039-.333 1.28.005.241.338.059.883-.407 1.219" fill="#6F6E90"/><path d="M225.445 322.097c-.348.25-.814.196-1.041-.123-.227-.318-.129-.779.219-1.03.348-.25.815-.196 1.042.122.227.319.129.78-.22 1.031zm-.38 5.012c-.29.209-.681.158-.875-.113-.193-.271-.115-.66.174-.869.29-.208.681-.157.875.114.193.271.115.66-.174.868zm2.521-7.588c-.25.18-.576.155-.727-.058-.151-.212-.071-.53.179-.71.251-.18.576-.155.728.058.151.212.071.53-.18.71z" fill="#8785A8"/><path d="M228.066 324.086c-.199.144-.443.146-.544.004-.101-.141-.021-.372.179-.516.199-.144.443-.145.544-.004.101.141.021.373-.179.516zm-.202 2.903c-.176.127-.387.134-.471.016-.084-.118-.01-.316.166-.443.176-.127.387-.134.471-.016.084.118.01.316-.166.443zm.317-4.666c.145-.104.205-.268.135-.366-.07-.098-.244-.093-.389.011-.144.104-.205.268-.135.366.07.099.244.094.389-.011z" fill="#B1ADC6"/></g><g clip-path="url(#clip3)" fill-rule="evenodd" clip-rule="evenodd"><path d="M7.042 430.777l-2.593 1.095c-.648.274-1.355.121-1.811-.391l-1.708-1.92c-.474-.532-.527-1.29-.135-1.905l.731-1.144c.231-.362.307-.749.23-1.163l-.206-1.095a1.592 1.592 0 01.627-1.594l2.462-1.844c.426-.32.932-.437 1.43-.276l4.382 1.423c.444.145.783.41.98.83.198.419.205.86.02 1.295l-.227.533a1.537 1.537 0 00-.129.586l-.046 1.654a1.62 1.62 0 01-1.04 1.475l-1.002.402a1.6 1.6 0 00-.835.733l-.325.585c-.188.336-.45.571-.805.721" fill="#EBE8F6"/><path d="M7.232 430.901l-2.582 1.035a1.572 1.572 0 01-1.802-.44l-1.699-1.971a1.587 1.587 0 01-.132-1.917l.728-1.132a1.55 1.55 0 00.23-1.162l-.205-1.106a1.573 1.573 0 01.626-1.584l2.26-1.668a1.552 1.552 0 011.424-.24l4.553 1.418c.447.139.78.431.976.858.196.426.202.869.017 1.302l-.226.529a1.535 1.535 0 00-.128.585l-.048 1.661a1.579 1.579 0 01-1.036 1.456l-.998.377a1.544 1.544 0 00-.831.716l-.325.579a1.54 1.54 0 01-.802.704z" fill="#B1ADC6"/><path d="M7.232 430.902l-2.582 1.035a1.573 1.573 0 01-1.803-.44l-1.373-1.595 1.407.756c.4.214.824.247 1.253.098l1.13-.394c.522-.182.884-.584 1.012-1.121l.207-.87a1.564 1.564 0 011.709-1.197l1.374.162a1.556 1.556 0 001.671-1.065l.01-.032-.023.83a1.58 1.58 0 01-1.036 1.457l-.998.377a1.544 1.544 0 00-.832.716l-.324.579a1.544 1.544 0 01-.802.704" fill="#C4C1D6"/><path d="M1.017 427.608l.728-1.132a1.55 1.55 0 00.23-1.162l-.205-1.106a1.573 1.573 0 01.627-1.584l2.26-1.668a1.552 1.552 0 011.423-.24l4.553 1.418c.448.139.78.431.976.858.196.426.202.869.017 1.302l-.226.529-.176-.33a1.043 1.043 0 00-1.196-.522l-.974.255a.989.989 0 01-.394.027l-2.292-.278a1.05 1.05 0 00-1.136.736l-.515 1.656c-.12.388-.426.657-.824.728l-2.876.513" fill="#8785A8"/><path d="M3.525 425.551c-.417-.075-.704-.421-.64-.773.063-.352.452-.576.87-.501.417.075.704.421.64.773-.063.351-.453.576-.87.501zm3.09-2.342c-.564-.102-.962-.515-.888-.924.073-.409.59-.658 1.155-.557.564.102.961.515.888.924-.074.409-.591.658-1.155.557" fill="#6F6E90"/><path d="M6.737 426.359c-.421-.076-.707-.45-.638-.835.07-.385.468-.636.89-.56.422.076.708.45.638.835-.07.385-.468.635-.89.56zm-3.85 3.218c-.35-.063-.587-.38-.528-.708.06-.328.391-.543.742-.48.351.063.588.38.528.708-.059.328-.391.543-.742.48zm7.184-3.473c-.303-.054-.512-.306-.465-.563.046-.257.33-.421.633-.366.303.054.512.306.465.563-.046.257-.33.421-.633.366z" fill="#8785A8"/><path d="M7.141 429.631c-.242-.044-.413-.218-.382-.389.031-.171.252-.275.494-.231.242.043.413.217.382.388-.031.171-.252.275-.494.232zm-2.217 1.876c-.213-.038-.365-.185-.34-.327.026-.143.22-.228.433-.189.213.038.365.185.34.327-.026.143-.22.228-.433.189zm3.558-3.022c.175.032.335-.039.356-.158.022-.119-.103-.241-.279-.272-.175-.032-.335.039-.356.158-.021.119.104.241.279.272z" fill="#B1ADC6"/></g><g clip-path="url(#clip4)" fill-rule="evenodd" clip-rule="evenodd"><path d="M310.225 597.652l-2.575 1.138c-.643.284-1.353.143-1.817-.362l-1.739-1.891c-.482-.525-.548-1.282-.165-1.903l.712-1.156c.225-.366.295-.753.21-1.166l-.223-1.092a1.59 1.59 0 01.601-1.604l2.432-1.884c.421-.327.924-.452 1.425-.299l4.404 1.351c.447.137.79.397.995.813.204.417.218.857.04 1.295l-.218.536c-.08.197-.117.378-.119.588l-.02 1.655a1.623 1.623 0 01-1.015 1.493l-.996.417a1.605 1.605 0 00-.823.747l-.316.59a1.6 1.6 0 01-.793.734" fill="#EBE8F6"/><path d="M310.417 597.773l-2.564 1.077a1.572 1.572 0 01-1.81-.41l-1.73-1.943a1.587 1.587 0 01-.164-1.915l.71-1.143a1.55 1.55 0 00.211-1.166l-.223-1.102c-.124-.617.1-1.213.601-1.595l2.233-1.704a1.554 1.554 0 011.419-.264l4.575 1.344c.45.132.786.418.99.841.203.424.216.866.038 1.302l-.217.533c-.08.195-.116.376-.119.587l-.021 1.661a1.578 1.578 0 01-1.012 1.473l-.992.394a1.543 1.543 0 00-.819.729l-.316.584a1.54 1.54 0 01-.79.717z" fill="#B1ADC6"/><path d="M310.417 597.774l-2.565 1.077a1.573 1.573 0 01-1.809-.41l-1.4-1.572 1.42.732c.403.208.828.234 1.254.078l1.125-.413c.517-.19.873-.598.992-1.137l.193-.873a1.564 1.564 0 011.689-1.225l1.377.139a1.556 1.556 0 001.654-1.092l.01-.032-.011.831a1.578 1.578 0 01-1.012 1.473l-.992.394a1.539 1.539 0 00-.819.729l-.316.584a1.54 1.54 0 01-.79.717" fill="#C4C1D6"/><path d="M304.149 594.582l.71-1.143a1.55 1.55 0 00.211-1.166l-.222-1.102c-.125-.617.1-1.213.6-1.595l2.233-1.704a1.554 1.554 0 011.419-.264l4.575 1.344c.45.132.787.418.99.841.203.424.216.866.039 1.302l-.218.533-.182-.327a1.042 1.042 0 00-1.203-.503l-.97.272a1.028 1.028 0 01-.394.033l-2.296-.241a1.05 1.05 0 00-1.124.755l-.488 1.664c-.114.39-.415.664-.812.741l-2.868.56" fill="#8785A8"/><path d="M306.624 592.484c-.419-.068-.711-.409-.653-.762.057-.353.443-.583.862-.515.418.068.71.409.653.762-.058.353-.444.583-.862.515zm3.051-2.392c-.566-.092-.97-.499-.903-.909.067-.41.58-.668 1.146-.576.565.092.97.499.903.909-.067.41-.58.668-1.146.576" fill="#6F6E90"/><path d="M309.849 593.239c-.423-.068-.715-.437-.652-.823.063-.387.458-.644.881-.575.423.069.715.438.651.824-.063.386-.457.643-.88.574zm-3.798 3.281c-.351-.057-.593-.37-.539-.699.054-.329.382-.549.734-.492.352.058.594.371.54.7-.054.329-.383.549-.735.491zm7.127-3.589c-.304-.05-.517-.299-.475-.556.043-.258.323-.426.628-.376.304.049.516.298.474.555-.042.258-.323.426-.627.377z" fill="#8785A8"/><path d="M310.306 596.504c-.243-.039-.417-.21-.388-.382.028-.172.247-.279.489-.239.243.039.417.21.389.382-.028.172-.248.279-.49.239zm-2.187 1.913c-.213-.035-.368-.179-.345-.322.024-.143.216-.231.43-.196s.369.179.345.322c-.023.143-.216.231-.43.196zm3.509-3.08c.176.029.334-.045.354-.164.019-.119-.108-.239-.284-.268-.175-.028-.334.045-.353.164-.02.12.107.239.283.268z" fill="#B1ADC6"/></g><g clip-path="url(#clip5)" fill-rule="evenodd" clip-rule="evenodd"><path d="M747.648 509.516l-1.8 2.165c-.449.541-1.149.731-1.79.487l-2.401-.916c-.665-.253-1.061-.901-.996-1.627l.123-1.352a1.545 1.545 0 00-.331-1.136l-.687-.877a1.586 1.586 0 01-.176-1.702l1.339-2.77c.232-.48.627-.817 1.143-.903l4.549-.756c.462-.077.885.002 1.253.284.369.281.578.669.613 1.14l.044.577c.016.211.064.389.155.578l.72 1.489a1.618 1.618 0 01-.244 1.787l-.706.818c-.26.3-.392.639-.404 1.035l-.021.668a1.605 1.605 0 01-.383 1.011" fill="#EBE8F6"/><path d="M747.874 509.539l-1.818 2.106a1.576 1.576 0 01-1.804.44l-2.417-.966a1.581 1.581 0 01-.999-1.639l.126-1.339c.04-.423-.07-.801-.331-1.136l-.69-.887a1.571 1.571 0 01-.173-1.694l1.241-2.519a1.556 1.556 0 011.154-.869l4.698-.839c.462-.083.891.023 1.262.311s.58.678.615 1.147l.043.573c.015.211.063.388.155.578l.722 1.495a1.576 1.576 0 01-.251 1.768l-.713.795a1.543 1.543 0 00-.409 1.017l-.023.664a1.546 1.546 0 01-.388.994z" fill="#B1ADC6"/><path d="M747.874 509.539l-1.818 2.107a1.576 1.576 0 01-1.804.44l-1.954-.781 1.598.021c.453.006.846-.16 1.158-.49l.824-.87c.379-.401.516-.924.383-1.46l-.217-.866a1.563 1.563 0 01.968-1.849l1.295-.489a1.556 1.556 0 00.995-1.715l-.005-.033.361.748a1.575 1.575 0 01-.251 1.768l-.713.795a1.543 1.543 0 00-.409 1.017l-.022.663c-.013.382-.14.706-.389.994" fill="#C4C1D6"/><path d="M740.836 509.48l.126-1.339c.04-.423-.07-.801-.331-1.136l-.69-.887a1.571 1.571 0 01-.173-1.694l1.241-2.519a1.558 1.558 0 011.154-.869l4.698-.839c.462-.083.891.023 1.262.311s.58.678.615 1.147l.043.573-.309-.211a1.044 1.044 0 00-1.302.087l-.749.676a1.009 1.009 0 01-.338.205l-2.164.808c-.482.18-.761.669-.671 1.177l.305 1.706c.071.399-.076.778-.398 1.025l-2.319 1.779" fill="#8785A8"/><path d="M742.118 506.499c-.406.126-.82-.049-.925-.39-.106-.341.137-.719.542-.845.406-.126.82.049.925.39.106.341-.137.72-.542.845zm1.667-3.5c-.548.17-1.091-.013-1.214-.41-.123-.397.222-.856.77-1.026.548-.17 1.092.014 1.214.411.123.396-.222.855-.77 1.025" fill="#6F6E90"/><path d="M745.344 505.738c-.41.127-.836-.073-.951-.446-.116-.374.123-.78.533-.907.41-.127.835.073.951.446.115.374-.123.779-.533.907zm-1.94 4.627c-.341.106-.697-.066-.795-.384-.099-.319.098-.662.439-.768.34-.106.696.067.795.385.098.318-.098.662-.439.767zm4.785-6.388c-.294.091-.596-.037-.673-.286-.077-.249.1-.525.394-.616.295-.091.597.036.674.285.077.249-.1.525-.395.617z" fill="#8785A8"/><path d="M747.208 508.453c-.235.073-.467-.003-.518-.169-.051-.166.097-.359.332-.432.235-.073.467.002.518.168.052.166-.097.36-.332.433zm-1.106 2.685c-.207.065-.41.005-.453-.134-.043-.138.091-.302.298-.367.207-.064.41-.004.453.135.042.138-.091.302-.298.366zm1.771-4.319c.17-.052.279-.189.243-.304-.035-.115-.202-.166-.373-.113-.17.053-.279.189-.244.304.036.116.203.166.374.113z" fill="#B1ADC6"/></g><g clip-path="url(#clip6)" fill-rule="evenodd" clip-rule="evenodd"><path d="M990.409 495.101l-2.734-.668a1.573 1.573 0 01-1.223-1.396l-.233-2.562c-.064-.71.343-1.351 1.023-1.61l1.266-.484a1.55 1.55 0 00.875-.797l.485-1.003a1.582 1.582 0 011.45-.906l3.073-.012c.532-.002 1.008.205 1.312.632l2.676 3.76c.272.381.387.796.296 1.251-.09.456-.346.814-.754 1.053l-.498.292a1.551 1.551 0 00-.451.394l-1.019 1.302a1.614 1.614 0 01-1.711.565l-1.044-.276a1.594 1.594 0 00-1.106.091l-.608.275a1.594 1.594 0 01-1.075.099" fill="#EBE8F6"/><path d="M990.487 495.314l-2.688-.71a1.577 1.577 0 01-1.188-1.429l-.194-2.598a1.582 1.582 0 011.031-1.619l1.257-.475c.397-.15.688-.415.874-.796l.492-1.011a1.568 1.568 0 011.444-.9l2.806.01c.525.002.976.232 1.286.657l2.817 3.857c.277.379.37.812.275 1.272-.096.46-.354.819-.759 1.057l-.495.29a1.52 1.52 0 00-.451.393l-1.024 1.306a1.572 1.572 0 01-1.697.552l-1.026-.293a1.54 1.54 0 00-1.093.079l-.604.271a1.536 1.536 0 01-1.063.087z" fill="#B1ADC6"/><path d="M990.487 495.315l-2.688-.71a1.58 1.58 0 01-1.188-1.43l-.157-2.101.682 1.447c.194.411.516.691.949.827l1.142.358a1.526 1.526 0 001.478-.297l.683-.575a1.56 1.56 0 012.083.058l1.008.951c.548.516 1.36.574 1.975.142l.028-.019-.512.653a1.573 1.573 0 01-1.697.551l-1.026-.293a1.546 1.546 0 00-1.093.079l-.605.272a1.538 1.538 0 01-1.062.087" fill="#C4C1D6"/><path d="M987.448 488.958l1.257-.475a1.54 1.54 0 00.874-.796l.492-1.011a1.568 1.568 0 011.444-.9l2.806.01c.525.002.976.232 1.286.657l2.817 3.857c.277.379.37.812.275 1.272-.096.46-.354.819-.759 1.057l-.495.29.053-.371a1.048 1.048 0 00-.65-1.133l-.935-.376a1.007 1.007 0 01-.332-.214l-1.676-1.592a1.048 1.048 0 00-1.35-.086l-1.397 1.023a1.034 1.034 0 01-1.095.093l-2.615-1.305" fill="#8785A8"/><path d="M990.685 488.802c-.291-.31-.316-.759-.056-1.004.26-.244.706-.192.997.117.29.31.315.759.056 1.004-.26.244-.706.192-.997-.117zm3.873-.038c-.394-.418-.468-.987-.166-1.272.302-.285.866-.176 1.259.242.393.418.467.988.165 1.273-.302.284-.865.176-1.258-.243" fill="#6F6E90"/><path d="M992.787 491.369c-.294-.312-.302-.783-.018-1.051.285-.268.754-.232 1.048.081.294.313.302.784.017 1.052-.284.268-.753.231-1.047-.082zm-5.004.288c-.245-.26-.246-.656-.004-.884.242-.229.637-.203.881.057s.246.656.004.884c-.242.229-.637.203-.881-.057zm7.834 1.498c-.212-.225-.229-.552-.04-.73.19-.179.515-.141.726.084.212.225.229.552.04.73-.19.179-.515.141-.726-.084z" fill="#8785A8"/><path d="M991.169 494.239c-.168-.179-.203-.421-.076-.54.126-.12.365-.071.534.108.168.18.202.422.076.541-.126.119-.365.07-.534-.109zm-2.895.184c-.149-.158-.184-.367-.079-.466.106-.099.311-.051.46.107.149.158.184.367.079.466-.106.099-.312.051-.46-.107zm4.652-.304c.123.13.293.168.381.086.087-.083.059-.256-.063-.386s-.292-.168-.38-.085c-.088.082-.06.255.062.385z" fill="#B1ADC6"/></g><g clip-path="url(#clip7)" fill-rule="evenodd" clip-rule="evenodd"><path d="M798.675 33.245l-1.829 2.14c-.456.536-1.158.716-1.796.463l-2.388-.947c-.662-.263-1.05-.916-.974-1.641l.141-1.35a1.553 1.553 0 00-.316-1.141l-.676-.886a1.587 1.587 0 01-.152-1.705l1.376-2.751c.238-.476.638-.808 1.155-.887l4.559-.695c.462-.07.884.014 1.249.3.365.287.568.677.598 1.15l.036.576c.013.212.058.39.147.581l.7 1.498c.28.6.177 1.282-.269 1.784l-.717.808c-.263.297-.4.634-.418 1.03l-.029.668a1.598 1.598 0 01-.397 1.005" fill="#EBE8F6"/><path d="M798.901 33.27l-1.846 2.082a1.576 1.576 0 01-1.81.416l-2.404-.998a1.582 1.582 0 01-.977-1.653l.145-1.337a1.553 1.553 0 00-.316-1.14l-.679-.896a1.575 1.575 0 01-.15-1.696l1.275-2.503a1.557 1.557 0 011.166-.853l4.709-.776c.463-.076.89.035 1.257.328.367.293.571.686.6 1.155l.035.574c.013.21.058.389.147.58l.702 1.504a1.576 1.576 0 01-.274 1.766l-.724.785c-.266.288-.405.62-.423 1.011l-.031.663a1.543 1.543 0 01-.402.989z" fill="#B1ADC6"/><path d="M798.901 33.27l-1.846 2.082a1.577 1.577 0 01-1.81.416l-1.944-.807 1.598.043c.453.012.848-.149 1.165-.474l.835-.86a1.53 1.53 0 00.402-1.454l-.204-.87c-.184-.779.24-1.563.992-1.835l1.302-.472a1.556 1.556 0 001.018-1.7l-.005-.034.351.752a1.576 1.576 0 01-.274 1.765l-.724.785c-.266.289-.405.62-.423 1.012l-.031.663a1.544 1.544 0 01-.402.989" fill="#C4C1D6"/><path d="M791.864 33.117l.145-1.337a1.553 1.553 0 00-.316-1.14l-.678-.896a1.573 1.573 0 01-.151-1.696l1.276-2.503a1.554 1.554 0 011.165-.853l4.709-.776c.463-.076.891.035 1.257.328.367.293.571.686.6 1.155l.035.574-.306-.215a1.044 1.044 0 00-1.303.07l-.758.665a1.009 1.009 0 01-.34.2l-2.176.78a1.051 1.051 0 00-.686 1.167l.282 1.71c.065.4-.087.777-.412 1.02l-2.343 1.747" fill="#8785A8"/><path d="M793.186 30.155c-.407.12-.818-.06-.919-.403-.101-.342.147-.717.554-.838.407-.12.818.06.919.403.101.343-.147.718-.554.838zm1.715-3.477c-.55.162-1.091-.029-1.209-.427-.117-.398.234-.853.784-1.015.55-.163 1.091.028 1.209.426.117.399-.234.853-.784 1.016" fill="#6F6E90"/><path d="M796.422 29.436c-.411.121-.834-.084-.945-.459-.11-.375.134-.778.545-.9.412-.12.835.085.945.46.111.375-.133.777-.545.899zm-2.002 4.6c-.342.102-.696-.075-.79-.394-.094-.32.107-.66.449-.762.342-.1.696.076.79.395.094.32-.107.66-.449.762zm4.871-6.323c-.296.088-.595-.044-.669-.294-.074-.25.106-.523.402-.61.296-.088.596.043.67.293.073.25-.107.524-.403.611z" fill="#8785A8"/><path d="M798.25 32.177c-.236.07-.467-.009-.516-.176-.049-.166.103-.358.338-.428.236-.07.467.01.516.176.049.167-.102.358-.338.428zm-1.142 2.67c-.208.062-.41-.001-.451-.14-.041-.139.095-.301.303-.363.208-.061.409.002.45.14.041.14-.094.302-.302.363zm1.828-4.294c.171-.05.282-.186.248-.301-.034-.116-.2-.17-.371-.118-.171.05-.282.185-.248.3.034.116.2.17.371.119z" fill="#B1ADC6"/></g><g clip-path="url(#clip8)" fill-rule="evenodd" clip-rule="evenodd"><path d="M676.307 10.49l-1.828 2.14c-.457.536-1.159.716-1.796.463l-2.389-.947c-.662-.263-1.05-.916-.974-1.641l.141-1.35a1.553 1.553 0 00-.316-1.141l-.675-.886a1.587 1.587 0 01-.153-1.705l1.376-2.751c.238-.476.638-.808 1.155-.887l4.559-.695c.463-.07.884.014 1.249.3.365.287.569.677.598 1.15l.036.576c.013.212.058.39.147.581l.7 1.498c.28.6.178 1.282-.268 1.784l-.718.808a1.6 1.6 0 00-.417 1.03l-.03.668a1.598 1.598 0 01-.397 1.005" fill="#EBE8F6"/><path d="M676.533 10.516l-1.846 2.081a1.576 1.576 0 01-1.81.417l-2.403-1a1.584 1.584 0 01-.978-1.652l.145-1.337a1.548 1.548 0 00-.316-1.14l-.678-.896a1.57 1.57 0 01-.15-1.696l1.275-2.503a1.554 1.554 0 011.165-.853l4.709-.776c.463-.076.891.035 1.258.328.367.293.57.686.599 1.155l.035.574c.013.21.058.389.147.58l.702 1.504a1.576 1.576 0 01-.274 1.766l-.724.785c-.266.288-.405.62-.423 1.011l-.031.663a1.543 1.543 0 01-.402.989z" fill="#B1ADC6"/><path d="M676.533 10.516l-1.846 2.081a1.576 1.576 0 01-1.81.416l-1.944-.807 1.598.043c.454.012.849-.149 1.165-.475l.835-.859c.385-.395.529-.917.403-1.454l-.205-.87c-.183-.779.24-1.563.992-1.835l1.302-.472a1.556 1.556 0 001.018-1.7l-.005-.034.351.752a1.576 1.576 0 01-.274 1.765l-.724.785c-.266.289-.405.62-.423 1.012l-.031.663a1.543 1.543 0 01-.402.989" fill="#C4C1D6"/><path d="M669.496 10.362l.145-1.337a1.544 1.544 0 00-.316-1.14l-.678-.896a1.57 1.57 0 01-.15-1.696l1.275-2.503a1.554 1.554 0 011.165-.853l4.709-.776c.463-.076.891.035 1.258.328.367.293.57.686.599 1.155l.035.574-.306-.215a1.044 1.044 0 00-1.303.07l-.757.665c-.105.092-.21.153-.341.2l-2.175.78a1.05 1.05 0 00-.686 1.167l.281 1.71c.066.4-.086.777-.411 1.02l-2.344 1.747" fill="#8785A8"/><path d="M670.818 7.4c-.406.12-.818-.06-.919-.403-.101-.342.147-.717.554-.838.407-.12.818.06.919.403.101.343-.147.718-.554.838zm1.715-3.477c-.55.162-1.091-.029-1.209-.427-.117-.398.234-.853.784-1.015.55-.163 1.091.028 1.209.426.117.399-.234.853-.784 1.016" fill="#6F6E90"/><path d="M674.055 6.68c-.412.122-.835-.083-.946-.458-.11-.375.134-.778.545-.9.412-.12.835.085.946.46.11.375-.134.777-.545.899zm-2.003 4.602c-.342.101-.695-.076-.79-.395-.094-.32.107-.66.45-.762.342-.1.695.076.789.396.095.319-.107.66-.449.761zm4.871-6.324c-.296.088-.595-.044-.669-.294-.073-.25.107-.523.403-.61.296-.088.595.044.669.294.073.25-.107.523-.403.61z" fill="#8785A8"/><path d="M675.882 9.422c-.235.07-.466-.009-.515-.176-.05-.166.102-.358.338-.428.235-.07.466.01.515.176.05.167-.102.358-.338.428zm-1.142 2.67c-.208.062-.41 0-.451-.14-.041-.139.095-.301.303-.363.208-.061.41.002.451.14.041.14-.095.302-.303.363zm1.829-4.294c.171-.05.282-.186.248-.301-.034-.116-.201-.169-.372-.118-.171.05-.282.185-.248.3.034.116.201.17.372.119z" fill="#B1ADC6"/></g><defs><clipPath id="clip0"><path fill="#fff" transform="matrix(-.94655 .32255 -.31933 -.94764 653.46 167.204)" d="M0 0h10.307v11.727H0z"/></clipPath><clipPath id="clip1"><path fill="#fff" transform="rotate(175.259 160.552 74.27) skewX(-.012)" d="M0 0h10.313v11.72H0z"/></clipPath><clipPath id="clip2"><path fill="#fff" transform="matrix(-.81149 .58437 -.5808 -.81404 232.693 324.397)" d="M0 0h10.314v11.719H0z"/></clipPath><clipPath id="clip3"><path fill="#fff" transform="rotate(-169.816 24.37 216.136) skewX(-.034)" d="M0 0h10.305v11.73H0z"/></clipPath><clipPath id="clip4"><path fill="#fff" transform="rotate(-170.753 180.945 287.328) skewX(-.039)" d="M0 0h10.305v11.73H0z"/></clipPath><clipPath id="clip5"><path fill="#fff" transform="rotate(162.767 337.098 312.044) skewX(-.043)" d="M0 0h10.314v11.719H0z"/></clipPath><clipPath id="clip6"><path fill="#fff" transform="rotate(-133.23 603.604 35.068) skewX(.075)" d="M0 0h10.32v11.713H0z"/></clipPath><clipPath id="clip7"><path fill="#fff" transform="rotate(163.54 398.804 75.035) skewX(-.041)" d="M0 0h10.314v11.719H0z"/></clipPath><clipPath id="clip8"><path fill="#fff" transform="rotate(163.54 339.265 54.808) skewX(-.041)" d="M0 0h10.314v11.719H0z"/></clipPath></defs></svg>