<svg width="989" height="576" fill="none" xmlns="http://www.w3.org/2000/svg"><circle cx="52.5" cy="34.5" r=".5" fill="#fff" fill-opacity=".7"/><circle cx="367.5" cy="33.5" r=".5" fill="#fff" fill-opacity=".7"/><circle cx="65.5" cy="70.5" r=".5" fill="#fff" fill-opacity=".7"/><circle cx="380.5" cy="69.5" r=".5" fill="#fff" fill-opacity=".7"/><circle cx="83.5" cy="39.5" r=".5" fill="#fff" fill-opacity=".7"/><circle cx="398.5" cy="38.5" r=".5" fill="#fff" fill-opacity=".7"/><circle cx="58.5" cy="51.5" r=".5" fill="#fff" fill-opacity=".7"/><circle cx="373.5" cy="50.5" r=".5" fill="#fff" fill-opacity=".7"/><circle cx="64.5" cy="11.5" r=".5" fill="#fff" fill-opacity=".7"/><circle cx="21.5" cy="10.5" r=".5" fill="#fff" fill-opacity=".7"/><circle cx="17.5" cy="40.5" r=".5" fill="#fff" fill-opacity=".7"/><circle cx="332.5" cy="39.5" r=".5" fill="#fff" fill-opacity=".7"/><circle cx="46.5" cy="25.5" r=".5" fill="#fff" fill-opacity=".7"/><circle cx="361.5" cy="24.5" r=".5" fill="#fff" fill-opacity=".7"/><circle cx="111.5" cy="53.5" r=".5" fill="#fff" fill-opacity=".7"/><circle cx="426.5" cy="52.5" r=".5" fill="#fff" fill-opacity=".7"/><circle cx="136.5" cy="52.5" r=".5" fill="#fff" fill-opacity=".7"/><circle cx="451.5" cy="51.5" r=".5" fill="#fff" fill-opacity=".7"/><circle cx="516.5" cy="26.5" r=".5" fill="#fff" fill-opacity=".7"/><circle cx="156.5" cy="34.5" r=".5" fill="#fff" fill-opacity=".7"/><circle cx="471.5" cy="33.5" r=".5" fill="#fff" fill-opacity=".7"/><circle cx="536.5" cy="8.5" r=".5" fill="#fff" fill-opacity=".7"/><circle cx="208.5" cy="33.5" r=".5" fill="#fff" fill-opacity=".7"/><circle cx="523.5" cy="32.5" r=".5" fill="#fff" fill-opacity=".7"/><circle cx="588.5" cy="7.5" r=".5" fill="#fff" fill-opacity=".7"/><circle cx="266.5" cy="19.5" r=".5" fill="#fff" fill-opacity=".7"/><circle cx="215.5" cy="78.5" r=".5" fill="#fff" fill-opacity=".7"/><circle cx="530.5" cy="77.5" r=".5" fill="#fff" fill-opacity=".7"/><circle cx="595.5" cy="52.5" r=".5" fill="#fff" fill-opacity=".7"/><circle cx="655.5" cy="6.5" r=".5" fill="#fff" fill-opacity=".7"/><circle cx="521.5" cy="295.5" r=".5" fill="#fff" fill-opacity=".7"/><circle cx="272.5" cy="53.5" r=".5" fill="#fff" fill-opacity=".7"/><circle cx="587.5" cy="52.5" r=".5" fill="#fff" fill-opacity=".7"/><circle cx="578.5" cy="270.5" r=".5" fill="#fff" fill-opacity=".7"/><circle cx="886.5" cy="296.5" r=".5" fill="#fff" fill-opacity=".7"/><circle cx="960.5" cy="315.5" r=".5" fill="#fff" fill-opacity=".7"/><circle cx="988.5" cy="276.5" r=".5" fill="#fff" fill-opacity=".7"/><circle cx="187.5" cy="138.5" r=".5" fill="#fff" fill-opacity=".7"/><circle cx="502.5" cy="137.5" r=".5" fill="#fff" fill-opacity=".7"/><circle cx="698.5" cy="173.5" r=".5" fill="#fff" fill-opacity=".7"/><circle cx="493.5" cy="355.5" r=".5" fill="#fff" fill-opacity=".7"/><circle cx="395.5" cy="327.5" r=".5" fill="#fff" fill-opacity=".7"/><circle cx="590.5" cy="477.5" r=".5" fill="#fff" fill-opacity=".7"/><circle cx="504.5" cy="520.5" r=".5" fill="#fff" fill-opacity=".7"/><circle cx="707.5" cy="501.5" r=".5" fill="#fff" fill-opacity=".7"/><circle cx="397.5" cy="445.5" r=".5" fill="#fff" fill-opacity=".7"/><circle cx="302.5" cy="307.5" r=".5" fill="#fff" fill-opacity=".7"/><circle cx="835.5" cy="414.5" r=".5" fill="#fff" fill-opacity=".7"/><circle cx="256.5" cy="459.5" r=".5" fill="#fff" fill-opacity=".7"/><circle cx="116.5" cy="319.5" r=".5" fill="#fff" fill-opacity=".7"/><circle cx="188.5" cy="226.5" r=".5" fill="#fff" fill-opacity=".7"/><circle cx="503.5" cy="225.5" r=".5" fill="#fff" fill-opacity=".7"/><circle cx="699.5" cy="261.5" r=".5" fill="#fff" fill-opacity=".7"/><circle cx="706.5" cy="223.5" r=".5" fill="#fff" fill-opacity=".7"/><circle cx="724.5" cy="403.5" r=".5" fill="#fff" fill-opacity=".7"/><circle cx="494.5" cy="443.5" r=".5" fill="#fff" fill-opacity=".7"/><circle cx="398.5" cy="533.5" r=".5" fill="#fff" fill-opacity=".7"/><circle cx="303.5" cy="395.5" r=".5" fill="#fff" fill-opacity=".7"/><circle cx="836.5" cy="502.5" r=".5" fill="#fff" fill-opacity=".7"/><circle cx="257.5" cy="547.5" r=".5" fill="#fff" fill-opacity=".7"/><circle cx="174.5" cy="560.5" r=".5" fill="#fff" fill-opacity=".7"/><circle cx="117.5" cy="407.5" r=".5" fill="#fff" fill-opacity=".7"/><circle cx="136.5" cy="227.5" r=".5" fill="#fff" fill-opacity=".7"/><circle cx="451.5" cy="226.5" r=".5" fill="#fff" fill-opacity=".7"/><circle cx="647.5" cy="262.5" r=".5" fill="#fff" fill-opacity=".7"/><circle cx="659.5" cy="297.5" r=".5" fill="#fff" fill-opacity=".7"/><circle cx="697.5" cy="318.5" r=".5" fill="#fff" fill-opacity=".7"/><circle cx="646.5" cy="334.5" r=".5" fill="#fff" fill-opacity=".7"/><circle cx="955.5" cy="288.5" r=".5" fill="#fff" fill-opacity=".7"/><circle cx="901.5" cy="260.5" r=".5" fill="#fff" fill-opacity=".7"/><circle cx="672.5" cy="404.5" r=".5" fill="#fff" fill-opacity=".7"/><circle cx="65.5" cy="408.5" r=".5" fill="#fff" fill-opacity=".7"/><circle cx="224.5" cy="164.5" r=".5" fill="#fff" fill-opacity=".7"/><circle cx="539.5" cy="163.5" r=".5" fill="#fff" fill-opacity=".7"/><circle cx="735.5" cy="199.5" r=".5" fill="#fff" fill-opacity=".7"/><circle cx="837.5" cy="20.5" r=".5" fill="#fff" fill-opacity=".7"/><circle cx="760.5" cy="341.5" r=".5" fill="#fff" fill-opacity=".7"/><circle cx="862.5" cy="162.5" r=".5" fill="#fff" fill-opacity=".7"/><circle cx="664.5" cy="92.5" r=".5" fill="#fff" fill-opacity=".7"/><circle cx="530.5" cy="381.5" r=".5" fill="#fff" fill-opacity=".7"/><circle cx="432.5" cy="353.5" r=".5" fill="#fff" fill-opacity=".7"/><circle cx="627.5" cy="503.5" r=".5" fill="#fff" fill-opacity=".7"/><circle cx="744.5" cy="527.5" r=".5" fill="#fff" fill-opacity=".7"/><circle cx="434.5" cy="471.5" r=".5" fill="#fff" fill-opacity=".7"/><circle cx="339.5" cy="333.5" r=".5" fill="#fff" fill-opacity=".7"/><circle cx="417.5" cy="412.5" r=".5" fill="#fff" fill-opacity=".7"/><circle cx="872.5" cy="440.5" r=".5" fill="#fff" fill-opacity=".7"/><circle cx="293.5" cy="485.5" r=".5" fill="#fff" fill-opacity=".7"/><circle cx="153.5" cy="345.5" r=".5" fill="#fff" fill-opacity=".7"/><circle cx="246.5" cy="244.5" r=".5" fill="#fff" fill-opacity=".7"/><circle cx="200.5" cy="396.5" r=".5" fill="#fff" fill-opacity=".7"/><circle cx="45.5" cy="501.5" r=".5" fill="#fff" fill-opacity=".7"/><circle cx="561.5" cy="243.5" r=".5" fill="#fff" fill-opacity=".7"/><circle cx="757.5" cy="279.5" r=".5" fill="#fff" fill-opacity=".7"/><circle cx="859.5" cy="100.5" r=".5" fill="#fff" fill-opacity=".7"/><circle cx="935.5" cy="87.5" r=".5" fill="#fff" fill-opacity=".7"/><circle cx="782.5" cy="421.5" r=".5" fill="#fff" fill-opacity=".7"/><circle cx="361.5" cy="413.5" r=".5" fill="#fff" fill-opacity=".7"/><circle cx="894.5" cy="520.5" r=".5" fill="#fff" fill-opacity=".7"/><circle cx="315.5" cy="565.5" r=".5" fill="#fff" fill-opacity=".7"/><circle cx="175.5" cy="425.5" r=".5" fill="#fff" fill-opacity=".7"/><circle cx="180.5" cy="460.5" r=".5" fill="#fff" fill-opacity=".7"/><circle cx="20.5" cy="530.5" r=".5" fill="#fff" fill-opacity=".7"/><circle cx="78.5" cy="492.5" r=".5" fill="#fff" fill-opacity=".7"/><circle cx="223.5" cy="201.5" r=".5" fill="#fff" fill-opacity=".7"/><circle cx="538.5" cy="200.5" r=".5" fill="#fff" fill-opacity=".7"/><circle cx="734.5" cy="236.5" r=".5" fill="#fff" fill-opacity=".7"/><circle cx="771.5" cy="184.5" r=".5" fill="#fff" fill-opacity=".7"/><circle cx="836.5" cy="57.5" r=".5" fill="#fff" fill-opacity=".7"/><circle cx="759.5" cy="378.5" r=".5" fill="#fff" fill-opacity=".7"/><circle cx="663.5" cy="129.5" r=".5" fill="#fff" fill-opacity=".7"/><circle cx="529.5" cy="418.5" r=".5" fill="#fff" fill-opacity=".7"/><circle cx="626.5" cy="540.5" r=".5" fill="#fff" fill-opacity=".7"/><circle cx="433.5" cy="508.5" r=".5" fill="#fff" fill-opacity=".7"/><circle cx="446.5" cy="575.5" r=".5" fill="#fff" fill-opacity=".7"/><circle cx="338.5" cy="370.5" r=".5" fill="#fff" fill-opacity=".7"/><circle cx="871.5" cy="477.5" r=".5" fill="#fff" fill-opacity=".7"/><circle cx="292.5" cy="522.5" r=".5" fill="#fff" fill-opacity=".7"/><circle cx="152.5" cy="382.5" r=".5" fill="#fff" fill-opacity=".7"/><circle cx="297.5" cy="157.5" r=".5" fill="#fff" fill-opacity=".7"/><circle cx="253.5" cy="150.5" r=".5" fill="#fff" fill-opacity=".7"/><circle cx="612.5" cy="156.5" r=".5" fill="#fff" fill-opacity=".7"/><circle cx="808.5" cy="192.5" r=".5" fill="#fff" fill-opacity=".7"/><circle cx="756.5" cy="143.5" r=".5" fill="#fff" fill-opacity=".7"/><circle cx="910.5" cy="13.5" r=".5" fill="#fff" fill-opacity=".7"/><circle cx="833.5" cy="334.5" r=".5" fill="#fff" fill-opacity=".7"/><circle cx="935.5" cy="155.5" r=".5" fill="#fff" fill-opacity=".7"/><circle cx="966.5" cy="122.5" r=".5" fill="#fff" fill-opacity=".7"/><circle cx="737.5" cy="85.5" r=".5" fill="#fff" fill-opacity=".7"/><circle cx="802.5" cy="97.5" r=".5" fill="#fff" fill-opacity=".7"/><circle cx="603.5" cy="374.5" r=".5" fill="#fff" fill-opacity=".7"/><circle cx="412.5" cy="326.5" r=".5" fill="#fff" fill-opacity=".7"/><circle cx="945.5" cy="433.5" r=".5" fill="#fff" fill-opacity=".7"/><circle cx="226.5" cy="338.5" r=".5" fill="#fff" fill-opacity=".7"/><circle cx="180.5" cy="490.5" r=".5" fill="#fff" fill-opacity=".7"/><circle cx="144.5" cy="476.5" r=".5" fill="#fff" fill-opacity=".7"/><circle cx="118.5" cy="521.5" r=".5" fill="#fff" fill-opacity=".7"/><circle cx="83.5" cy="557.5" r=".5" fill="#fff" fill-opacity=".7"/><circle cx="252.5" cy="117.5" r=".5" fill="#fff" fill-opacity=".7"/><circle cx="567.5" cy="116.5" r=".5" fill="#fff" fill-opacity=".7"/><circle cx="589.5" cy="130.5" r=".5" fill="#fff" fill-opacity=".7"/><circle cx="692.5" cy="45.5" r=".5" fill="#fff" fill-opacity=".7"/><circle cx="558.5" cy="334.5" r=".5" fill="#fff" fill-opacity=".7"/><circle cx="460.5" cy="306.5" r=".5" fill="#fff" fill-opacity=".7"/><circle cx="367.5" cy="286.5" r=".5" fill="#fff" fill-opacity=".7"/><circle cx="900.5" cy="393.5" r=".5" fill="#fff" fill-opacity=".7"/><circle cx="321.5" cy="438.5" r=".5" fill="#fff" fill-opacity=".7"/><circle cx="854.5" cy="545.5" r=".5" fill="#fff" fill-opacity=".7"/><circle cx="181.5" cy="298.5" r=".5" fill="#fff" fill-opacity=".7"/><circle cx="267.5" cy="179.5" r=".5" fill="#fff" fill-opacity=".7"/><circle cx="582.5" cy="178.5" r=".5" fill="#fff" fill-opacity=".7"/><circle cx="778.5" cy="214.5" r=".5" fill="#fff" fill-opacity=".7"/><circle cx="772.5" cy="254.5" r=".5" fill="#fff" fill-opacity=".7"/><circle cx="820.5" cy="253.5" r=".5" fill="#fff" fill-opacity=".7"/><circle cx="880.5" cy="35.5" r=".5" fill="#fff" fill-opacity=".7"/><circle cx="803.5" cy="356.5" r=".5" fill="#fff" fill-opacity=".7"/><circle cx="905.5" cy="177.5" r=".5" fill="#fff" fill-opacity=".7"/><circle cx="707.5" cy="107.5" r=".5" fill="#fff" fill-opacity=".7"/><circle cx="573.5" cy="396.5" r=".5" fill="#fff" fill-opacity=".7"/><circle cx="477.5" cy="486.5" r=".5" fill="#fff" fill-opacity=".7"/><circle cx="382.5" cy="348.5" r=".5" fill="#fff" fill-opacity=".7"/><circle cx="460.5" cy="427.5" r=".5" fill="#fff" fill-opacity=".7"/><circle cx="557.5" cy="549.5" r=".5" fill="#fff" fill-opacity=".7"/><circle cx="915.5" cy="455.5" r=".5" fill="#fff" fill-opacity=".7"/><circle cx="336.5" cy="500.5" r=".5" fill="#fff" fill-opacity=".7"/><circle cx="196.5" cy="360.5" r=".5" fill="#fff" fill-opacity=".7"/><circle cx="41.5" cy="465.5" r=".5" fill="#fff" fill-opacity=".7"/><circle cx="239.5" cy="86.5" r=".5" fill="#fff" fill-opacity=".7"/><circle cx="554.5" cy="85.5" r=".5" fill="#fff" fill-opacity=".7"/><circle cx="619.5" cy="60.5" r=".5" fill="#fff" fill-opacity=".7"/><circle cx="679.5" cy="14.5" r=".5" fill="#fff" fill-opacity=".7"/><circle cx="545.5" cy="303.5" r=".5" fill="#fff" fill-opacity=".7"/><circle cx="354.5" cy="255.5" r=".5" fill="#fff" fill-opacity=".7"/><circle cx="308.5" cy="407.5" r=".5" fill="#fff" fill-opacity=".7"/><circle cx="841.5" cy="514.5" r=".5" fill="#fff" fill-opacity=".7"/><circle cx="168.5" cy="267.5" r=".5" fill="#fff" fill-opacity=".7"/><circle cx="309.5" cy="87.5" r=".5" fill="#fff" fill-opacity=".7"/><circle cx="624.5" cy="86.5" r=".5" fill="#fff" fill-opacity=".7"/><circle cx="749.5" cy="15.5" r=".5" fill="#fff" fill-opacity=".7"/><circle cx="615.5" cy="304.5" r=".5" fill="#fff" fill-opacity=".7"/><circle cx="923.5" cy="330.5" r=".5" fill="#fff" fill-opacity=".7"/><circle cx="966.5" cy="368.5" r=".5" fill="#fff" fill-opacity=".7"/><circle cx="640.5" cy="446.5" r=".5" fill="#fff" fill-opacity=".7"/><circle cx="757.5" cy="470.5" r=".5" fill="#fff" fill-opacity=".7"/><circle cx="273.5" cy="432.5" r=".5" fill="#fff" fill-opacity=".7"/><circle cx="238.5" cy="268.5" r=".5" fill="#fff" fill-opacity=".7"/><circle cx="192.5" cy="420.5" r=".5" fill="#fff" fill-opacity=".7"/><circle cx="37.5" cy="525.5" r=".5" fill="#fff" fill-opacity=".7"/><circle cx="95.5" cy="487.5" r=".5" fill="#fff" fill-opacity=".7"/><circle cx="240.5" cy="50.5" r=".5" fill="#fff" fill-opacity=".7"/><circle cx="555.5" cy="49.5" r=".5" fill="#fff" fill-opacity=".7"/><circle cx="620.5" cy="24.5" r=".5" fill="#fff" fill-opacity=".7"/><circle cx="546.5" cy="267.5" r=".5" fill="#fff" fill-opacity=".7"/><circle cx="195.5" cy="99.5" r=".5" fill="#fff" fill-opacity=".7"/><circle cx="510.5" cy="98.5" r=".5" fill="#fff" fill-opacity=".7"/><circle cx="501.5" cy="316.5" r=".5" fill="#fff" fill-opacity=".7"/><circle cx="403.5" cy="288.5" r=".5" fill="#fff" fill-opacity=".7"/><circle cx="310.5" cy="268.5" r=".5" fill="#fff" fill-opacity=".7"/><circle cx="843.5" cy="375.5" r=".5" fill="#fff" fill-opacity=".7"/><circle cx="264.5" cy="420.5" r=".5" fill="#fff" fill-opacity=".7"/><circle cx="124.5" cy="280.5" r=".5" fill="#fff" fill-opacity=".7"/><circle cx="129.5" cy="26.5" r=".5" fill="#fff" fill-opacity=".7"/><circle cx="444.5" cy="25.5" r=".5" fill="#fff" fill-opacity=".7"/><circle cx="509.5" cy=".5" r=".5" fill="#fff" fill-opacity=".7"/><circle cx="155.5" cy="12.5" r=".5" fill="#fff" fill-opacity=".7"/><circle cx="188.5" cy="9.5" r=".5" fill="#fff" fill-opacity=".7"/><circle cx="99.5" cy="3.5" r=".5" fill="#fff" fill-opacity=".7"/><circle cx="135.5" cy="74.5" r=".5" fill="#fff" fill-opacity=".7"/><circle cx="450.5" cy="73.5" r=".5" fill="#fff" fill-opacity=".7"/><circle cx="515.5" cy="48.5" r=".5" fill="#fff" fill-opacity=".7"/><circle cx="145.5" cy="69.5" r=".5" fill="#fff" fill-opacity=".7"/><circle cx="460.5" cy="68.5" r=".5" fill="#fff" fill-opacity=".7"/><circle cx="525.5" cy="43.5" r=".5" fill="#fff" fill-opacity=".7"/><circle cx="146.5" cy="94.5" r=".5" fill="#fff" fill-opacity=".7"/><circle cx="461.5" cy="93.5" r=".5" fill="#fff" fill-opacity=".7"/><circle cx="526.5" cy="68.5" r=".5" fill="#fff" fill-opacity=".7"/><circle cx="75.5" cy="275.5" r=".5" fill="#fff" fill-opacity=".7"/><circle cx="177.5" cy="79.5" r=".5" fill="#fff" fill-opacity=".7"/><circle cx="492.5" cy="78.5" r=".5" fill="#fff" fill-opacity=".7"/><circle cx="557.5" cy="53.5" r=".5" fill="#fff" fill-opacity=".7"/><circle cx="483.5" cy="296.5" r=".5" fill="#fff" fill-opacity=".7"/><circle cx="178.5" cy="50.5" r=".5" fill="#fff" fill-opacity=".7"/><circle cx="493.5" cy="49.5" r=".5" fill="#fff" fill-opacity=".7"/><circle cx="558.5" cy="24.5" r=".5" fill="#fff" fill-opacity=".7"/><circle cx="484.5" cy="267.5" r=".5" fill="#fff" fill-opacity=".7"/><circle cx="110.5" cy="99.5" r=".5" fill="#fff" fill-opacity=".7"/><circle cx="425.5" cy="98.5" r=".5" fill="#fff" fill-opacity=".7"/><circle cx="39.5" cy="280.5" r=".5" fill="#fff" fill-opacity=".7"/><circle cx="145.5" cy="117.5" r=".5" fill="#fff" fill-opacity=".7"/><circle cx="460.5" cy="116.5" r=".5" fill="#fff" fill-opacity=".7"/><circle cx="74.5" cy="298.5" r=".5" fill="#fff" fill-opacity=".7"/><circle cx="119.5" cy="150.5" r=".5" fill="#fff" fill-opacity=".7"/><circle cx="434.5" cy="149.5" r=".5" fill="#fff" fill-opacity=".7"/><circle cx="630.5" cy="185.5" r=".5" fill="#fff" fill-opacity=".7"/><circle cx="933.5" cy="215.5" r=".5" fill="#fff" fill-opacity=".7"/><circle cx="872.5" cy="216.5" r=".5" fill="#fff" fill-opacity=".7"/><circle cx="48.5" cy="331.5" r=".5" fill="#fff" fill-opacity=".7"/><circle cx="118.5" cy="128.5" r=".5" fill="#fff" fill-opacity=".7"/><circle cx="433.5" cy="127.5" r=".5" fill="#fff" fill-opacity=".7"/><circle cx="47.5" cy="309.5" r=".5" fill="#fff" fill-opacity=".7"/><circle cx="166.5" cy="149.5" r=".5" fill="#fff" fill-opacity=".7"/><circle cx="481.5" cy="148.5" r=".5" fill="#fff" fill-opacity=".7"/><circle cx="677.5" cy="184.5" r=".5" fill="#fff" fill-opacity=".7"/><circle cx="472.5" cy="366.5" r=".5" fill="#fff" fill-opacity=".7"/><circle cx="569.5" cy="488.5" r=".5" fill="#fff" fill-opacity=".7"/><circle cx="483.5" cy="531.5" r=".5" fill="#fff" fill-opacity=".7"/><circle cx="376.5" cy="456.5" r=".5" fill="#fff" fill-opacity=".7"/><circle cx="281.5" cy="318.5" r=".5" fill="#fff" fill-opacity=".7"/><circle cx="814.5" cy="425.5" r=".5" fill="#fff" fill-opacity=".7"/><circle cx="235.5" cy="470.5" r=".5" fill="#fff" fill-opacity=".7"/><circle cx="95.5" cy="330.5" r=".5" fill="#fff" fill-opacity=".7"/><circle cx="82.5" cy="104.5" r=".5" fill="#fff" fill-opacity=".7"/><circle cx="397.5" cy="103.5" r=".5" fill="#fff" fill-opacity=".7"/><circle cx="11.5" cy="285.5" r=".5" fill="#fff" fill-opacity=".7"/><circle cx="72.5" cy="191.5" r=".5" fill="#fff" fill-opacity=".7"/><circle cx="387.5" cy="190.5" r=".5" fill="#fff" fill-opacity=".7"/><circle cx="286.5" cy="193.5" r=".5" fill="#fff" fill-opacity=".7"/><circle cx="1.5" cy="372.5" r=".5" fill="#fff" fill-opacity=".7"/><circle cx="73.5" cy="245.5" r=".5" fill="#fff" fill-opacity=".7"/><circle cx="388.5" cy="244.5" r=".5" fill="#fff" fill-opacity=".7"/><circle cx="342.5" cy="396.5" r=".5" fill="#fff" fill-opacity=".7"/><circle cx="875.5" cy="503.5" r=".5" fill="#fff" fill-opacity=".7"/><circle cx="2.5" cy="426.5" r=".5" fill="#fff" fill-opacity=".7"/><circle cx="78.5" cy="143.5" r=".5" fill="#fff" fill-opacity=".7"/><circle cx="393.5" cy="142.5" r=".5" fill="#fff" fill-opacity=".7"/><circle cx="7.5" cy="324.5" r=".5" fill="#fff" fill-opacity=".7"/><circle cx="124.5" cy="192.5" r=".5" fill="#fff" fill-opacity=".7"/><circle cx="439.5" cy="191.5" r=".5" fill="#fff" fill-opacity=".7"/><circle cx="635.5" cy="227.5" r=".5" fill="#fff" fill-opacity=".7"/><circle cx="943.5" cy="253.5" r=".5" fill="#fff" fill-opacity=".7"/><circle cx="979.5" cy="237.5" r=".5" fill="#fff" fill-opacity=".7"/><circle cx="960.5" cy="200.5" r=".5" fill="#fff" fill-opacity=".7"/><circle cx="978.5" cy="180.5" r=".5" fill="#fff" fill-opacity=".7"/><circle cx="660.5" cy="369.5" r=".5" fill="#fff" fill-opacity=".7"/><circle cx="53.5" cy="373.5" r=".5" fill="#fff" fill-opacity=".7"/><circle cx="171.5" cy="178.5" r=".5" fill="#fff" fill-opacity=".7"/><circle cx="486.5" cy="177.5" r=".5" fill="#fff" fill-opacity=".7"/><circle cx="682.5" cy="213.5" r=".5" fill="#fff" fill-opacity=".7"/><circle cx="707.5" cy="355.5" r=".5" fill="#fff" fill-opacity=".7"/><circle cx="809.5" cy="176.5" r=".5" fill="#fff" fill-opacity=".7"/><circle cx="477.5" cy="395.5" r=".5" fill="#fff" fill-opacity=".7"/><circle cx="574.5" cy="517.5" r=".5" fill="#fff" fill-opacity=".7"/><circle cx="381.5" cy="485.5" r=".5" fill="#fff" fill-opacity=".7"/><circle cx="286.5" cy="347.5" r=".5" fill="#fff" fill-opacity=".7"/><circle cx="819.5" cy="454.5" r=".5" fill="#fff" fill-opacity=".7"/><circle cx="240.5" cy="499.5" r=".5" fill="#fff" fill-opacity=".7"/><circle cx="193.5" cy="521.5" r=".5" fill="#fff" fill-opacity=".7"/><circle cx="100.5" cy="359.5" r=".5" fill="#fff" fill-opacity=".7"/><circle cx="59.5" cy="93.5" r=".5" fill="#fff" fill-opacity=".7"/><circle cx="374.5" cy="92.5" r=".5" fill="#fff" fill-opacity=".7"/><circle cx="30.5" cy="88.5" r=".5" fill="#fff" fill-opacity=".7"/><circle cx="345.5" cy="87.5" r=".5" fill="#fff" fill-opacity=".7"/><circle cx="46.5" cy="68.5" r=".5" fill="#fff" fill-opacity=".7"/><circle cx="361.5" cy="67.5" r=".5" fill="#fff" fill-opacity=".7"/><circle cx="32.5" cy="124.5" r=".5" fill="#fff" fill-opacity=".7"/><circle cx="347.5" cy="123.5" r=".5" fill="#fff" fill-opacity=".7"/><circle cx="31.5" cy="180.5" r=".5" fill="#fff" fill-opacity=".7"/><circle cx="346.5" cy="179.5" r=".5" fill="#fff" fill-opacity=".7"/><circle cx="22.5" cy="225.5" r=".5" fill="#fff" fill-opacity=".7"/><circle cx="337.5" cy="224.5" r=".5" fill="#fff" fill-opacity=".7"/><circle cx="71.5" cy="165.5" r=".5" fill="#fff" fill-opacity=".7"/><circle cx="386.5" cy="164.5" r=".5" fill="#fff" fill-opacity=".7"/><circle cx=".5" cy="346.5" r=".5" fill="#fff" fill-opacity=".7"/><circle cx="29.5" cy="156.5" r=".5" fill="#fff" fill-opacity=".7"/><circle cx="344.5" cy="155.5" r=".5" fill="#fff" fill-opacity=".7"/></svg>