<svg width="154" height="50" fill="none" xmlns="http://www.w3.org/2000/svg"><g clip-path="url(#clip0)"><path d="M125.956 16.494z" fill="#6D99AD"/><path d="M124.404 15.31h-3.293a.598.598 0 01-.598-.598v-1.474h4.489v1.474c0 .33-.268.599-.598.599" fill="#FAB92C"/><path d="M120.513 14.712c0 .084.017.164.049.236h4.391a.582.582 0 00.049-.236v-1.474h-4.489v1.474z" fill="#F68623"/><path d="M119.613 10.629a4.2 4.2 0 110-8.4v8.4z" fill="#FAB92C"/><path d="M118.457 10.468a4.202 4.202 0 01-3.024-4.46c.238.127.487.206.744.206.282 0 .572-.094.865-.32.955-.737 1.017-2.123.831-3.289.188-.085.383-.157.584-.215v5.944c-.402.435-.862.619-1.324.619-.374 0-.749-.12-1.096-.326a4.21 4.21 0 002.42 1.84" fill="#F89C26"/><path d="M118.457 10.467a4.21 4.21 0 01-2.42-1.84c.347.205.722.326 1.096.326.462 0 .922-.184 1.324-.62v2.134z" fill="#F68421"/><path d="M127.109 21.192h-12.315a.794.794 0 010-1.589h12.315c.504 0 .914-.41.914-.913V13.1a.794.794 0 111.588 0v5.589a2.504 2.504 0 01-2.502 2.502M153.63 10.017h-21.481V8.234h21.481c.493 0 .493 1.783 0 1.783z" fill="#FAB92C"/><path d="M153.637 10.017h.001-.001zm.003 0h.001-.001zm.002 0h0zm.005 0z" fill="#F9D571"/><path d="M153.63 10.017h-3.747v-.353h4.049c-.057.198-.151.34-.282.353h-.006-.005-.01.001zm-5.873 0h-4.052V9.664h4.052v.353zm-6.176 0h-3.7v-.279h-.001v-.074h3.701v.353zm-5.824 0h-3.609v-.353h3.609v.353z" fill="#F89B21"/><path d="M153.92 8.55h-4.037v-.278l3.726-.02H153.65a.212.212 0 00.041-.009c.102.033.178.15.23.307h-.001zm-6.161 0h-4.053v-.246l4.053-.021v.267zm-6.176 0h-3.701v-.227l3.701-.01v.237zm-5.825 0h-3.608v-.21l3.608-.01v.22" fill="#F9AE29"/><path d="M153.994 9.293h-4.111V8.94h4.109c.01.116.01.236.002.353zm-6.236 0h-4.052V8.94h4.052v.353zm-6.176 0h-3.7V8.94h3.7v.353zm-5.824 0h-3.609V8.94h3.609v.353z" fill="#FACF60"/><path d="M153.63 8.253h-21.481V6.469h21.481c.493 0 .493 1.784 0 1.784z" fill="#FAB92C"/><path d="M153.637 8.252h.001-.001zm.003 0h0zm.002 0h0zm.005 0zm.002 0z" fill="#F79120"/><path d="M153.63 8.253h-.021.022l-3.748-.02V7.9h4.049c-.057.197-.151.339-.282.352h-.006-.002-.001-.012.001zm-5.873-.03l-4.052-.022V7.9h4.052v.322zm-6.176-.03l-3.701-.011V7.9h3.701v.293zm-5.824-.018l-3.609-.01V7.9h3.609v.275" fill="#F89B21"/><path d="M153.92 6.785h-4.037v-.278l3.737-.02H153.65l.01-.001a.02.02 0 00.003 0h.002a.422.422 0 00.028-.008c.1.033.176.15.228.307h-.001zm-6.161 0h-4.053V6.54l4.053-.02v.266zm-6.176 0h-3.701V6.56l3.701-.011v.237zm-5.824 0h-3.609v-.209l3.609-.01v.22" fill="#F9AE29"/><path d="M153.994 7.528h-4.111v-.353h4.109c.01.116.01.236.002.353zm-6.236 0h-4.052v-.353h4.052v.353zm-6.176 0h-3.7v-.353h3.7v.353zm-5.824 0h-3.609v-.353h3.609v.353z" fill="#FACF60"/><path d="M153.63 6.488h-21.481V4.704h21.481c.493 0 .493 1.784 0 1.784z" fill="#FAB92C"/><path d="M153.637 6.488h.001-.001zm.003 0h.001-.001zm.002 0h0zm.005 0v-.001zm.015-.003h.002-.002z" fill="#F79120"/><path d="M153.63 6.488h-.01.011l-3.748-.02v-.333h4.049c-.056.191-.145.33-.269.35h-.001-.003l-.01.002h-.005-.002-.003-.01.001zm-5.873-.031l-4.053-.021v-.301h4.053v.322zm-6.176-.03l-3.701-.01v-.282h3.701v.293zm-5.824-.017l-3.609-.01v-.265h3.609v.275" fill="#F89B21"/><path d="M153.92 5.02h-4.037v-.278l3.737-.02H153.65a.207.207 0 00.042-.009c.101.033.177.15.229.307h-.001zm-6.161 0h-4.053v-.246l4.053-.02v.266zm-6.176 0h-3.701v-.226l3.701-.011v.237zm-5.825 0h-3.608v-.209l3.608-.01v.22" fill="#F9AE29"/><path d="M153.994 5.763h-4.111V5.41h4.109c.01.116.01.236.002.353zm-6.236 0h-4.052V5.41h4.052v.353zm-6.176 0h-3.7V5.41h3.7v.353zm-5.824 0h-3.609V5.41h3.609v.353z" fill="#FACF60"/><path d="M153.63 4.723h-21.481V2.939h21.481c.493 0 .493 1.784 0 1.784z" fill="#FAB92C"/><path d="M153.637 4.723h.001-.001zm.003 0h0zm.002 0h0zm.005 0zm.002-.001z" fill="#F79120"/><path d="M153.63 4.723h-.01.011l-3.748-.02V4.37h4.049c-.057.198-.151.339-.282.352h-.006-.002-.001-.012.001zm-5.873-.03l-4.052-.022V4.37h4.052v.322zm-6.176-.03l-3.701-.011V4.37h3.701v.293zm-5.824-.018l-3.609-.01V4.37h3.609v.275" fill="#F89B21"/><path d="M153.991 3.626h-4.108v-.502h3.983a1.4 1.4 0 01.125.502zm-6.233 0h-4.053v-.223.009-.288h4.053v.502zm-6.176 0h-3.701v-.223.009-.288h3.701v.502zm-5.824 0h-3.609v-.502h3.609v.502z" fill="#FACF60"/><path d="M132.149 8.164l10.741.033 10.741.055-10.741.056-10.741.033v-.177M132.149 6.4l10.741.032 10.741.056-10.741.056-10.741.032v-.177M132.149 4.635l10.741.032 10.741.056-10.741.056-10.741.032v-.176" fill="#F68623"/><path d="M135.758 10.151V2.706c0-.673 2.123-.673 2.123 0v7.445c0 .672-2.123.672-2.123 0z" fill="#B11D23"/><path d="M136.82 10.655c.53 0 1.061-.168 1.061-.504v-.134.134c0 .336-.53.504-1.061.504" fill="#98BAC5"/><path d="M137.881 10.017v-.279.28z" fill="#91721B"/><path d="M136.82 10.655c-.531 0-1.062-.168-1.062-.504V4.486l.001.005c.114.34.175.695.175 1.053v3.901c0 .336.53.504 1.061.504.343 0 .686-.07.886-.21V10.15c0 .336-.531.504-1.062.504" fill="#87181C"/><path d="M137.881 2.94v-.083.082z" fill="#fff"/><path d="M137.881 3.124V2.94v.185z" fill="#FACE5D"/><path d="M137.881 3.412V3.124v.288" fill="#FCDF8A"/><path d="M135.758 3.411v-.553c.228-.207.646-.304 1.062-.304.416 0 .833.097 1.061.303v.547c-.008-.331-.535-.497-1.061-.497-.531 0-1.062.168-1.062.504" fill="#ED1C26"/><path d="M147.758 10.151V2.706c0-.673 2.125-.673 2.125 0v7.445c0 .672-2.125.672-2.125 0" fill="#B11D23"/><path d="M148.821 10.655c-.531 0-1.063-.168-1.063-.504V4.486l.003.005c.113.34.174.695.174 1.053v3.901c0 .336.53.504 1.061.504.342 0 .687-.07.887-.21V10.15c0 .336-.532.504-1.062.504" fill="#87181C"/><path d="M149.883 3.412c0-.336-.532-.505-1.062-.505-.531 0-1.061.168-1.063.504v-.553c.228-.207.647-.304 1.063-.304.415 0 .834.097 1.062.304v.554z" fill="#ED1C26"/><path d="M141.582 10.151V2.706c0-.673 2.123-.673 2.123 0v7.445c0 .672-2.123.672-2.123 0" fill="#B11D23"/><path d="M142.644 10.655c.531 0 1.061-.168 1.061-.504v-.134.134c0 .336-.53.504-1.061.504z" fill="#98BAC5"/><path d="M142.644 10.655c-.508 0-1.017-.153-1.059-.461a.295.295 0 01-.003-.043V4.486l.001.005c.114.34.175.695.175 1.053v3.901c0 .336.53.504 1.061.504.343 0 .686-.07.887-.21V10.15c0 .336-.531.504-1.062.504" fill="#87181C"/><path d="M141.582 3.411v-.553c.228-.207.646-.304 1.062-.304.415 0 .833.097 1.061.303v.547c-.008-.331-.535-.497-1.061-.497-.531 0-1.062.168-1.062.504" fill="#ED1C26"/><path d="M129.959 14.659h-9.313a2.19 2.19 0 01-2.189-2.19V2.19c0-1.209.98-2.189 2.189-2.189h9.313c1.209 0 2.19.98 2.19 2.19v10.28a2.19 2.19 0 01-2.19 2.189z" fill="#B11D23"/><path d="M121.755 1.77h.002-.002zm.005 0h0zm-.075-.004M123.52 1.77h0zm.005 0h0zm-.572-.563zm0-.004V1.2v.002zm0-.004v-.002.002zm0-.005v-.002.002zm0-.005v-.002.002zm0-.005v-.001.001zm0-.004v-.001zM125.285 1.77h0zm.004 0h.002-.002zm-.075-.004M127.05 1.77h0zm.004 0h.002-.002zm-.572-.563zm0-.004V1.2v.002zm0-.004v-.002.002zm0-.005v-.002.002zm.001-.005v-.002.002zm0-.005v-.001.001zm0-.004v-.001zM128.815 1.77h.001-.001zm.004 0h0zm-.572-.563zm0-.004V1.2v.002zm0-.004v-.002.002zm0-.005v-.002.002zm0-.005l.001-.002-.001.002zm.001-.005v-.002.002zm0-.004v-.001zM121.751 3.535zm.004 0h0zm.005 0h.001-.001zM123.52 3.535h0zm.005 0h0zm-.572-.563zm0-.004v-.002.002zm0-.005v-.001.001zm0-.005zm0-.005zm0-.004zM125.281 3.535zm.004 0h0zm.005 0zM127.05 3.535h0zm.004 0h0zm-.572-.563zm0-.004v-.002.002zm0-.005v-.001.001zm0-.005zm.001-.005zm0-.004zM128.815 3.535h.001-.001zm.004 0h0zm-.572-.563zm0-.004v-.002.002zm0-.005v-.001.001zm0-.004v-.001zm0-.006zm.001-.004zM130.575 3.535zm.005 0h.001-.001zm.004 0h0zm-.558-.44zm-.014-.123zm0-.004v-.002.002zm0-.005v-.001.001zm0-.005zm0-.005zm0-.004zM121.751 5.3zm.004 0h0zm.005 0h.001-.001zm-.56-.68v-.002.001zM123.52 5.3h0zm.005 0h0zm-.572-.568zm0-.004zM125.281 5.3zm.004 0h0zm.005 0zm-.56-.68v-.002.001zM127.05 5.3h0zm.004 0h0zm-.572-.568zm0-.004zM128.815 5.3h.001-.001zm.004 0h0zm-.572-.568zm0-.004v-.001.001zm0-.005zM130.575 5.3zm.005 0h.001-.001zm.004 0h0zm-.572-.568zm0-.004zM121.751 7.065zm.004 0h0zm.005 0h.001-.001zM123.52 7.065h0zm.005 0h0zm-.572-.568zm0-.004v-.001zM125.281 7.065zm.004 0h0zm.005 0zM127.05 7.065h0zm.004 0h0zm-.572-.568zm0-.004v-.001zM128.815 7.065h.001-.001zm.004 0h0zm-.572-.568zm0-.004v-.001zm0-.005zM130.575 7.065zm.005 0h.001-.001zm.004 0h0zm-.572-.568zm0-.004v-.001zM121.751 8.83zm.004 0h0zm.005 0h.001-.001zM123.52 8.83h0zm.005 0h0zm-.572-.568zm0-.004v-.001zM125.281 8.83zm.004 0h0zm.005 0zM127.05 8.83h0zm.004 0h0zm-.572-.568zm0-.004v-.001zM128.815 8.83h.001-.001zm.004 0h0zm-.572-.568v-.001.001zm0-.004v-.001zm0-.005zM130.575 8.83zm.005 0h.001-.001zm.004 0h0zm-.572-.568zm0-.004v-.001zM121.751 10.595zm.004 0h0zm.005 0h.001-.001zM123.52 10.595h0zm.005 0h0zm-.572-.568zm0-.004v-.001zM125.281 10.595zm.004 0h0zm.005 0zM127.05 10.595h0zm.004 0h0zm-.572-.568zm0-.004v-.001zM128.815 10.595h.001-.001zm.004 0h0zm-.572-.568v-.001.001zm0-.004v-.001zm0-.006zM130.575 10.595zm.005 0h.001-.001zm.004 0h0zm-.572-.568zm0-.004v-.001zM121.751 12.36l-.033-.001h.033zm.004 0h0zm.005 0h.001-.001zm-.238-.049zm-.003-.002zM123.52 12.36h0zm.005 0h0zm-.572-.568v-.001zm0-.005zM125.281 12.36l-.033-.001h.033zm.004 0h0zm.005 0zm-.238-.049zm-.003-.002zM127.05 12.36h0zm.004 0h0zm-.572-.568v-.001zm0-.005zM128.815 12.36h.001-.001zm.004 0h0zm-.572-.568v-.001zm0-.005zm0-.005zM130.575 12.36zm.005 0h.001-.001zm.004 0h0zm-.572-.568v-.001zm0-.005z" fill="#193B5B"/><path d="M129.959 14.659h-.348.355-.007zm.01 0h.004-.004zm.007 0h.003-.003zm.006 0h.004-.004zm.007 0h0zm.007 0h.003-.003zm.006 0h.004-.004zm.007 0h.004-.004zm.011-.001h0zm.007 0h.002-.002zm.006 0h0zm.007 0h.002-.002zm.006-.001h0zm.007 0h0zm.006 0h0zM118.457 2.19v-.007.007zm0-.01v-.004.004zm0-.007V2.17v.004zm0-.007v-.003.003zm0-.006v-.004.004zm0-.007v-.004.004zm0-.007v-.003.003zm0-.007v-.002.002zm.001-.01v-.002.002zm0-.006V2.12v.003zm0-.007v-.002.002zm0-.007v-.002.002zm0-.006l.001-.002-.001.002zm.001-.007v-.001z" fill="#C3D7DD"/><path d="M119.986 5.3h.001-.001zm.004 0h0zm.005 0h.002-.002zm.004 0h0zm.005 0h0zm.005 0h0zm.005 0zm-.591-.568zm0-.004zM119.986 7.065h.001-.001zm.004 0h0zm.005 0h.002-.002zm.004 0h0zm.005 0h0zm.005 0h0zm.005 0zm-.591-.568zm0-.004v-.001zM119.986 8.83h.001-.001zm.004 0h0zm.005 0h.002-.002zm.004 0h0zm.005 0h0zm.005 0h0zm.005 0zm-.591-.568zm0-.004v-.001zM119.986 10.595h.001-.001zm.004 0h0zm.005 0h.002-.002zm.004 0h0zm.005 0h0zm.005 0h0zm.005-.001zm-.591-.567zm0-.004v-.001zM119.986 12.36h.001-.001zm.004 0h0zm.005 0h.002-.002zm.004 0h0zm.005 0h0zm.005 0l.001-.001h-.001zm.005-.001zm-.591-.567v-.001zm0-.005zM121.751 14.124zm.004 0h.002-.002zm.005 0h0zm-.56-.681zM123.52 14.124h0zm.005 0h0zm-.572-.567v-.002.002zm0-.005zM125.281 14.124zm.004 0h0zm.004 0h.002-.002zm-.559-.681zM127.05 14.124h0zm.004 0h.002-.002zm-.572-.567v-.002.002zm0-.005zM128.815 14.124h.001-.001zm.004 0h0zm-.572-.567v-.002.002zm0-.005v-.001.001zm0-.005z" fill="#183350"/><path d="M114.832 11.121h0zm.006 0h.001-.001zm.008 0h0zm.006 0l.003-.001h-.003zm.006-.001h.005-.005zm.007 0h.004-.004zm.007 0h.004-.004zm.006 0h.006-.006zm.008 0h.004-.004zm.006 0h.006-.006z" fill="#fff"/><path d="M115.707 16.394l.002-.007-.002.007zm.002-.008c.055-.305.175-.586.343-.828l.002-.001a2.112 2.112 0 00-.345.83" fill="#6D99AD"/><path d="M131.469 1.95c-.152 0-.36-.364-.696-.7-.392-.392-.81-.596-.653-.754a.216.216 0 01.158-.055c.209 0 .539.182.838.48.393.393.583.839.425.997a.1.1 0 01-.072.033" fill="#ED1C26"/></g><g clip-path="url(#clip1)"><path fill-rule="evenodd" clip-rule="evenodd" d="M72.178 11.473s-1.24 2.163-2.738 1.403l-.484 1.714-7.867-2.117.47-3.654s-2.073-1.582-1.241-4.401c.832-2.82 5.068-3.878 7.625-3.237 2.557.642 4.402 3.998 4.644 6.235s-.409 4.057-.409 4.057z" fill="#D2D3D3"/><path d="M72.179 11.473s.65-1.82.408-4.057c-.162-1.5-1.044-3.502-2.379-4.853-2.082.862-5.614 2.508-4.716 3.436.995 1.028 4.903 4.414 6.485 5.778.13-.179.202-.304.202-.304z" fill="#66686C"/><path fill-rule="evenodd" clip-rule="evenodd" d="M86.326 20.055s-8.954-3.402-11.148-3.7c-2.195-.298-5.794-1.343-7.988-2.7-2.194-1.357-8.593-4.176-11.028-.179-2.437 3.997.892 7.293.892 7.293l29.332 2-.06-2.714z" fill="#D2D3D3"/><path fill-rule="evenodd" clip-rule="evenodd" d="M139.565 39.403l-2.338 3.56s-3.031-2.373-14.669-2.373-15.015 1.869-15.015 1.869l-.831-1.596-68.113.913-13.56.41H12.36L1.14 39.333S-.245 37.123.17 35.936c.416-1.187 2.104-1.323 2.104-1.323l3.888-2.374 5.715-9.306 5.923-4.038 21.838 4.312 2.546 11.474 59.713 3.903 4.512-12.799 11.015-4.38 8.607-.135 13.188 5.976.346 12.157z" fill="#171514"/><path fill-rule="evenodd" clip-rule="evenodd" d="M111.268 18.486l-3.385-1.894S93.764 8.165 82.007 4.74c0 0-2.097 1.215-1.746 2.675 0 0 7.052 4.798 9.237 9.699 0 0-18.648-.363-22.563-.781-3.914-.419-6.363-4.222-7.14-7.3-.776-3.078-1.143-5.492-3.312-5.492-2.17 0-5.908.275-6.7.954-.792.679-2.009 4.538-2.009 4.538l4.266 8.933 58.964 3.007.264-2.486zM109.956 36.992c-.001-6.866 5.644-12.431 12.608-12.431s12.609 5.567 12.609 12.433c.001 6.866-5.644 12.432-12.608 12.431-6.964 0-12.609-5.566-12.609-12.433z" fill="#252423"/><path fill-rule="evenodd" clip-rule="evenodd" d="M113.607 36.993c0-4.878 4.01-8.832 8.957-8.832 4.947 0 8.958 3.955 8.958 8.833 0 4.877-4.01 8.831-8.957 8.831-4.947 0-8.957-3.955-8.958-8.832z" fill="#66686C"/><path fill-rule="evenodd" clip-rule="evenodd" d="M114.765 36.993c0-4.247 3.492-7.69 7.799-7.69 4.308 0 7.8 3.443 7.8 7.69 0 4.248-3.492 7.69-7.799 7.69s-7.8-3.443-7.8-7.69z" fill="#66686C"/><path d="M130.571 36.863c0-.665-.086-1.31-.247-1.924-1.71.321-3.931 1.083-4.237 1.678-.41.798 1.97 2.281 3.846 3.296.41-.935.638-1.967.638-3.05zm-.796-3.388a7.784 7.784 0 00-3.67-3.567c-.89 1.485-1.798 3.697-1.538 4.325.351.852 3.187-.014 5.208-.758zm-5.589-4.177a7.967 7.967 0 00-1.415-.126c-1.33 0-2.581.328-3.676.905.647 1.594 1.827 3.595 2.477 3.776.904.254 1.966-2.522 2.614-4.555zm-6.816 2.016a7.633 7.633 0 00-2.316 4.418c1.66.418 3.834.657 4.352.27.733-.547-.793-2.96-2.036-4.688zm-2.358 6.343a7.608 7.608 0 002.022 4.417c1.325-1.03 2.765-2.5 2.775-3.122.013-.878-2.678-1.187-4.797-1.294zm3.49 5.643a7.844 7.844 0 004.7 1.241c-.007-1.664-.295-3.695-.787-4.086-.681-.54-2.53 1.283-3.913 2.845zm6.467.943a7.806 7.806 0 004.049-2.776c-1.325-1.073-3.202-2.203-3.839-2.068-.862.184-.576 2.792-.21 4.844z" fill="#100F0D"/><path fill-rule="evenodd" clip-rule="evenodd" d="M120.172 37.141c0-1.275 1.049-2.31 2.342-2.31 1.294.001 2.343 1.035 2.343 2.31 0 1.276-1.049 2.31-2.342 2.31-1.294 0-2.343-1.034-2.343-2.31z" fill="#252423"/><path fill-rule="evenodd" clip-rule="evenodd" d="M120.666 36.993c0-1.034.85-1.872 1.898-1.872 1.049 0 1.899.838 1.899 1.872.001 1.035-.85 1.873-1.898 1.873-1.049 0-1.899-.839-1.899-1.873z" fill="#66686C"/><path fill-rule="evenodd" clip-rule="evenodd" d="M9.088 36.988c0-6.866 5.645-12.432 12.61-12.432 6.963 0 12.608 5.567 12.608 12.433.001 6.866-5.644 12.432-12.608 12.432s-12.61-5.567-12.61-12.433z" fill="#252423"/><path fill-rule="evenodd" clip-rule="evenodd" d="M12.74 36.988c0-4.878 4.01-8.832 8.957-8.831 4.947 0 8.957 3.954 8.957 8.832s-4.009 8.832-8.956 8.832c-4.947 0-8.957-3.955-8.958-8.833z" fill="#66686C"/><path fill-rule="evenodd" clip-rule="evenodd" d="M13.898 36.988c0-4.247 3.492-7.69 7.799-7.69 4.308 0 7.8 3.444 7.8 7.69 0 4.248-3.491 7.69-7.8 7.69-4.306 0-7.799-3.443-7.799-7.69z" fill="#66686C"/><path d="M29.697 36.862a7.61 7.61 0 00-.246-1.924c-1.71.321-3.931 1.083-4.237 1.678-.41.798 1.97 2.281 3.845 3.296.41-.935.638-1.967.638-3.05zm-.795-3.388a7.78 7.78 0 00-3.671-3.567c-.89 1.485-1.798 3.698-1.538 4.326.352.851 3.188-.015 5.209-.76zm-5.59-4.176a7.97 7.97 0 00-1.416-.127c-1.328 0-2.58.328-3.675.906.647 1.593 1.827 3.594 2.478 3.776.903.253 1.965-2.523 2.613-4.555zm-6.816 2.015a7.634 7.634 0 00-2.315 4.418c1.659.418 3.833.657 4.351.27.734-.547-.793-2.96-2.036-4.688zm-2.358 6.344a7.612 7.612 0 002.023 4.416c1.324-1.03 2.765-2.5 2.774-3.122.014-.878-2.677-1.187-4.797-1.294zm3.49 5.642a7.846 7.846 0 004.7 1.241c-.007-1.664-.295-3.695-.787-4.086-.68-.54-2.53 1.283-3.912 2.845zm6.468.943a7.818 7.818 0 004.05-2.776c-1.326-1.073-3.203-2.203-3.84-2.067-.863.183-.576 2.791-.21 4.843z" fill="#100F0D"/><path fill-rule="evenodd" clip-rule="evenodd" d="M19.305 37.137c0-1.276 1.049-2.31 2.343-2.31 1.293 0 2.342 1.035 2.342 2.31 0 1.275-1.049 2.31-2.342 2.31-1.294 0-2.343-1.035-2.343-2.31z" fill="#252423"/><path fill-rule="evenodd" clip-rule="evenodd" d="M19.798 36.988c0-1.033.85-1.872 1.9-1.872 1.048 0 1.898.839 1.898 1.873s-.85 1.872-1.898 1.872c-1.05 0-1.9-.838-1.9-1.873z" fill="#66686C"/><path fill-rule="evenodd" clip-rule="evenodd" d="M136.88 43.543s1.932-9.156-2.237-14.758c-4.168-5.602-11.411-8.331-19.973-3.555-8.563 4.777-6.76 17.472-6.76 18.82l-1.481-1.57-27.216-.794-40.978.872-2.204 1.492s1.24-8.442-.403-12.98c-1.642-4.539-4.474-9.348-13.68-9.665-9.206-.317-16.74 7.808-14.534 18.424 0 0-2.833-.667-4.797-2.206 0 0-3.411-7.094-2.445-15.504l1.963-2.095s-.194-2.92.483-4.538l.917-.08s-1.045-1.38-.402-2.92c0 0 10.172.905 11.331 1.064 1.159.159 16.481-4.015 25.607-4.967C49.197 7.631 56.6 6.806 56.6 6.806s-.033 10.172 10.928 11.045c10.96.873 25.527-.032 33.333-.27 7.806-.238 21.373-.92 31.819 1.81 10.445 2.73 16.481 7.347 16.883 8.172.403.826 1.24 4.38-1.561 9.902 0 0 2.575.397 1.368 1.936-1.207 1.54-11.089 2.84-11.089 2.84l-1.401 1.302z" fill="#B11D23"/><path d="M108.411 16.888l-.528-.296S94.694 8.72 83.196 5.1c-.299.724-.268 1.6.819 2.4 2.433 1.793 12.27 9.7 12.27 9.7l12.126-.312z" fill="#66686C"/><path d="M145.976 40.817c1.635-.42 2.993-.905 3.394-1.416 1.207-1.539-1.368-1.936-1.368-1.936 2.801-5.522 1.964-9.077 1.561-9.902-.402-.825-6.438-5.443-16.883-8.172-10.445-2.73-24.013-2.048-31.819-1.81-7.806.238-22.372 1.143-33.333.27C56.568 16.978 56.6 6.806 56.6 6.806s-7.404.825-16.529 1.777-24.448 5.126-25.607 4.967c-1.158-.159-11.331-1.063-11.331-1.063-.076.18-.127.359-.16.533.749 1.774 3.327 3.092 3.327 3.092s9.716-.82 20.315-.546c10.597.273 36.368 4.79 46.179 4.653 9.81-.137 33.779-1.87 47.105-1.46 13.327.41 23.969 5.703 27.485 9.034 2.564 2.428.109 9.416-1.408 13.024z" fill="#ED1C26"/><path d="M56.856 8.87c-9.605.51-21.63 1.465-19.877 3 2.054 1.797 15.246 3.525 25.049 4.41-3.47-1.964-4.721-5.268-5.172-7.41zM17.335 13.049c12.379.737 41.27 4.043 41.27 4.043-12.636-2.145-25.796-4.009-36.743-5.064-1.745.396-3.296.752-4.527 1.02z" fill="#B11D23"/><path fill-rule="evenodd" clip-rule="evenodd" d="M137.232 30.252s-3.84-8.413-12.373-8.76c-8.533-.346-12.724 3.18-14.895 6.273 0 0 3.509-10.209 15.335-8.512 9.662 1.386 11.933 11 11.933 11zM34.008 24.585s-5.382-6.273-13.752-4.9c-8.37 1.373-11.407 5.58-13.063 8.846 0 0 2.61-9.539 12.623-10.22 10.014-.68 14.192 6.274 14.192 6.274z" fill="#ED1C26"/><path d="M3.274 15.43l-.655.056c-.554 1.325-.525 3.524-.496 4.276.415.064.89.064.89.064 1.421-.534 3.926-2.207 2.627-2.622-.764-.245-1.712-1.105-2.366-1.775z" fill="#252423"/><path fill-rule="evenodd" clip-rule="evenodd" d="M40.437 35.714l66.092 1.266.528-.906-64.86-.554-1.76.194z" fill="#87181C"/><path fill-rule="evenodd" clip-rule="evenodd" d="M100.352 17.647s2.123 4.116.922 10.576c-1.201 6.46-2.612 8.196-2.612 8.196l-.839-.07s3.253-7.769 2.961-12.575c-.292-4.805-1.2-6.058-1.2-6.058l.768-.069zM51.559 8.128s1.283 7.219.501 8.058c-.781.84-1.13 1.335.14 4.668 1.271 3.333 6.552 14.737 6.552 14.737l-.7.138S51.909 22.866 51.21 20.22c-.7-2.644-.979-3.621-.35-3.897.63-.276.84-2.15.49-4.793-.35-2.644-.35-3.678-.35-3.678l.56.275z" fill="#87181C"/><path fill-rule="evenodd" clip-rule="evenodd" d="M98.629 36.735s-1.358 3.893-3.085 4.015l-53.8-.61s49.733-.562 51.541-1.296c1.808-.734 1.726-1.54 1.726-1.54l-38.998-1.541 42.616.972z" fill="#100F0D"/><path fill-rule="evenodd" clip-rule="evenodd" d="M41.627 9.666s-2.554 4.8-3.59 4.92c-1.034.12-5.233-.86-6.591 1.28-1.36 2.14-5.01 5.9-5.01 5.9s4.198-6.94 5.8-7.42c1.604-.48 5.579.38 6.309-.6.73-.98 2.515-4.14 2.515-4.14l.567.06zM141.591 22.635l-7.437 3.35-.336-.364 6.934-3.383.839.397z" fill="#87181C"/></g><defs><clipPath id="clip0"><path fill="#fff" transform="translate(114)" d="M0 0h40v21.192H0z"/></clipPath><clipPath id="clip1"><path fill="#fff" transform="matrix(-1 0 0 1 150 1)" d="M0 0h150v48.425H0z"/></clipPath></defs></svg>