<svg width="150" height="49" fill="none" xmlns="http://www.w3.org/2000/svg"><g clip-path="url(#clip0)"><path fill-rule="evenodd" clip-rule="evenodd" d="M72.178 10.473s-1.24 2.163-2.738 1.403l-.484 1.714-7.867-2.117.47-3.654s-2.073-1.582-1.241-4.401C61.15.598 65.386-.46 67.943.18c2.557.642 4.402 3.998 4.644 6.235s-.409 4.057-.409 4.057z" fill="#D2D3D3"/><path d="M72.179 10.473s.65-1.82.408-4.057c-.162-1.5-1.044-3.502-2.379-4.853-2.082.862-5.614 2.508-4.716 3.436.995 1.028 4.903 4.414 6.485 5.778.13-.179.202-.304.202-.304z" fill="#66686C"/><path fill-rule="evenodd" clip-rule="evenodd" d="M86.326 19.055s-8.954-3.402-11.148-3.7c-2.195-.298-5.794-1.343-7.988-2.7-2.194-1.357-8.593-4.176-11.028-.179-2.437 3.997.892 7.293.892 7.293l29.332 2-.06-2.714z" fill="#D2D3D3"/><path fill-rule="evenodd" clip-rule="evenodd" d="M139.565 38.403l-2.338 3.56s-3.031-2.373-14.669-2.373-15.015 1.869-15.015 1.869l-.831-1.596-68.113.913-13.56.41H12.36L1.14 38.333S-.245 36.123.17 34.936c.416-1.187 2.104-1.323 2.104-1.323l3.888-2.374 5.715-9.306 5.923-4.038 21.838 4.312 2.546 11.474 59.713 3.903 4.512-12.799 11.015-4.38 8.607-.135 13.188 5.976.346 12.157z" fill="#171514"/><path fill-rule="evenodd" clip-rule="evenodd" d="M111.268 17.486l-3.385-1.894S93.764 7.164 82.007 3.74c0 0-2.097 1.215-1.746 2.675 0 0 7.052 4.798 9.237 9.699 0 0-18.648-.363-22.563-.781-3.914-.419-6.363-4.222-7.14-7.3-.776-3.078-1.143-5.492-3.312-5.492-2.17 0-5.908.275-6.7.954-.792.679-2.009 4.538-2.009 4.538l4.266 8.933 58.964 3.007.264-2.486zM109.956 35.992c-.001-6.866 5.644-12.431 12.608-12.431s12.609 5.567 12.609 12.433c.001 6.866-5.644 12.432-12.608 12.431-6.964 0-12.609-5.566-12.609-12.433z" fill="#252423"/><path fill-rule="evenodd" clip-rule="evenodd" d="M113.607 35.993c0-4.878 4.01-8.832 8.957-8.832 4.947 0 8.958 3.955 8.958 8.833 0 4.877-4.01 8.831-8.957 8.831-4.947 0-8.957-3.955-8.958-8.832z" fill="#66686C"/><path fill-rule="evenodd" clip-rule="evenodd" d="M114.765 35.993c0-4.247 3.492-7.69 7.799-7.69 4.308 0 7.8 3.443 7.8 7.69 0 4.248-3.492 7.69-7.799 7.69s-7.8-3.443-7.8-7.69z" fill="#66686C"/><path d="M130.571 35.863c0-.665-.086-1.31-.247-1.924-1.71.321-3.931 1.083-4.237 1.678-.41.798 1.97 2.281 3.846 3.296.41-.935.638-1.967.638-3.05zm-.796-3.388a7.784 7.784 0 00-3.67-3.567c-.89 1.485-1.798 3.697-1.538 4.325.351.852 3.187-.014 5.208-.758zm-5.589-4.177a7.967 7.967 0 00-1.415-.126c-1.33 0-2.581.328-3.676.905.647 1.594 1.827 3.595 2.477 3.776.904.254 1.966-2.522 2.614-4.555zm-6.816 2.016a7.633 7.633 0 00-2.316 4.418c1.66.418 3.834.657 4.352.27.733-.547-.793-2.96-2.036-4.688zm-2.358 6.343a7.608 7.608 0 002.022 4.417c1.325-1.03 2.765-2.5 2.775-3.122.013-.878-2.678-1.187-4.797-1.294zm3.49 5.643a7.844 7.844 0 004.7 1.241c-.007-1.664-.295-3.695-.787-4.086-.681-.54-2.53 1.283-3.913 2.845zm6.467.943a7.806 7.806 0 004.049-2.776c-1.325-1.073-3.202-2.203-3.839-2.068-.862.184-.576 2.792-.21 4.844z" fill="#100F0D"/><path fill-rule="evenodd" clip-rule="evenodd" d="M120.172 36.141c0-1.275 1.049-2.31 2.342-2.31 1.294.001 2.343 1.035 2.343 2.31 0 1.276-1.049 2.31-2.342 2.31-1.294 0-2.343-1.034-2.343-2.31z" fill="#252423"/><path fill-rule="evenodd" clip-rule="evenodd" d="M120.666 35.993c0-1.034.85-1.872 1.898-1.872 1.049 0 1.899.838 1.899 1.872.001 1.035-.85 1.873-1.898 1.873-1.049 0-1.899-.839-1.899-1.873z" fill="#66686C"/><path fill-rule="evenodd" clip-rule="evenodd" d="M9.088 35.988c0-6.866 5.645-12.432 12.61-12.432 6.963 0 12.608 5.567 12.608 12.433.001 6.866-5.644 12.432-12.608 12.432s-12.61-5.567-12.61-12.433z" fill="#252423"/><path fill-rule="evenodd" clip-rule="evenodd" d="M12.74 35.988c0-4.878 4.01-8.832 8.957-8.831 4.947 0 8.957 3.954 8.957 8.832s-4.009 8.832-8.956 8.832c-4.947 0-8.957-3.955-8.958-8.833z" fill="#66686C"/><path fill-rule="evenodd" clip-rule="evenodd" d="M13.898 35.988c0-4.247 3.492-7.69 7.799-7.69 4.308 0 7.8 3.444 7.8 7.69 0 4.248-3.491 7.69-7.8 7.69-4.306 0-7.799-3.443-7.799-7.69z" fill="#66686C"/><path d="M29.697 35.862a7.61 7.61 0 00-.246-1.924c-1.71.321-3.931 1.083-4.237 1.678-.41.798 1.97 2.281 3.845 3.296.41-.935.638-1.967.638-3.05zm-.795-3.388a7.78 7.78 0 00-3.671-3.567c-.89 1.485-1.798 3.698-1.538 4.326.352.851 3.188-.015 5.209-.76zm-5.59-4.176a7.97 7.97 0 00-1.416-.127c-1.328 0-2.58.328-3.675.906.647 1.593 1.827 3.594 2.478 3.776.903.253 1.965-2.523 2.613-4.555zm-6.816 2.015a7.634 7.634 0 00-2.315 4.418c1.659.418 3.833.657 4.351.27.734-.547-.793-2.96-2.036-4.688zm-2.358 6.344a7.612 7.612 0 002.023 4.416c1.324-1.03 2.765-2.5 2.774-3.122.014-.878-2.677-1.187-4.797-1.294zm3.49 5.642a7.846 7.846 0 004.7 1.241c-.007-1.664-.295-3.695-.787-4.086-.68-.54-2.53 1.283-3.912 2.845zm6.468.943a7.818 7.818 0 004.05-2.776c-1.326-1.073-3.203-2.203-3.84-2.067-.863.183-.576 2.791-.21 4.843z" fill="#100F0D"/><path fill-rule="evenodd" clip-rule="evenodd" d="M19.305 36.137c0-1.276 1.049-2.31 2.343-2.31 1.293 0 2.342 1.035 2.342 2.31 0 1.275-1.049 2.31-2.342 2.31-1.294 0-2.343-1.035-2.343-2.31z" fill="#252423"/><path fill-rule="evenodd" clip-rule="evenodd" d="M19.798 35.988c0-1.033.85-1.872 1.9-1.872 1.048 0 1.898.839 1.898 1.873s-.85 1.872-1.898 1.872c-1.05 0-1.9-.838-1.9-1.873z" fill="#66686C"/><path fill-rule="evenodd" clip-rule="evenodd" d="M136.88 42.543s1.932-9.156-2.237-14.758c-4.168-5.602-11.411-8.331-19.973-3.555-8.563 4.777-6.76 17.472-6.76 18.82l-1.481-1.57-27.216-.794-40.978.872-2.204 1.492s1.24-8.442-.403-12.98c-1.642-4.539-4.474-9.348-13.68-9.665-9.206-.317-16.74 7.808-14.534 18.424 0 0-2.833-.667-4.797-2.206 0 0-3.411-7.094-2.445-15.504l1.963-2.095s-.194-2.92.483-4.538l.917-.08s-1.045-1.38-.402-2.92c0 0 10.172.905 11.331 1.064 1.159.159 16.481-4.015 25.607-4.967C49.197 6.631 56.6 5.806 56.6 5.806s-.033 10.172 10.928 11.045c10.96.873 25.527-.032 33.333-.27 7.806-.238 21.373-.92 31.819 1.81 10.445 2.73 16.481 7.347 16.883 8.172.403.826 1.24 4.38-1.561 9.902 0 0 2.575.397 1.368 1.936-1.207 1.54-11.089 2.84-11.089 2.84l-1.401 1.302z" fill="#B11D23"/><path d="M108.411 15.888l-.528-.296S94.694 7.72 83.196 4.1c-.299.724-.268 1.6.819 2.4 2.433 1.793 12.27 9.7 12.27 9.7l12.126-.312z" fill="#66686C"/><path d="M145.976 39.817c1.635-.42 2.993-.905 3.394-1.416 1.207-1.539-1.368-1.936-1.368-1.936 2.801-5.522 1.964-9.077 1.561-9.902-.402-.825-6.438-5.443-16.883-8.172-10.445-2.73-24.013-2.048-31.819-1.81-7.806.238-22.372 1.143-33.333.27C56.568 15.978 56.6 5.806 56.6 5.806s-7.404.825-16.529 1.777-24.448 5.126-25.607 4.967c-1.158-.159-11.331-1.063-11.331-1.063-.076.18-.127.359-.16.533.749 1.774 3.327 3.092 3.327 3.092s9.716-.82 20.315-.546c10.597.273 36.368 4.79 46.179 4.653 9.81-.137 33.779-1.87 47.105-1.46 13.327.41 23.969 5.703 27.485 9.034 2.564 2.428.109 9.416-1.408 13.024z" fill="#ED1C26"/><path d="M56.856 7.87c-9.605.51-21.63 1.465-19.877 3 2.054 1.797 15.246 3.525 25.049 4.41-3.47-1.964-4.721-5.268-5.172-7.41zM17.335 12.049c12.379.737 41.27 4.043 41.27 4.043-12.636-2.145-25.796-4.009-36.743-5.064-1.745.396-3.296.752-4.527 1.02z" fill="#B11D23"/><path fill-rule="evenodd" clip-rule="evenodd" d="M137.232 29.252s-3.84-8.413-12.373-8.76c-8.533-.346-12.724 3.18-14.895 6.273 0 0 3.509-10.209 15.335-8.512 9.662 1.386 11.933 11 11.933 11zM34.008 23.585s-5.382-6.273-13.752-4.9c-8.37 1.373-11.407 5.58-13.063 8.846 0 0 2.61-9.539 12.623-10.22 10.014-.68 14.192 6.274 14.192 6.274z" fill="#ED1C26"/><path d="M3.274 14.43l-.655.056c-.554 1.325-.525 3.524-.496 4.276.415.064.89.064.89.064 1.421-.534 3.926-2.207 2.627-2.622-.764-.245-1.712-1.105-2.366-1.775z" fill="#252423"/><path fill-rule="evenodd" clip-rule="evenodd" d="M40.437 34.714l66.092 1.266.528-.906-64.86-.554-1.76.194z" fill="#87181C"/><path fill-rule="evenodd" clip-rule="evenodd" d="M100.352 16.647s2.123 4.116.922 10.576c-1.201 6.46-2.612 8.196-2.612 8.196l-.839-.07s3.253-7.769 2.961-12.575c-.292-4.805-1.2-6.058-1.2-6.058l.768-.069zM51.559 7.128s1.283 7.219.501 8.058c-.781.84-1.13 1.335.14 4.668 1.271 3.333 6.552 14.737 6.552 14.737l-.7.138S51.909 21.866 51.21 19.22c-.7-2.644-.979-3.621-.35-3.897.63-.275.84-2.15.49-4.793-.35-2.644-.35-3.678-.35-3.678l.56.275z" fill="#87181C"/><path fill-rule="evenodd" clip-rule="evenodd" d="M98.629 35.735s-1.358 3.893-3.085 4.015l-53.8-.61s49.733-.562 51.541-1.296c1.808-.734 1.726-1.54 1.726-1.54l-38.998-1.541 42.616.972z" fill="#100F0D"/><path fill-rule="evenodd" clip-rule="evenodd" d="M41.627 8.666s-2.554 4.8-3.59 4.92c-1.034.12-5.233-.86-6.591 1.28-1.36 2.14-5.01 5.9-5.01 5.9s4.198-6.94 5.8-7.42c1.604-.48 5.579.38 6.309-.6.73-.98 2.515-4.14 2.515-4.14l.567.06zM141.591 21.635l-7.437 3.35-.336-.364 6.934-3.383.839.397z" fill="#87181C"/></g><defs><clipPath id="clip0"><path fill="#fff" transform="matrix(-1 0 0 1 150 0)" d="M0 0h150v48.425H0z"/></clipPath></defs></svg>