<svg width="400" height="301" viewBox="0 0 400 301" fill="none" xmlns="http://www.w3.org/2000/svg">
<g clip-path="url(#clip0)">
<path d="M207.867 40.4548C205.589 40.4021 203.306 40.3673 201.007 40.3673C199.441 40.3673 197.881 40.3822 196.324 40.4071C197.886 40.3822 199.446 40.3673 201.007 40.3673C203.294 40.3723 205.58 40.4021 207.867 40.4548Z" fill="white"/>
<path d="M111.883 55.568C104.775 58.1562 97.8606 61.2498 91.1249 64.6609C84.4042 68.0984 77.859 71.9078 71.7635 76.342C59.5779 85.119 48.6117 95.9368 41.5064 109.048C34.2807 122.031 31.9687 137.56 35.6562 151.761C39.2637 166.02 48.186 178.478 59.0973 188.363C70.0348 198.338 82.9505 206.066 96.4761 212.221C110.055 218.336 124.357 222.814 138.896 226.138L139.835 226.352L140.595 227.026L170.932 253.883L186.033 267.392L183.529 261.808L172.871 237.708L169.911 231.014L177.175 231.649C195.643 233.265 214.259 232.965 232.701 231.111C251.129 229.182 269.39 225.429 286.937 219.542C304.428 213.623 321.382 205.588 335.925 194.277C343.155 188.62 349.842 182.209 355.232 174.827C360.586 167.451 364.785 159.169 366.713 150.269C367.324 148.072 367.48 145.795 367.856 143.552C367.935 141.284 368.245 139.011 368.08 136.734C368.085 132.171 367.283 127.642 366.187 123.208C365.046 118.769 363.274 114.508 361.249 110.373C359.059 106.325 356.688 102.334 353.804 98.6968C348.211 91.2902 341.393 84.8118 333.988 79.1265C326.59 73.4115 318.557 68.5106 310.187 64.294C293.428 55.8679 275.433 49.916 257.039 46.0854C238.635 42.204 219.809 40.516 201.007 40.3668C185.859 40.5021 170.695 41.5635 155.753 44.0903C140.801 46.4996 126.062 50.2915 111.883 55.5679" fill="white"/>
<path d="M217.363 40.8269C217.844 40.8518 218.323 40.8811 218.804 40.9095C218.325 40.8796 217.844 40.8553 217.363 40.8269Z" fill="white"/>
<path d="M208.207 40.462C210.279 40.5118 212.35 40.5849 214.42 40.6744C212.36 40.5814 210.288 40.5128 208.207 40.462Z" fill="white"/>
<path d="M192.097 40.5019C192.299 40.4985 192.5 40.492 192.702 40.4871C192.5 40.492 192.299 40.497 192.097 40.5019Z" fill="white"/>
<path d="M369.343 122.326C368.01 117.679 366.032 113.266 363.804 109.02C361.414 104.868 358.841 100.812 355.774 97.153C349.814 89.6937 342.684 83.296 335.027 77.7406C327.355 72.1905 319.166 67.4159 310.685 63.2871C293.694 55.0365 275.526 49.5372 257.102 45.7751C244.477 43.1869 231.662 41.6498 218.804 40.9093C218.323 40.8795 217.844 40.8532 217.363 40.8268C216.382 40.7761 215.401 40.7179 214.42 40.6741C212.35 40.5846 210.279 40.5109 208.207 40.4617C208.095 40.4599 207.981 40.4567 207.867 40.4567C205.58 40.406 203.294 40.3741 201.008 40.3691C219.809 40.5184 238.636 42.2063 257.039 46.0877C275.434 49.9183 293.428 55.8703 310.187 64.2964C318.557 68.5129 326.59 73.4138 333.988 79.1289C341.393 84.8141 348.212 91.2925 353.804 98.6992C356.689 102.337 359.059 106.327 361.249 110.375C363.274 114.511 365.046 118.771 366.187 123.211C367.284 127.645 368.087 132.174 368.08 136.736C368.245 139.014 367.934 141.286 367.856 143.555C367.48 145.797 367.324 148.075 366.714 150.272C364.785 159.172 360.586 167.454 355.233 174.829C349.842 182.211 343.155 188.623 335.925 194.28C321.383 205.591 304.429 213.625 286.938 219.544C269.391 225.431 251.129 229.184 232.701 231.113C214.259 232.967 195.644 233.268 177.175 231.652L169.911 231.016L172.871 237.71L183.529 261.81L186.033 267.395L170.932 253.886L140.595 227.028L139.835 226.354L138.896 226.14C124.358 222.817 110.056 218.339 96.4765 212.224C82.9508 206.068 70.0351 198.34 59.0977 188.365C48.1864 178.481 39.2641 166.022 35.6566 151.763C31.9691 137.563 34.2811 122.033 41.5068 109.05C48.6121 95.9392 59.5783 85.1214 71.7639 76.3443C77.8594 71.9101 84.4046 68.1007 91.1253 64.6632C97.8609 61.2521 104.775 58.1585 111.884 55.5703C126.062 50.2939 140.802 46.502 155.754 44.0928C170.695 41.566 185.859 40.5044 201.008 40.3693C199.446 40.3676 197.886 40.3892 196.325 40.4091C195.117 40.429 193.91 40.4589 192.703 40.4882C192.501 40.4932 192.299 40.4981 192.097 40.5031C164.77 41.2857 137.498 45.8216 111.62 54.8426C97.3107 59.8961 83.4923 66.5008 70.8337 75.0094C58.2704 83.5513 46.7607 94.227 38.99 107.647C31.1014 120.918 28.0915 137.388 31.6346 152.718C32.4742 156.544 33.6778 160.293 35.2275 163.887C36.7218 167.505 38.5711 170.967 40.6356 174.278C44.7517 180.922 49.8225 186.904 55.4088 192.291C66.608 203.082 79.8204 211.469 93.6579 218.237C107.232 224.816 121.528 229.787 136.133 233.377L165.335 260.101L195.365 287.299L210.375 300.893L202.182 282.347L191.534 258.243L183.691 240.738C219.374 242.693 255.539 238.394 289.301 226.283C307.206 219.669 324.532 210.889 339.419 198.651C346.819 192.526 353.664 185.603 359.163 177.623C364.627 169.653 368.874 160.687 370.679 151.102C371.258 148.737 371.374 146.291 371.701 143.887C371.725 141.458 371.978 139.032 371.74 136.61C371.608 131.755 370.631 126.97 369.342 122.327" fill="#1A181B"/>
<path d="M6.47119 41.5951L0 52.1847L54.9471 73.0096L6.47119 41.5951Z" fill="#1B171B"/>
<path d="M69.4029 0L57.2899 2.69874L71.3364 58.7283L69.4029 0Z" fill="#1B171B"/>
<path d="M17.7932 0.482666L4.29637 10.9355L64.763 64.5698L17.7932 0.482666Z" fill="#1B171B"/>
<path d="M365.857 89.6042L400 76.6632L395.98 70.083L365.857 89.6042Z" fill="#1B171B"/>
<path d="M356.875 44.2345L355.673 80.7289L364.401 45.912L356.875 44.2345Z" fill="#1B171B"/>
<path d="M397.331 51.0303L388.945 44.5344L359.758 84.361L397.331 51.0303Z" fill="#1B171B"/>
</g>
<defs>
<clipPath id="clip0">
<rect width="400" height="300.893" fill="white"/>
</clipPath>
</defs>
</svg>
