<svg width="40" height="20" viewBox="0 0 40 20" fill="none" xmlns="http://www.w3.org/2000/svg">
<rect x="0.5" y="2.5" width="39" height="15" rx="7.5" fill="#353535" stroke="white"/>
<g clip-path="url(#clip0)">
<path d="M10.7544 0.0285645C10.7991 0.0318978 10.8436 0.0361062 10.8881 0.0400229C10.8436 0.0361062 10.7991 0.0318978 10.7544 0.0285645Z" fill="#FFEDB9"/>
<path d="M10.2515 0.00292969C10.2834 0.00372136 10.3151 0.00534636 10.3469 0.0064297C10.3151 0.00534636 10.2834 0.00372136 10.2515 0.00292969Z" fill="#FFEDB9"/>
<path d="M10.5054 0.0124512C10.5452 0.0144512 10.5848 0.0172845 10.6245 0.0197429C10.5848 0.0173262 10.5452 0.0144512 10.5054 0.0124512Z" fill="#FFEDB9"/>
<path d="M0.00535808 10.332C0.00444141 10.3041 0.00310808 10.2764 0.00244141 10.2485C0.00310808 10.2764 0.00444141 10.3041 0.00535808 10.332Z" fill="#FFEDB9"/>
<path d="M0.060267 11.095C0.0563087 11.0588 0.0523087 11.0226 0.0487671 10.9863C0.0523087 11.0227 0.0563504 11.0588 0.060267 11.095Z" fill="#FFEDB9"/>
<path d="M12.6476 0.355225C14.2542 0.796183 15.6989 1.62831 16.8742 2.74193C16.4778 2.69414 16.0752 2.66668 15.6659 2.66668C15.2031 2.66668 14.7478 2.69885 14.3016 2.75972C14.3204 2.78418 14.3387 2.80914 14.3563 2.8351C14.7363 3.39647 14.6904 4.09118 14.2538 4.38677C13.8171 4.68235 13.1551 4.46685 12.7751 3.90547C12.6166 3.67139 12.5325 3.41422 12.5196 3.17239C11.7625 3.42318 11.0457 3.76202 10.3809 4.17672C10.5593 4.40339 10.6659 4.68914 10.6659 5.00002C10.6659 5.73639 10.069 6.33335 9.33261 6.33335C8.93116 6.33335 8.57145 6.15568 8.32699 5.87497C6.6757 7.65843 5.66596 10.0445 5.66596 12.6667C5.66596 15.5256 6.86762 18.1023 8.79103 19.9248C5.54458 19.5335 2.77675 17.5879 1.25488 14.8536C2.96217 17.923 6.23791 20 9.99928 20C15.5221 20 19.9993 15.5229 19.9993 10C19.9993 5.3941 16.8851 1.51618 12.6476 0.355225ZM7.76262 7.76335C7.88924 7.63998 8.10928 7.63998 8.23591 7.76335C8.29583 7.82668 8.33258 7.91327 8.33258 8.00002C8.33258 8.0866 8.29578 8.17335 8.23591 8.23668C8.17245 8.2966 8.08583 8.33335 7.99924 8.33335C7.91266 8.33335 7.82574 8.29656 7.76258 8.23668C7.70237 8.17335 7.66591 8.0866 7.66591 8.00002C7.66595 7.91002 7.70241 7.82668 7.76262 7.76335ZM7.56928 16.2366C7.50583 16.2966 7.4192 16.3333 7.33262 16.3333C7.24604 16.3333 7.15912 16.2965 7.09595 16.2366C7.03575 16.1733 6.99929 16.0866 6.99929 16C6.99929 15.9132 7.03575 15.8266 7.09595 15.7633C7.22258 15.6399 7.44262 15.6399 7.56924 15.7633C7.62916 15.8266 7.66591 15.9132 7.66591 16C7.66595 16.0866 7.62916 16.1733 7.56928 16.2366ZM7.66595 12.5C7.66595 11.4875 8.48674 10.6667 9.49928 10.6667C10.5118 10.6667 11.3326 11.4875 11.3326 12.5C11.3326 13.5126 10.5118 14.3334 9.49928 14.3334C8.48674 14.3334 7.66595 13.5126 7.66595 12.5ZM11.1775 18.288C10.3585 18.5073 9.55895 18.1786 9.39161 17.5537C9.22428 16.9289 9.75257 16.2446 10.5716 16.0253C11.3906 15.806 12.1901 16.1347 12.3574 16.7595C12.5248 17.3843 11.9965 18.0686 11.1775 18.288ZM13.5693 12.2367C13.5058 12.2966 13.4192 12.3334 13.3326 12.3334C13.246 12.3334 13.1591 12.2966 13.0959 12.2367C13.0357 12.1734 12.9993 12.0866 12.9993 12C12.9993 11.9133 13.0357 11.8267 13.0959 11.7634C13.2226 11.64 13.4426 11.64 13.5692 11.7634C13.6291 11.8267 13.6659 11.9133 13.6659 12C13.6659 12.0866 13.6291 12.1734 13.5693 12.2367ZM12.9993 9.00002C12.447 9.00002 11.9993 8.55231 11.9993 8.00002C11.9993 7.44773 12.447 7.00002 12.9993 7.00002C13.5516 7.00002 13.9993 7.44773 13.9993 8.00002C13.9993 8.55231 13.5516 9.00002 12.9993 9.00002ZM15.7659 6.09668C15.8824 5.97656 16.1093 5.97331 16.2359 6.09668C16.2958 6.16002 16.3326 6.2466 16.3326 6.33335C16.3326 6.41993 16.2958 6.50668 16.2359 6.57002C16.1724 6.62993 16.0858 6.66668 15.9992 6.66668C15.9091 6.66668 15.8257 6.62989 15.7626 6.57002C15.7024 6.50668 15.6659 6.41993 15.6659 6.33335C15.6659 6.24335 15.7024 6.16002 15.7659 6.09668ZM15.9933 14.6906C15.6185 15.0653 15.0868 15.1413 14.8058 14.8602C14.5247 14.5791 14.6006 14.0474 14.9754 13.6727C15.3502 13.2979 15.8819 13.222 16.1629 13.503C16.4439 13.7841 16.368 14.3158 15.9933 14.6906ZM16.178 11.1515C15.6653 11.067 15.3411 10.4444 15.4538 9.76085C15.5664 9.07731 16.0734 8.59173 16.586 8.67623C17.0986 8.76073 17.4229 9.38335 17.3102 10.0669C17.1976 10.7504 16.6906 11.236 16.178 11.1515Z" fill="#FFEDB9"/>
<path d="M0.0180404 10.5952C0.016082 10.5621 0.013832 10.5292 0.012207 10.4961C0.013832 10.5292 0.0161237 10.5621 0.0180404 10.5952Z" fill="#FFEDB9"/>
<path d="M12.4219 0.296387C12.4942 0.314387 12.5661 0.333178 12.6378 0.352761C12.5661 0.33322 12.4942 0.314387 12.4219 0.296387Z" fill="#FFEDB9"/>
<path d="M11.9604 0.192627C12.0246 0.205377 12.0884 0.218919 12.1521 0.232919C12.0884 0.218919 12.0245 0.205335 11.9604 0.192627Z" fill="#FFEDB9"/>
<path d="M11.001 0.0498047C11.0498 0.0546797 11.0984 0.060388 11.1471 0.0659297C11.0984 0.060388 11.0499 0.0546797 11.001 0.0498047Z" fill="#FFEDB9"/>
<path d="M0.0379025 10.8476C0.0349442 10.8124 0.0318192 10.7774 0.0292358 10.7422C0.0318192 10.7774 0.0349858 10.8125 0.0379025 10.8476Z" fill="#FFEDB9"/>
<path d="M12.1924 0.241455C12.2604 0.256705 12.3282 0.272705 12.3957 0.28933C12.3282 0.272747 12.2605 0.256705 12.1924 0.241455Z" fill="#FFEDB9"/>
<path d="M11.2451 0.0769043C11.2978 0.083446 11.3502 0.090821 11.4027 0.098196C11.3502 0.090821 11.2978 0.083446 11.2451 0.0769043Z" fill="#FFEDB9"/>
<path d="M11.4868 0.110107C11.5433 0.118524 11.5994 0.127732 11.6556 0.137107C11.5994 0.127732 11.5433 0.118524 11.4868 0.110107Z" fill="#FFEDB9"/>
<path d="M11.7261 0.148682C11.7863 0.159182 11.8463 0.170432 11.9062 0.182015C11.8463 0.170474 11.7863 0.159182 11.7261 0.148682Z" fill="#FFEDB9"/>
<path d="M0.166651 11.8205C0.159693 11.7827 0.153026 11.7447 0.146484 11.7068C0.153026 11.7447 0.159693 11.7826 0.166651 11.8205Z" fill="#FFEDB9"/>
<path d="M0.0900583 11.3398C0.0851001 11.3029 0.0802252 11.266 0.0756836 11.229C0.0802668 11.266 0.0851417 11.3029 0.0900583 11.3398Z" fill="#FFEDB9"/>
<path d="M0.589031 13.3847C0.524239 13.2047 0.464739 13.0221 0.410156 12.8374C0.464739 13.0221 0.524281 13.2047 0.589031 13.3847Z" fill="#FFEDB9"/>
<path d="M0.745028 13.791C0.723402 13.7383 0.701902 13.6855 0.681152 13.6323C0.701902 13.6855 0.723402 13.7383 0.745028 13.791Z" fill="#FFEDB9"/>
<path d="M0.834144 14.0041C0.811269 13.9518 0.788602 13.8994 0.766602 13.8467C0.788602 13.8994 0.811269 13.9518 0.834144 14.0041Z" fill="#FFEDB9"/>
<path d="M0.66025 13.5796C0.639167 13.5247 0.618209 13.4697 0.598083 13.4143C0.618209 13.4697 0.639209 13.5246 0.66025 13.5796Z" fill="#FFEDB9"/>
<path d="M0.213638 12.0585C0.205638 12.0202 0.198013 11.9818 0.19043 11.9434C0.198013 11.9818 0.205596 12.0202 0.213638 12.0585Z" fill="#FFEDB9"/>
<path d="M0.322906 12.526C0.312532 12.4861 0.302824 12.446 0.292908 12.406C0.302824 12.446 0.312532 12.4861 0.322906 12.526Z" fill="#FFEDB9"/>
<path d="M0.265591 12.2933C0.256466 12.2545 0.247924 12.2155 0.239258 12.1765C0.247924 12.2155 0.256508 12.2545 0.265591 12.2933Z" fill="#FFEDB9"/>
<path d="M0.124733 11.5815C0.118775 11.5441 0.113025 11.5065 0.107483 11.469C0.113025 11.5066 0.118775 11.544 0.124733 11.5815Z" fill="#FFEDB9"/>
<path d="M0.384057 12.7566C0.371974 12.7145 0.360724 12.672 0.349182 12.6296C0.360682 12.672 0.371974 12.7145 0.384057 12.7566Z" fill="#FFEDB9"/>
<path d="M1.03032 14.4262C1.00382 14.3727 0.977732 14.3188 0.952148 14.2646C0.97769 14.3188 1.00382 14.3727 1.03032 14.4262Z" fill="#FFEDB9"/>
<path d="M1.24695 14.8382C1.21482 14.7803 1.18336 14.722 1.1524 14.6633C1.18336 14.722 1.21486 14.7803 1.24695 14.8382Z" fill="#FFEDB9"/>
<path d="M1.1376 14.6334C1.1086 14.5781 1.08019 14.5224 1.05219 14.4666C1.08019 14.5225 1.10864 14.5781 1.1376 14.6334Z" fill="#FFEDB9"/>
<path d="M0.929224 14.2159C0.904725 14.1632 0.880558 14.1105 0.856934 14.0574C0.880517 14.1105 0.904725 14.1632 0.929224 14.2159Z" fill="#FFEDB9"/>
<path d="M8.79175 19.9247C6.86833 18.1022 5.66667 15.5256 5.66667 12.6667C5.66667 10.0445 6.67642 7.65846 8.32771 5.875C8.57217 6.15567 8.93187 6.33333 9.33333 6.33333C10.0697 6.33333 10.6667 5.73637 10.6667 5C10.6667 4.68912 10.56 4.40337 10.3816 4.17662C11.0464 3.76192 11.7632 3.42308 12.5203 3.17229C12.5332 3.41412 12.6174 3.67133 12.7758 3.90537C13.1558 4.46675 13.8179 4.68225 14.2545 4.38667C14.6911 4.09108 14.737 3.39642 14.357 2.835C14.3394 2.80904 14.3211 2.78408 14.3024 2.75962C14.7485 2.69883 15.2038 2.66667 15.6667 2.66667C16.0759 2.66667 16.4785 2.69412 16.8749 2.74192C15.6996 1.62829 14.2549 0.796167 12.6484 0.355208C12.6451 0.354292 12.6418 0.353417 12.6385 0.352542C12.5668 0.332958 12.4949 0.314167 12.4226 0.296167C12.4139 0.294 12.4052 0.291917 12.3965 0.289792C12.329 0.273167 12.2612 0.257167 12.1932 0.241917C12.1795 0.238875 12.1657 0.235958 12.1521 0.232958C12.0884 0.218958 12.0246 0.205458 11.9605 0.192667C11.942 0.189 11.9234 0.185583 11.9049 0.182C11.845 0.170417 11.785 0.159167 11.7248 0.148667C11.7015 0.144625 11.6781 0.140958 11.6548 0.137083C11.5987 0.127708 11.5425 0.1185 11.4861 0.110083C11.4582 0.105917 11.4302 0.102292 11.4022 0.0983333C11.3497 0.0909583 11.2973 0.0835833 11.2446 0.0770417C11.212 0.073 11.1792 0.0695833 11.1465 0.0658333C11.0979 0.06025 11.0493 0.0545417 11.0004 0.0497083C10.9629 0.0459583 10.9251 0.043 10.8875 0.0396667C10.843 0.03575 10.7985 0.0315417 10.7537 0.0282083C10.7106 0.025 10.6671 0.022625 10.6238 0.0199583C10.5841 0.0175 10.5445 0.0146667 10.5046 0.0126667C10.4528 0.0100833 10.4007 0.00854167 10.3487 0.00675C10.3169 0.00566667 10.2852 0.00404167 10.2533 0.00325C10.1691 0.001125 10.0847 0 10 0C4.47717 0 0 4.47717 0 10C0 10.0832 0.001125 10.1662 0.00316667 10.2489C0.00383333 10.2767 0.00520833 10.3045 0.00608333 10.3322C0.007875 10.387 0.00966667 10.4417 0.0123333 10.4963C0.0139583 10.5294 0.0162083 10.5623 0.0181667 10.5954C0.0210417 10.6444 0.023875 10.6933 0.0274583 10.7421C0.0300417 10.7773 0.0331667 10.8124 0.036125 10.8475C0.04 10.8938 0.0439167 10.9401 0.0484583 10.9862C0.052 11.0226 0.056 11.0587 0.0599583 11.095C0.0648333 11.1396 0.0697917 11.1842 0.07525 11.2286C0.0797917 11.2657 0.0846667 11.3026 0.089625 11.3395C0.0954167 11.3827 0.101375 11.4258 0.107708 11.4688C0.11325 11.5064 0.119 11.5439 0.124958 11.5813C0.131625 11.6234 0.138583 11.6653 0.145792 11.7072C0.152333 11.7451 0.158958 11.783 0.165958 11.8208C0.173458 11.8617 0.181375 11.9024 0.189375 11.943C0.196958 11.9815 0.204542 12.0199 0.212583 12.0582C0.220833 12.0977 0.229583 12.137 0.238292 12.1764C0.246958 12.2153 0.255542 12.2543 0.264625 12.2931C0.2735 12.3309 0.282917 12.3685 0.292208 12.4062C0.302083 12.4462 0.311833 12.4863 0.322208 12.5261C0.33125 12.5608 0.340875 12.5952 0.35025 12.6298C0.361792 12.6722 0.373042 12.7147 0.385125 12.7568C0.392833 12.7837 0.401125 12.8104 0.409042 12.8372C0.463625 13.0219 0.523125 13.2044 0.587917 13.3845C0.5915 13.3945 0.594875 13.4045 0.5985 13.4145C0.618625 13.4699 0.639583 13.5249 0.660667 13.5798C0.667333 13.5972 0.673792 13.6147 0.680542 13.6321C0.701292 13.6852 0.722792 13.7381 0.744417 13.7908C0.752042 13.8093 0.759458 13.828 0.767167 13.8465C0.789167 13.8992 0.811833 13.9516 0.834708 14.0038C0.8425 14.0216 0.850167 14.0395 0.858083 14.0572C0.881708 14.1103 0.905875 14.1632 0.930375 14.2157C0.937917 14.2319 0.945375 14.2481 0.953 14.2642C0.978583 14.3183 1.00467 14.3722 1.03117 14.4258C1.03792 14.4395 1.04467 14.4531 1.0515 14.4667C1.0795 14.5226 1.10792 14.5782 1.13692 14.6335C1.14217 14.6435 1.1475 14.6535 1.15279 14.6636C1.18379 14.7222 1.21521 14.7806 1.24733 14.8385C1.25012 14.8435 1.25292 14.8485 1.25571 14.8535C2.77746 17.5879 5.54533 19.5335 8.79175 19.9247ZM12.8783 2.35375C13.2945 2.07204 13.9125 2.25846 14.2989 2.76217C13.6879 2.84579 13.0949 2.9845 12.5243 3.17329C12.5063 2.83512 12.6237 2.52608 12.8783 2.35375ZM8.43 1.43C8.55337 1.30662 8.77667 1.30662 8.90329 1.43C8.96321 1.49333 8.99996 1.57992 8.99996 1.66667C8.99996 1.75325 8.96317 1.84 8.90329 1.90333C8.83983 1.96321 8.75325 2 8.66667 2C8.58008 2 8.49317 1.96321 8.43 1.90333C8.36979 1.84 8.33333 1.75667 8.33333 1.66667C8.33333 1.57667 8.36979 1.48992 8.43 1.43ZM8.00175 4.93137C8.03629 4.24958 8.58296 3.70296 9.26475 3.66837C9.28746 3.66725 9.31033 3.66667 9.33333 3.66667C9.75912 3.66667 10.1339 3.86992 10.378 4.18062C9.62254 4.65246 8.93467 5.22183 8.33208 5.872C8.12792 5.63775 8 5.33517 8 5C8 4.977 8.00058 4.95412 8.00175 4.93137ZM4.34171 4.17504C4.73354 3.78321 5.32917 3.7435 5.672 4.08637C6.01487 4.42925 5.97517 5.02483 5.58333 5.41667C5.1915 5.8085 4.59587 5.84821 4.25304 5.50533C3.91021 5.16246 3.94987 4.56687 4.34171 4.17504ZM5 11.9958C5 12.0824 4.96321 12.1692 4.90333 12.2325C4.83987 12.2924 4.75325 12.3292 4.66667 12.3292C4.58008 12.3292 4.49317 12.2924 4.43 12.2325C4.36979 12.1692 4.33333 12.0824 4.33333 11.9958C4.33333 11.9091 4.36979 11.8225 4.43 11.7592C4.55337 11.6358 4.77992 11.6358 4.90329 11.7592C4.96321 11.8225 5 11.9091 5 11.9958ZM2 9.33333C2 8.59696 2.52233 8 3.16667 8C3.811 8 4.33333 8.59696 4.33333 9.33333C4.33333 10.0697 3.811 10.6667 3.16667 10.6667C2.52233 10.6667 2 10.0697 2 9.33333ZM3.21196 13.5453C3.6025 13.1547 4.34117 13.2603 4.86187 13.781C5.38258 14.3017 5.48812 15.0404 5.09758 15.4309C4.70704 15.8215 3.96837 15.7159 3.44767 15.1952C2.92696 14.6745 2.82142 13.9358 3.21196 13.5453Z" fill="#FFD586"/>
<path d="M3.16624 10.6667C3.81057 10.6667 4.33291 10.0697 4.33291 9.33333C4.33291 8.59695 3.81057 8 3.16624 8C2.52191 8 1.99957 8.59695 1.99957 9.33333C1.99957 10.0697 2.52191 10.6667 3.16624 10.6667Z" fill="#E7B27E"/>
<path d="M3.44712 15.1949C3.96781 15.7156 4.7065 15.8211 5.09702 15.4306C5.48755 15.0401 5.38202 14.3014 4.86132 13.7807C4.34063 13.26 3.60194 13.1545 3.21141 13.545C2.82089 13.9355 2.92642 14.6742 3.44712 15.1949Z" fill="#E7B27E"/>
<path d="M16.1632 13.503C15.8822 13.222 15.3505 13.2979 14.9757 13.6727C14.6009 14.0475 14.525 14.5791 14.8061 14.8602C15.0871 15.1413 15.6188 15.0653 15.9936 14.6906C16.3684 14.3158 16.4443 13.7841 16.1632 13.503Z" fill="#FFD586"/>
<path d="M7.99937 8.33343C8.08595 8.33343 8.17254 8.29664 8.23604 8.23676C8.29595 8.17343 8.3327 8.08668 8.3327 8.0001C8.3327 7.91335 8.29591 7.82676 8.23604 7.76343C8.10941 7.64005 7.88937 7.64005 7.76274 7.76343C7.70253 7.82676 7.66608 7.9101 7.66608 8.0001C7.66608 8.08668 7.70253 8.17343 7.76274 8.23676C7.82587 8.29664 7.91278 8.33343 7.99937 8.33343Z" fill="#FFD586"/>
<path d="M4.4301 11.7595C4.36989 11.8229 4.33344 11.9094 4.33344 11.9962C4.33344 12.0828 4.36989 12.1695 4.4301 12.2328C4.49327 12.2928 4.58018 12.3295 4.66677 12.3295C4.75335 12.3295 4.83993 12.2927 4.90343 12.2328C4.96335 12.1695 5.0001 12.0828 5.0001 11.9962C5.0001 11.9094 4.96331 11.8229 4.90343 11.7595C4.78006 11.6361 4.55348 11.6361 4.4301 11.7595Z" fill="#E7B27E"/>
<path d="M13.0971 11.7637C13.0369 11.827 13.0004 11.9136 13.0004 12.0004C13.0004 12.0869 13.0369 12.1737 13.0971 12.237C13.1603 12.2969 13.2472 12.3337 13.3338 12.3337C13.4203 12.3337 13.5069 12.2969 13.5704 12.237C13.6303 12.1737 13.6671 12.0869 13.6671 12.0004C13.6671 11.9136 13.6303 11.827 13.5704 11.7637C13.4438 11.6403 13.2237 11.6403 13.0971 11.7637Z" fill="#FFD586"/>
<path d="M15.9998 6.6667C16.0864 6.6667 16.173 6.62991 16.2365 6.57003C16.2964 6.5067 16.3331 6.41994 16.3331 6.33336C16.3331 6.24661 16.2963 6.16002 16.2365 6.09669C16.1098 5.97331 15.883 5.97656 15.7664 6.09669C15.703 6.16002 15.6665 6.24336 15.6665 6.33336C15.6665 6.41994 15.703 6.5067 15.7632 6.57003C15.8263 6.62991 15.9096 6.6667 15.9998 6.6667Z" fill="#FFD586"/>
<path d="M8.66591 2.00018C8.7525 2.00018 8.83908 1.96339 8.90258 1.90351C8.9625 1.84018 8.99925 1.75343 8.99925 1.66685C8.99925 1.58009 8.96246 1.49351 8.90258 1.43018C8.77596 1.3068 8.55266 1.3068 8.42929 1.43018C8.36904 1.49009 8.33258 1.57684 8.33258 1.66685C8.33258 1.75685 8.36904 1.84018 8.42925 1.90351C8.49241 1.96339 8.57933 2.00018 8.66591 2.00018Z" fill="#E7B27E"/>
<path d="M7.09624 15.7634C7.03603 15.8268 6.99957 15.9134 6.99957 16.0001C6.99957 16.0867 7.03603 16.1734 7.09624 16.2368C7.15941 16.2967 7.24632 16.3335 7.33291 16.3335C7.41949 16.3335 7.50607 16.2967 7.56957 16.2368C7.62949 16.1734 7.66624 16.0867 7.66624 16.0001C7.66624 15.9134 7.62945 15.8268 7.56957 15.7634C7.44295 15.6401 7.22286 15.6401 7.09624 15.7634Z" fill="#FFD586"/>
<path d="M9.49934 14.3334C10.5119 14.3334 11.3327 13.5126 11.3327 12.5001C11.3327 11.4876 10.5119 10.6667 9.49934 10.6667C8.48682 10.6667 7.66602 11.4876 7.66602 12.5001C7.66602 13.5126 8.48682 14.3334 9.49934 14.3334Z" fill="#FFD586"/>
<path d="M12.9996 9C13.5519 9 13.9996 8.55228 13.9996 8C13.9996 7.44772 13.5519 7 12.9996 7C12.4473 7 11.9996 7.44772 11.9996 8C11.9996 8.55228 12.4473 9 12.9996 9Z" fill="#FFD586"/>
<path d="M12.3578 16.7582C12.1904 16.1333 11.3908 15.8046 10.5718 16.0239C9.75279 16.2433 9.2245 16.9276 9.39183 17.5524C9.55917 18.1773 10.3588 18.506 11.1778 18.2867C11.9968 18.0674 12.5251 17.383 12.3578 16.7582Z" fill="#FFD586"/>
<path d="M17.312 10.0668C17.4247 9.38321 17.1005 8.76056 16.5878 8.67603C16.0752 8.5915 15.5682 9.07709 15.4555 9.76063C15.3428 10.4442 15.667 11.0668 16.1796 11.1514C16.6923 11.2359 17.1993 10.7503 17.312 10.0668Z" fill="#FFD586"/>
<path d="M8.33251 5.87208C8.93504 5.22191 9.62291 4.65254 10.3784 4.18071C10.1343 3.87 9.75954 3.66675 9.33375 3.66675C9.31075 3.66675 9.28787 3.66733 9.26512 3.6685C8.58334 3.70304 8.03672 4.24971 8.00214 4.9315C8.00101 4.95421 8.00043 4.97708 8.00043 5.00008C8.00043 5.33521 8.12834 5.63783 8.33251 5.87208Z" fill="#E7B27E"/>
<path d="M4.25303 5.50511C4.5959 5.84797 5.19149 5.80827 5.58333 5.41643C5.97518 5.02459 6.01488 4.429 5.67202 4.08614C5.32915 3.74328 4.73356 3.78298 4.34172 4.17482C3.94988 4.56666 3.91017 5.16225 4.25303 5.50511Z" fill="#E7B27E"/>
<path d="M12.5238 3.17329C13.0944 2.9845 13.6874 2.84579 14.2983 2.76217C13.912 2.25846 13.2939 2.07205 12.8778 2.35375C12.6232 2.52609 12.5057 2.83513 12.5238 3.17329Z" fill="#E7B27E"/>
</g>
<defs>
<clipPath id="clip0">
<rect width="20" height="20" fill="white"/>
</clipPath>
</defs>
</svg>
